<svg width="836" height="300" viewBox="0 0 836 300" fill="none" xmlns="http://www.w3.org/2000/svg">
<path fill-rule="evenodd" clip-rule="evenodd" d="M97.7213 267.865C33.7388 232.769 -5.1098 181.649 0.543736 129.12C9.72052 43.8558 132.675 -12.832 275.17 2.50436C281.599 3.19635 287.959 4.02315 294.24 4.97902C157.984 -6.11475 41.6572 56.2441 33.6143 145.233C29.5132 190.611 54.3527 234.224 97.7213 267.865ZM166.347 299.197C158.166 295.838 150.283 292.197 142.729 288.301C77.3376 254.572 36.6411 201.689 41.6669 146.082C49.448 59.9881 163.885 -0.0321503 297.27 12.0231C338.338 15.7349 376.413 25.8464 409.22 40.5779C441.087 56.5706 467.421 76.4128 486.092 98.4988C444.527 70.1838 387.451 49.4267 323.145 42.3537C194.029 28.1524 81.904 74.1926 62.5959 146.598C60.7457 152.515 59.5172 158.606 58.9528 164.851C54.6174 212.819 90.4636 258.9 149.138 290.613C154.676 293.606 160.417 296.471 166.347 299.197Z" fill="white"/>
<path d="M186.12 263.516C185.334 263.516 184.773 263.179 184.436 262.505L149.9 175.409C147.093 167.997 144.566 162.606 142.319 159.237C141.533 158.001 139.905 157.047 137.434 156.373C134.963 155.699 132.998 155.362 131.538 155.362C131.089 155.362 130.864 154.632 130.864 153.172C130.864 151.824 131.089 150.926 131.538 150.477C134.233 150.589 137.266 150.757 140.635 150.982C144.004 151.207 147.43 151.319 150.911 151.319C152.259 151.319 154.674 151.263 158.155 151.15C161.637 150.926 166.185 150.701 171.801 150.477C172.025 150.926 172.082 151.88 171.969 153.34C171.969 154.688 171.801 155.362 171.464 155.362C169.33 155.362 167.14 155.811 164.894 156.71C162.648 157.608 161.524 159.012 161.524 160.921C161.524 164.178 168.6 183.102 182.751 217.694C184.323 221.512 185.671 224.938 186.794 227.97C188.03 230.89 189.096 233.417 189.995 235.551C190.332 236.113 190.781 236.281 191.343 236.056C192.016 235.72 192.466 235.27 192.69 234.709L217.96 173.725C220.094 168.334 221.161 164.403 221.161 161.932C221.161 160.247 220.431 158.956 218.971 158.057C217.511 157.047 215.826 156.373 213.917 156.036C212.12 155.587 210.604 155.362 209.368 155.362C208.919 155.362 208.694 154.632 208.694 153.172C208.694 151.824 208.919 150.926 209.368 150.477C214.647 150.701 218.746 150.926 221.666 151.15C224.699 151.263 226.608 151.319 227.394 151.319L244.409 150.477C244.634 151.375 244.746 152.217 244.746 153.003C244.746 154.576 244.521 155.362 244.072 155.362C239.018 155.362 235.649 156.934 233.964 160.079C232.729 162.438 231.381 165.077 229.921 167.997C228.573 170.805 227.169 173.949 225.709 177.431L192.016 257.957C190.556 261.663 188.591 263.516 186.12 263.516ZM269.173 263.011C262.996 263.011 257.325 261.382 252.158 258.125C246.992 254.868 242.837 250.544 239.692 245.154C236.66 239.65 235.143 233.53 235.143 226.791C235.143 218.929 236.603 212.135 239.523 206.407C242.444 200.679 246.431 196.299 251.484 193.266C256.538 190.122 262.21 188.549 268.499 188.549C273.666 188.549 278.214 189.56 282.145 191.582C286.076 193.491 289.108 195.962 291.242 198.994C293.264 202.139 294.724 205.34 295.622 208.597C296.633 211.741 297.138 214.886 297.138 218.031C297.138 220.277 296.801 221.681 296.128 222.242C295.454 222.692 294.162 222.916 292.253 222.916H249.8C248.901 222.916 248.452 223.197 248.452 223.759C248.452 228.476 249.407 233.024 251.316 237.404C253.225 241.672 256.033 245.21 259.739 248.017C263.445 250.825 267.994 252.229 273.385 252.229C278.102 252.229 282.033 251.555 285.177 250.207C288.434 248.747 290.793 247.456 292.253 246.333L293.432 245.49C294.106 245.49 294.443 246.22 294.443 247.681C294.443 248.467 294.106 249.477 293.432 250.713C291.186 253.858 287.873 256.721 283.493 259.305C279.113 261.775 274.339 263.011 269.173 263.011ZM249.8 215.841H282.65C283.212 215.841 283.493 215.279 283.493 214.156C283.493 211.685 282.819 208.99 281.471 206.07C280.236 203.037 278.326 200.398 275.743 198.152C273.16 195.906 269.903 194.783 265.972 194.783C262.378 194.783 259.29 196.018 256.707 198.489C254.124 200.847 252.158 203.599 250.811 206.744C249.463 209.776 248.789 212.415 248.789 214.661C248.789 215.448 249.126 215.841 249.8 215.841ZM307.583 262.505C307.134 262.056 306.909 261.102 306.909 259.641C306.909 258.294 307.134 257.62 307.583 257.62C308.482 257.62 309.717 257.451 311.289 257.115C312.862 256.778 314.322 256.328 315.669 255.767C317.017 255.205 317.747 254.7 317.859 254.251C318.309 252.678 318.589 250.881 318.702 248.86C318.926 246.838 319.039 244.704 319.039 242.458V210.618C319.039 206.351 318.253 203.318 316.68 201.521C315.557 200.174 314.209 199.275 312.637 198.826C311.177 198.377 309.829 198.152 308.594 198.152C307.471 198.04 306.909 197.871 306.909 197.647C306.909 194.951 307.246 193.547 307.92 193.435C320.162 191.526 327.237 190.29 329.147 189.729L332.01 188.886C332.46 188.774 332.74 189.223 332.853 190.234C332.965 191.245 332.965 191.975 332.853 192.424L331.842 200.847C333.864 197.815 336.615 195.007 340.097 192.424C343.691 189.729 347.228 188.381 350.71 188.381C357.224 188.381 361.604 190.01 363.85 193.266C363.85 197.197 363.233 200.061 361.997 201.858C360.762 203.655 359.246 204.554 357.449 204.554C355.427 204.554 353.574 203.599 351.889 201.69C350.205 199.78 347.902 198.826 344.982 198.826C342.736 198.826 340.602 199.612 338.581 201.184C336.559 202.644 334.931 204.554 333.695 206.912C332.572 209.158 332.01 211.517 332.01 213.988V239.257C332.01 242.514 332.123 245.378 332.347 247.849C332.572 250.32 332.909 252.454 333.358 254.251C333.583 254.7 334.369 255.205 335.717 255.767C337.064 256.328 338.524 256.778 340.097 257.115C341.781 257.451 342.961 257.62 343.635 257.62C343.971 257.62 344.196 258.294 344.308 259.641C344.421 260.989 344.365 261.944 344.14 262.505L325.946 261.663L307.583 262.505ZM389.794 263.179C384.628 263.179 380.36 261.832 376.99 259.136C373.621 256.328 371.937 252.173 371.937 246.67C371.937 239.931 376.317 234.316 385.077 229.823C388.895 227.914 392.658 226.398 396.364 225.275C400.182 224.152 404.001 222.86 407.819 221.4C408.83 221.063 409.336 220.221 409.336 218.873V206.238C409.336 202.644 408.213 199.893 405.966 197.984C403.72 195.962 401.025 194.951 397.88 194.951C394.511 194.951 391.703 196.13 389.457 198.489C387.211 200.735 386.088 203.711 386.088 207.418C386.088 211.348 383.785 213.314 379.181 213.314C375.924 213.314 373.733 212.247 372.61 210.113C372.61 207.754 373.565 205.34 375.474 202.869C377.496 200.286 380.079 197.927 383.224 195.793C386.368 193.66 389.794 191.919 393.5 190.571C397.319 189.223 401.081 188.549 404.787 188.549C410.964 188.549 415.4 190.066 418.096 193.098C420.791 196.018 422.139 200.791 422.139 207.418V246.333C422.139 248.691 422.757 250.657 423.992 252.229C425.227 253.801 426.912 254.588 429.046 254.588C430.506 254.588 432.471 253.801 434.942 252.229C435.391 252.229 435.616 252.678 435.616 253.577C435.616 255.037 435.335 256.216 434.774 257.115C430.169 261.045 426.238 263.011 422.981 263.011C420.398 263.011 417.927 261.944 415.569 259.81C413.21 257.676 411.582 255.43 410.683 253.071C410.122 253.521 409.392 254.138 408.493 254.924C407.707 255.598 407.033 256.16 406.472 256.609C404.113 258.406 401.53 259.978 398.722 261.326C396.027 262.562 393.051 263.179 389.794 263.179ZM396.195 253.577C399.34 253.577 402.316 252.678 405.124 250.881C407.932 249.084 409.336 247.175 409.336 245.154V227.802C406.416 228.925 403.608 229.936 400.912 230.834C398.329 231.733 396.252 232.463 394.679 233.024C392.658 233.81 390.692 235.214 388.783 237.236C386.986 239.257 386.088 241.56 386.088 244.143C386.088 247.512 387.098 249.927 389.12 251.387C391.254 252.847 393.612 253.577 396.195 253.577ZM464.48 262.337C457.816 262.337 452.5 260.727 448.532 257.508C444.638 254.288 442.692 249.871 442.692 244.255C442.692 239.388 444.339 235.345 447.633 232.126C450.928 228.831 455.495 225.687 461.335 222.692C459.763 220.071 458.265 217.076 456.843 213.707C455.495 210.338 454.821 207.006 454.821 203.711C454.821 200.866 455.532 198.283 456.955 195.962C458.452 193.641 460.437 191.806 462.907 190.459C465.378 189.036 468.186 188.325 471.331 188.325C476.347 188.325 480.315 189.448 483.235 191.694C486.155 193.865 487.615 196.935 487.615 200.904C487.615 205.471 486.155 209.364 483.235 212.584C480.315 215.803 476.197 219.06 470.881 222.355C473.053 226.023 475.523 229.73 478.294 233.473C481.064 237.217 484.134 240.961 487.503 244.704C488.477 243.282 489.338 241.897 490.086 240.549C490.835 239.126 491.509 237.779 492.108 236.506C493.306 234.035 493.905 232.388 493.905 231.564C493.905 230.516 493.268 229.954 491.996 229.879C490.798 229.73 489.749 229.617 488.851 229.543C488.701 229.093 488.626 228.644 488.626 228.195C488.626 227.596 488.739 227.184 488.963 226.959H497.836C500.456 226.959 502.777 226.885 504.799 226.735C506.895 226.585 508.692 226.473 510.19 226.398C510.564 226.622 510.751 227.109 510.751 227.858C510.751 228.981 510.527 229.543 510.077 229.543C509.478 229.543 508.617 229.655 507.494 229.879C506.446 230.104 505.435 230.366 504.462 230.666C503.489 230.89 502.777 231.152 502.328 231.452C502.029 231.751 501.355 232.799 500.306 234.596C499.258 236.319 497.911 238.415 496.263 240.886C494.616 243.357 492.744 245.79 490.648 248.186C493.044 250.657 494.878 252.529 496.151 253.801C497.499 254.999 498.547 255.823 499.296 256.272C500.119 256.721 500.905 256.946 501.654 256.946C502.702 256.946 503.825 256.31 505.023 255.037C506.296 253.764 507.12 252.678 507.494 251.78C508.093 251.78 508.655 252.004 509.179 252.454C509.778 252.903 510.077 253.352 510.077 253.801C509.628 254.7 508.954 255.786 508.056 257.058C507.157 258.331 505.885 259.492 504.237 260.54C502.665 261.513 500.531 262 497.836 262C495.889 262 493.83 261.326 491.659 259.978C489.562 258.556 487.915 257.208 486.717 255.935L484.92 253.914C478.556 259.529 471.742 262.337 464.48 262.337ZM468.86 218.761C472.753 216.515 475.561 214.268 477.283 212.022C479.08 209.701 479.978 206.519 479.978 202.476C479.978 199.78 479.23 197.422 477.732 195.4C476.235 193.379 474.288 192.368 471.892 192.368C469.421 192.368 467.325 193.192 465.603 194.839C463.881 196.411 463.02 198.47 463.02 201.016C463.02 205.808 464.966 211.723 468.86 218.761ZM468.298 257.508C470.619 257.508 473.09 256.946 475.711 255.823C478.406 254.7 480.615 253.202 482.337 251.331C480.914 249.833 479.23 247.886 477.283 245.49C475.411 243.095 473.539 240.624 471.668 238.078C469.871 235.532 468.298 233.249 466.95 231.227L463.918 226.735C461.822 228.232 459.875 229.692 458.078 231.115C456.356 232.463 454.971 234.035 453.923 235.832C452.874 237.629 452.35 239.912 452.35 242.683C452.35 247.624 453.885 251.331 456.955 253.801C460.025 256.272 463.806 257.508 468.298 257.508ZM553.429 263.685C550.733 263.685 547.87 263.46 544.837 263.011C541.805 262.674 539.278 262.281 537.256 261.832C533.101 261.045 530.069 260.428 528.159 259.978C526.362 259.417 524.678 259.024 523.105 258.799C521.645 251.836 520.578 246.164 519.904 241.784C519.231 237.292 518.894 234.035 518.894 232.013C518.894 231.339 519.792 231.003 521.589 231.003C523.611 231.003 525.015 231.508 525.801 232.519C529.732 248.691 539.053 256.778 553.766 256.778C559.381 256.778 564.154 255.093 568.085 251.724C572.016 248.354 573.982 243.581 573.982 237.404C573.982 235.383 573.532 232.912 572.634 229.992C571.848 227.072 569.995 224.545 567.075 222.411C564.828 220.726 562.975 219.491 561.515 218.705C560.055 217.806 558.595 217.02 557.135 216.346C555.675 215.56 553.822 214.493 551.576 213.145L544.837 209.102C541.356 206.968 537.874 204.554 534.392 201.858C530.911 199.05 527.991 195.793 525.632 192.087C523.386 188.381 522.263 184.169 522.263 179.452C522.263 173.5 523.779 168.334 526.812 163.954C529.956 159.461 533.999 155.98 538.941 153.509C543.995 151.038 549.442 149.803 555.282 149.803C557.753 149.803 560.055 149.971 562.189 150.308C564.435 150.533 566.288 150.813 567.748 151.15C571.118 151.937 573.476 152.554 574.824 153.003C576.284 153.453 578.249 153.958 580.72 154.52C582.068 160.36 582.742 168.39 582.742 178.61C582.742 179.396 582.18 179.789 581.057 179.789C578.249 179.789 576.789 179.228 576.677 178.105C576.115 174.735 574.88 171.422 572.971 168.165C571.062 164.908 568.478 162.213 565.221 160.079C561.964 157.833 558.09 156.71 553.597 156.71C548.993 156.71 545.399 157.608 542.816 159.405C540.233 161.09 538.379 163.28 537.256 165.975C536.246 168.558 535.74 171.31 535.74 174.23C535.74 177.038 536.414 179.845 537.762 182.653C539.109 185.461 541.075 187.819 543.658 189.729C547.14 192.312 550.621 194.727 554.103 196.973C557.697 199.219 561.403 201.521 565.221 203.88C568.815 206.126 572.409 208.653 576.003 211.461C579.597 214.156 582.573 217.245 584.932 220.726C587.403 224.208 588.638 228.251 588.638 232.856C588.638 238.808 587.01 244.143 583.753 248.86C580.496 253.464 576.172 257.115 570.781 259.81C565.502 262.393 559.718 263.685 553.429 263.685ZM637.83 263.179C631.091 263.179 624.914 261.495 619.299 258.125C613.683 254.756 609.191 250.207 605.821 244.48C602.564 238.752 600.936 232.463 600.936 225.612C600.936 218.648 602.508 212.359 605.653 206.744C608.91 201.128 613.29 196.692 618.793 193.435C624.296 190.066 630.53 188.381 637.493 188.381C644.231 188.381 650.352 190.066 655.855 193.435C661.471 196.804 665.907 201.297 669.164 206.912C672.533 212.528 674.218 218.761 674.218 225.612C674.218 232.463 672.589 238.752 669.332 244.48C666.076 250.207 661.695 254.756 656.192 258.125C650.801 261.495 644.681 263.179 637.83 263.179ZM639.346 256.609C643.389 256.609 646.927 255.318 649.959 252.734C652.991 250.151 655.35 246.67 657.035 242.29C658.832 237.91 659.73 233.136 659.73 227.97C659.73 221.905 658.607 216.402 656.361 211.461C654.115 206.407 651.138 202.42 647.432 199.5C643.838 196.467 639.907 194.951 635.64 194.951C631.709 194.951 628.171 196.243 625.026 198.826C621.994 201.297 619.635 204.666 617.951 208.934C616.266 213.089 615.424 217.806 615.424 223.085C615.424 229.149 616.491 234.765 618.625 239.931C620.871 244.985 623.791 249.028 627.385 252.061C631.091 255.093 635.078 256.609 639.346 256.609ZM686.179 262.505C685.73 262.056 685.505 261.102 685.505 259.641C685.505 258.294 685.73 257.62 686.179 257.62C687.077 257.62 688.313 257.451 689.885 257.115C691.458 256.778 692.918 256.328 694.265 255.767C695.613 255.205 696.343 254.7 696.455 254.251C696.905 252.678 697.185 250.881 697.298 248.86C697.522 246.838 697.635 244.704 697.635 242.458V210.618C697.635 206.351 696.848 203.318 695.276 201.521C694.153 200.174 692.805 199.275 691.233 198.826C689.773 198.377 688.425 198.152 687.19 198.152C686.067 198.04 685.505 197.871 685.505 197.647C685.505 194.951 685.842 193.547 686.516 193.435C692.468 192.536 697.298 191.75 701.004 191.076C704.71 190.29 707.012 189.785 707.911 189.56L710.606 188.886C711.056 188.774 711.336 189.223 711.449 190.234C711.561 191.245 711.561 191.975 711.449 192.424C711.224 193.997 711.056 195.344 710.943 196.467C710.831 197.59 710.775 198.489 710.775 199.163C710.775 199.612 710.887 199.837 711.112 199.837C711.224 199.837 711.392 199.724 711.617 199.5C714.2 196.804 717.682 194.277 722.062 191.919C726.554 189.448 730.822 188.213 734.865 188.213C742.727 188.213 748.23 191.02 751.375 196.636C754.519 202.251 756.092 211.348 756.092 223.927V239.257C756.092 242.514 756.204 245.378 756.429 247.849C756.653 250.32 756.99 252.454 757.439 254.251C757.664 254.7 758.45 255.205 759.798 255.767C761.146 256.328 762.606 256.778 764.178 257.115C765.75 257.451 766.873 257.62 767.547 257.62C767.884 257.62 768.109 258.294 768.221 259.641C768.333 260.989 768.277 261.944 768.053 262.505L750.027 261.663L732.338 262.505C731.889 262.056 731.664 261.102 731.664 259.641C731.664 258.294 731.889 257.62 732.338 257.62C733.237 257.62 734.416 257.451 735.876 257.115C737.336 256.778 738.684 256.328 739.919 255.767C741.155 255.205 741.828 254.7 741.941 254.251C742.39 252.678 742.671 250.881 742.783 248.86C743.008 246.838 743.12 244.704 743.12 242.458V225.612C743.12 215.167 741.772 208.035 739.077 204.217C736.381 200.398 732.001 198.489 725.937 198.489C723.578 198.489 721.22 199.163 718.861 200.51C716.503 201.746 714.537 203.206 712.965 204.891C711.392 206.575 710.606 208.148 710.606 209.608V239.257C710.606 242.514 710.719 245.378 710.943 247.849C711.168 250.32 711.505 252.454 711.954 254.251C712.179 254.7 712.965 255.205 714.313 255.767C715.66 256.328 717.12 256.778 718.693 257.115C720.265 257.451 721.388 257.62 722.062 257.62C722.399 257.62 722.623 258.294 722.736 259.641C722.848 260.989 722.792 261.944 722.567 262.505L704.542 261.663L686.179 262.505ZM801.577 263.853C798.096 263.853 794.951 263.46 792.143 262.674C789.335 261.888 785.91 261.214 781.867 260.652C781.418 259.417 780.968 257.732 780.519 255.598C780.07 253.464 779.677 251.218 779.34 248.86C779.115 246.501 779.003 244.592 779.003 243.132C779.901 242.458 780.575 242.121 781.024 242.121C782.709 242.121 783.608 242.458 783.72 243.132C784.169 245.378 785.292 247.624 787.089 249.871C788.886 252.117 791.076 254.026 793.659 255.598C796.242 257.058 798.882 257.788 801.577 257.788C805.171 257.788 808.091 256.834 810.337 254.924C812.696 252.903 813.875 250.039 813.875 246.333C813.875 242.402 812.359 239.145 809.326 236.562C806.968 234.653 804.946 233.305 803.262 232.519C801.689 231.62 800.117 230.834 798.545 230.16C797.085 229.374 795.232 228.307 792.985 226.959C784.225 221.905 779.845 215.897 779.845 208.934C779.845 204.891 780.968 201.353 783.214 198.32C785.461 195.176 788.437 192.761 792.143 191.076C795.962 189.28 800.005 188.381 804.273 188.381C805.508 188.381 806.912 188.493 808.484 188.718C810.056 188.83 811.797 188.999 813.707 189.223C815.616 189.56 817.188 189.841 818.424 190.066C819.659 190.29 820.67 190.459 821.456 190.571C822.691 195.737 823.365 201.465 823.477 207.754C823.477 208.316 822.747 208.597 821.287 208.597C819.715 208.597 818.873 208.204 818.76 207.418C818.199 204.273 816.57 201.297 813.875 198.489C811.292 195.681 808.316 194.277 804.946 194.277C796.86 194.277 792.817 197.59 792.817 204.217C792.817 205.901 792.985 207.418 793.322 208.765C793.772 210.001 794.726 211.18 796.186 212.303C799.668 214.998 803.767 217.694 808.484 220.389C813.313 223.085 817.3 225.612 820.445 227.97C825.162 231.564 827.521 235.776 827.521 240.605C827.521 244.985 826.341 248.972 823.983 252.566C821.624 256.048 818.48 258.799 814.549 260.821C810.618 262.842 806.294 263.853 801.577 263.853Z" fill="white"/>
<path d="M450.428 88.7354C453.239 107.223 456.957 113.614 467.928 116.735H432.928C444.504 113.745 448.12 107.253 450.428 88.7354Z" fill="white"/>
<path d="M450.428 144.735C453.239 126.248 456.957 119.857 467.928 116.735H432.928C444.504 119.725 448.12 126.218 450.428 144.735Z" fill="white"/>
<path d="M435.428 1.73541C437.757 16.2614 440.838 21.2827 449.928 23.7354H420.928C430.52 21.3861 433.515 16.2851 435.428 1.73541Z" fill="white"/>
<path d="M435.428 45.7354C437.757 31.2094 440.838 26.1881 449.928 23.7354H420.928C430.52 26.0847 433.515 31.1857 435.428 45.7354Z" fill="white"/>
<path d="M354.928 55.7354C356.856 65.6395 359.405 69.0631 366.928 70.7354H342.928C350.866 69.1336 353.345 65.6556 354.928 55.7354Z" fill="white"/>
<path d="M354.928 85.7354C356.856 75.8313 359.405 72.4077 366.928 70.7354H342.928C350.866 72.3372 353.345 75.8152 354.928 85.7354Z" fill="white"/>
</svg>
