<svg width="836" height="300" viewBox="0 0 836 300" fill="none" xmlns="http://www.w3.org/2000/svg">
<path fill-rule="evenodd" clip-rule="evenodd" d="M0.543736 129.12C-5.1098 181.649 33.7388 232.769 97.7213 267.865C54.3527 234.224 29.5132 190.611 33.6143 145.233C41.6572 56.2441 157.984 -6.11475 294.24 4.97902C287.959 4.02315 281.599 3.19635 275.17 2.50436C132.675 -12.832 9.72052 43.8558 0.543736 129.12Z" fill="#82C284"/>
<path d="M41.6669 146.082C49.448 59.9881 163.885 -0.0321503 297.27 12.0231C338.338 15.7349 376.413 25.8464 409.22 40.5779C441.087 56.5706 467.421 76.4128 486.092 98.4988C444.527 70.1838 387.451 49.4267 323.145 42.3537C194.029 28.1524 81.904 74.1926 62.5959 146.598C60.7457 152.515 59.5172 158.606 58.9528 164.851C54.6174 212.819 90.4636 258.9 149.138 290.613C154.676 293.606 160.417 296.471 166.347 299.197C158.166 295.838 150.283 292.197 142.729 288.301C77.3376 254.572 36.6411 201.689 41.6669 146.082Z" fill="#82C284"/>
<path d="M42.1648 146.127C46.035 103.306 76.436 66.9013 122.599 42.6895C168.757 18.4805 230.614 6.50082 297.225 12.5211C338.236 16.2277 376.254 26.3243 409.005 41.0296C439.464 56.3165 464.841 75.1165 483.285 96.0142C441.926 68.7078 385.997 48.7638 323.2 41.8567C258.573 34.7485 198.178 42.7136 151.505 61.5346C104.851 80.3486 71.8299 110.048 62.1156 146.459C60.2567 152.406 59.0221 158.529 58.4548 164.806C54.1923 211.968 88.5301 257.188 144.906 288.852C144.254 288.522 143.605 288.19 142.959 287.857C77.6494 254.17 37.1657 201.44 42.1648 146.127ZM1.04087 129.174C5.60301 86.7853 38.4587 51.415 88.0717 28.541C137.674 5.67199 203.943 -4.65869 275.116 3.00149C276.868 3.19008 278.615 3.38869 280.357 3.59721C217.494 0.740898 159.597 13.4919 115.611 37.1346C68.3992 62.5109 37.1578 100.472 33.1164 145.188C29.1505 189.068 52.1178 231.244 92.5678 264.396C31.885 229.466 -4.42036 179.915 1.04087 129.174Z" stroke="black" stroke-opacity="0.12"/>
<path d="M41.6669 146.082C49.448 59.9881 163.885 -0.0321503 297.27 12.0231C338.338 15.7349 376.413 25.8464 409.22 40.5779C441.087 56.5706 467.421 76.4128 486.092 98.4988C444.527 70.1838 387.451 49.4267 323.145 42.3537C194.029 28.1524 81.904 74.1926 62.5959 146.598C60.7457 152.515 59.5172 158.606 58.9528 164.851C54.6174 212.819 90.4636 258.9 149.138 290.613C154.676 293.606 160.417 296.471 166.347 299.197C158.166 295.838 150.283 292.197 142.729 288.301C77.3376 254.572 36.6411 201.689 41.6669 146.082Z" fill="#00A6B8"/>
<path d="M275.17 2.50436C132.675 -12.832 9.72052 43.8558 0.543736 129.12C-5.02828 180.891 32.6277 231.294 94.9692 266.337M294.24 4.97902C157.984 -6.11475 41.6572 56.2441 33.6143 145.233C29.5917 189.741 53.4117 232.552 95.2494 265.921M42.1648 146.127C46.035 103.306 76.436 66.9013 122.599 42.6895C168.757 18.4805 230.614 6.50082 297.225 12.5211C338.236 16.2277 376.254 26.3243 409.005 41.0296C439.464 56.3165 464.841 75.1165 483.285 96.0142C441.926 68.7078 385.997 48.7638 323.2 41.8567C258.573 34.7485 198.178 42.7136 151.505 61.5346C104.851 80.3486 71.8299 110.048 62.1156 146.459C60.2567 152.406 59.0221 158.529 58.4548 164.806C54.1923 211.968 88.5301 257.188 144.906 288.852C144.254 288.522 143.605 288.19 142.959 287.857C77.6494 254.17 37.1657 201.44 42.1648 146.127Z" stroke="black" stroke-opacity="0.12"/>
<path d="M186.12 262.516C185.334 262.516 184.773 262.179 184.436 261.505L149.9 174.409C147.093 166.997 144.566 161.606 142.319 158.237C141.533 157.001 139.905 156.047 137.434 155.373C134.963 154.699 132.998 154.362 131.538 154.362C131.089 154.362 130.864 153.632 130.864 152.172C130.864 150.824 131.089 149.926 131.538 149.477C134.233 149.589 137.266 149.757 140.635 149.982C144.004 150.207 147.43 150.319 150.911 150.319C152.259 150.319 154.674 150.263 158.155 150.15C161.637 149.926 166.185 149.701 171.801 149.477C172.025 149.926 172.082 150.88 171.969 152.34C171.969 153.688 171.801 154.362 171.464 154.362C169.33 154.362 167.14 154.811 164.894 155.71C162.648 156.608 161.524 158.012 161.524 159.921C161.524 163.178 168.6 182.102 182.751 216.694C184.323 220.512 185.671 223.938 186.794 226.97C188.03 229.89 189.096 232.417 189.995 234.551C190.332 235.113 190.781 235.281 191.343 235.056C192.016 234.72 192.466 234.27 192.69 233.709L217.96 172.725C220.094 167.334 221.161 163.403 221.161 160.932C221.161 159.247 220.431 157.956 218.971 157.057C217.511 156.047 215.826 155.373 213.917 155.036C212.12 154.587 210.604 154.362 209.368 154.362C208.919 154.362 208.694 153.632 208.694 152.172C208.694 150.824 208.919 149.926 209.368 149.477C214.647 149.701 218.746 149.926 221.666 150.15C224.699 150.263 226.608 150.319 227.394 150.319L244.409 149.477C244.634 150.375 244.746 151.217 244.746 152.003C244.746 153.576 244.521 154.362 244.072 154.362C239.018 154.362 235.649 155.934 233.964 159.079C232.729 161.438 231.381 164.077 229.921 166.997C228.573 169.805 227.169 172.949 225.709 176.431L192.016 256.957C190.556 260.663 188.591 262.516 186.12 262.516ZM269.173 262.011C262.996 262.011 257.325 260.382 252.158 257.125C246.992 253.868 242.837 249.544 239.692 244.154C236.66 238.65 235.143 232.53 235.143 225.791C235.143 217.929 236.603 211.135 239.523 205.407C242.444 199.679 246.431 195.299 251.484 192.266C256.538 189.122 262.21 187.549 268.499 187.549C273.666 187.549 278.214 188.56 282.145 190.582C286.076 192.491 289.108 194.962 291.242 197.994C293.264 201.139 294.724 204.34 295.622 207.597C296.633 210.741 297.138 213.886 297.138 217.031C297.138 219.277 296.801 220.681 296.128 221.242C295.454 221.692 294.162 221.916 292.253 221.916H249.8C248.901 221.916 248.452 222.197 248.452 222.759C248.452 227.476 249.407 232.024 251.316 236.404C253.225 240.672 256.033 244.21 259.739 247.017C263.445 249.825 267.994 251.229 273.385 251.229C278.102 251.229 282.033 250.555 285.177 249.207C288.434 247.747 290.793 246.456 292.253 245.333L293.432 244.49C294.106 244.49 294.443 245.22 294.443 246.681C294.443 247.467 294.106 248.477 293.432 249.713C291.186 252.858 287.873 255.721 283.493 258.305C279.113 260.775 274.339 262.011 269.173 262.011ZM249.8 214.841H282.65C283.212 214.841 283.493 214.279 283.493 213.156C283.493 210.685 282.819 207.99 281.471 205.07C280.236 202.037 278.326 199.398 275.743 197.152C273.16 194.906 269.903 193.783 265.972 193.783C262.378 193.783 259.29 195.018 256.707 197.489C254.124 199.847 252.158 202.599 250.811 205.744C249.463 208.776 248.789 211.415 248.789 213.661C248.789 214.448 249.126 214.841 249.8 214.841ZM307.583 261.505C307.134 261.056 306.909 260.102 306.909 258.641C306.909 257.294 307.134 256.62 307.583 256.62C308.482 256.62 309.717 256.451 311.289 256.115C312.862 255.778 314.322 255.328 315.669 254.767C317.017 254.205 317.747 253.7 317.859 253.251C318.309 251.678 318.589 249.881 318.702 247.86C318.926 245.838 319.039 243.704 319.039 241.458V209.618C319.039 205.351 318.253 202.318 316.68 200.521C315.557 199.174 314.209 198.275 312.637 197.826C311.177 197.377 309.829 197.152 308.594 197.152C307.471 197.04 306.909 196.871 306.909 196.647C306.909 193.951 307.246 192.547 307.92 192.435C320.162 190.526 327.237 189.29 329.147 188.729L332.01 187.886C332.46 187.774 332.74 188.223 332.853 189.234C332.965 190.245 332.965 190.975 332.853 191.424L331.842 199.847C333.864 196.815 336.615 194.007 340.097 191.424C343.691 188.729 347.228 187.381 350.71 187.381C357.224 187.381 361.604 189.01 363.85 192.266C363.85 196.197 363.233 199.061 361.997 200.858C360.762 202.655 359.246 203.554 357.449 203.554C355.427 203.554 353.574 202.599 351.889 200.69C350.205 198.78 347.902 197.826 344.982 197.826C342.736 197.826 340.602 198.612 338.581 200.184C336.559 201.644 334.931 203.554 333.695 205.912C332.572 208.158 332.01 210.517 332.01 212.988V238.257C332.01 241.514 332.123 244.378 332.347 246.849C332.572 249.32 332.909 251.454 333.358 253.251C333.583 253.7 334.369 254.205 335.717 254.767C337.064 255.328 338.524 255.778 340.097 256.115C341.781 256.451 342.961 256.62 343.635 256.62C343.971 256.62 344.196 257.294 344.308 258.641C344.421 259.989 344.365 260.944 344.14 261.505L325.946 260.663L307.583 261.505ZM389.794 262.179C384.628 262.179 380.36 260.832 376.99 258.136C373.621 255.328 371.937 251.173 371.937 245.67C371.937 238.931 376.317 233.316 385.077 228.823C388.895 226.914 392.658 225.398 396.364 224.275C400.182 223.152 404.001 221.86 407.819 220.4C408.83 220.063 409.336 219.221 409.336 217.873V205.238C409.336 201.644 408.213 198.893 405.966 196.984C403.72 194.962 401.025 193.951 397.88 193.951C394.511 193.951 391.703 195.13 389.457 197.489C387.211 199.735 386.088 202.711 386.088 206.418C386.088 210.348 383.785 212.314 379.181 212.314C375.924 212.314 373.733 211.247 372.61 209.113C372.61 206.754 373.565 204.34 375.474 201.869C377.496 199.286 380.079 196.927 383.224 194.793C386.368 192.66 389.794 190.919 393.5 189.571C397.319 188.223 401.081 187.549 404.787 187.549C410.964 187.549 415.4 189.066 418.096 192.098C420.791 195.018 422.139 199.791 422.139 206.418V245.333C422.139 247.691 422.757 249.657 423.992 251.229C425.227 252.801 426.912 253.588 429.046 253.588C430.506 253.588 432.471 252.801 434.942 251.229C435.391 251.229 435.616 251.678 435.616 252.577C435.616 254.037 435.335 255.216 434.774 256.115C430.169 260.045 426.238 262.011 422.981 262.011C420.398 262.011 417.927 260.944 415.569 258.81C413.21 256.676 411.582 254.43 410.683 252.071C410.122 252.521 409.392 253.138 408.493 253.924C407.707 254.598 407.033 255.16 406.472 255.609C404.113 257.406 401.53 258.978 398.722 260.326C396.027 261.562 393.051 262.179 389.794 262.179ZM396.195 252.577C399.34 252.577 402.316 251.678 405.124 249.881C407.932 248.084 409.336 246.175 409.336 244.154V226.802C406.416 227.925 403.608 228.936 400.912 229.834C398.329 230.733 396.252 231.463 394.679 232.024C392.658 232.81 390.692 234.214 388.783 236.236C386.986 238.257 386.088 240.56 386.088 243.143C386.088 246.512 387.098 248.927 389.12 250.387C391.254 251.847 393.612 252.577 396.195 252.577ZM464.48 261.337C457.816 261.337 452.5 259.727 448.532 256.508C444.638 253.288 442.692 248.871 442.692 243.255C442.692 238.388 444.339 234.345 447.633 231.126C450.928 227.831 455.495 224.687 461.335 221.692C459.763 219.071 458.265 216.076 456.843 212.707C455.495 209.338 454.821 206.006 454.821 202.711C454.821 199.866 455.532 197.283 456.955 194.962C458.452 192.641 460.437 190.806 462.907 189.459C465.378 188.036 468.186 187.325 471.331 187.325C476.347 187.325 480.315 188.448 483.235 190.694C486.155 192.865 487.615 195.935 487.615 199.904C487.615 204.471 486.155 208.364 483.235 211.584C480.315 214.803 476.197 218.06 470.881 221.355C473.053 225.023 475.523 228.73 478.294 232.473C481.064 236.217 484.134 239.961 487.503 243.704C488.477 242.282 489.338 240.897 490.086 239.549C490.835 238.126 491.509 236.779 492.108 235.506C493.306 233.035 493.905 231.388 493.905 230.564C493.905 229.516 493.268 228.954 491.996 228.879C490.798 228.73 489.749 228.617 488.851 228.543C488.701 228.093 488.626 227.644 488.626 227.195C488.626 226.596 488.739 226.184 488.963 225.959H497.836C500.456 225.959 502.777 225.885 504.799 225.735C506.895 225.585 508.692 225.473 510.19 225.398C510.564 225.622 510.751 226.109 510.751 226.858C510.751 227.981 510.527 228.543 510.077 228.543C509.478 228.543 508.617 228.655 507.494 228.879C506.446 229.104 505.435 229.366 504.462 229.666C503.489 229.89 502.777 230.152 502.328 230.452C502.029 230.751 501.355 231.799 500.306 233.596C499.258 235.319 497.911 237.415 496.263 239.886C494.616 242.357 492.744 244.79 490.648 247.186C493.044 249.657 494.878 251.529 496.151 252.801C497.499 253.999 498.547 254.823 499.296 255.272C500.119 255.721 500.905 255.946 501.654 255.946C502.702 255.946 503.825 255.31 505.023 254.037C506.296 252.764 507.12 251.678 507.494 250.78C508.093 250.78 508.655 251.004 509.179 251.454C509.778 251.903 510.077 252.352 510.077 252.801C509.628 253.7 508.954 254.786 508.056 256.058C507.157 257.331 505.885 258.492 504.237 259.54C502.665 260.513 500.531 261 497.836 261C495.889 261 493.83 260.326 491.659 258.978C489.562 257.556 487.915 256.208 486.717 254.935L484.92 252.914C478.556 258.529 471.742 261.337 464.48 261.337ZM468.86 217.761C472.753 215.515 475.561 213.268 477.283 211.022C479.08 208.701 479.978 205.519 479.978 201.476C479.978 198.78 479.23 196.422 477.732 194.4C476.235 192.379 474.288 191.368 471.892 191.368C469.421 191.368 467.325 192.192 465.603 193.839C463.881 195.411 463.02 197.47 463.02 200.016C463.02 204.808 464.966 210.723 468.86 217.761ZM468.298 256.508C470.619 256.508 473.09 255.946 475.711 254.823C478.406 253.7 480.615 252.202 482.337 250.331C480.914 248.833 479.23 246.886 477.283 244.49C475.411 242.095 473.539 239.624 471.668 237.078C469.871 234.532 468.298 232.249 466.95 230.227L463.918 225.735C461.822 227.232 459.875 228.692 458.078 230.115C456.356 231.463 454.971 233.035 453.923 234.832C452.874 236.629 452.35 238.912 452.35 241.683C452.35 246.624 453.885 250.331 456.955 252.801C460.025 255.272 463.806 256.508 468.298 256.508ZM553.429 262.685C550.733 262.685 547.87 262.46 544.837 262.011C541.805 261.674 539.278 261.281 537.256 260.832C533.101 260.045 530.069 259.428 528.159 258.978C526.362 258.417 524.678 258.024 523.105 257.799C521.645 250.836 520.578 245.164 519.904 240.784C519.231 236.292 518.894 233.035 518.894 231.013C518.894 230.339 519.792 230.003 521.589 230.003C523.611 230.003 525.015 230.508 525.801 231.519C529.732 247.691 539.053 255.778 553.766 255.778C559.381 255.778 564.154 254.093 568.085 250.724C572.016 247.354 573.982 242.581 573.982 236.404C573.982 234.383 573.532 231.912 572.634 228.992C571.848 226.072 569.995 223.545 567.075 221.411C564.828 219.726 562.975 218.491 561.515 217.705C560.055 216.806 558.595 216.02 557.135 215.346C555.675 214.56 553.822 213.493 551.576 212.145L544.837 208.102C541.356 205.968 537.874 203.554 534.392 200.858C530.911 198.05 527.991 194.793 525.632 191.087C523.386 187.381 522.263 183.169 522.263 178.452C522.263 172.5 523.779 167.334 526.812 162.954C529.956 158.461 533.999 154.98 538.941 152.509C543.995 150.038 549.442 148.803 555.282 148.803C557.753 148.803 560.055 148.971 562.189 149.308C564.435 149.533 566.288 149.813 567.748 150.15C571.118 150.937 573.476 151.554 574.824 152.003C576.284 152.453 578.249 152.958 580.72 153.52C582.068 159.36 582.742 167.39 582.742 177.61C582.742 178.396 582.18 178.789 581.057 178.789C578.249 178.789 576.789 178.228 576.677 177.105C576.115 173.735 574.88 170.422 572.971 167.165C571.062 163.908 568.478 161.213 565.221 159.079C561.964 156.833 558.09 155.71 553.597 155.71C548.993 155.71 545.399 156.608 542.816 158.405C540.233 160.09 538.379 162.28 537.256 164.975C536.246 167.558 535.74 170.31 535.74 173.23C535.74 176.038 536.414 178.845 537.762 181.653C539.109 184.461 541.075 186.819 543.658 188.729C547.14 191.312 550.621 193.727 554.103 195.973C557.697 198.219 561.403 200.521 565.221 202.88C568.815 205.126 572.409 207.653 576.003 210.461C579.597 213.156 582.573 216.245 584.932 219.726C587.403 223.208 588.638 227.251 588.638 231.856C588.638 237.808 587.01 243.143 583.753 247.86C580.496 252.464 576.172 256.115 570.781 258.81C565.502 261.393 559.718 262.685 553.429 262.685ZM637.83 262.179C631.091 262.179 624.914 260.495 619.299 257.125C613.683 253.756 609.191 249.207 605.821 243.48C602.564 237.752 600.936 231.463 600.936 224.612C600.936 217.648 602.508 211.359 605.653 205.744C608.91 200.128 613.29 195.692 618.793 192.435C624.296 189.066 630.53 187.381 637.493 187.381C644.231 187.381 650.352 189.066 655.855 192.435C661.471 195.804 665.907 200.297 669.164 205.912C672.533 211.528 674.218 217.761 674.218 224.612C674.218 231.463 672.589 237.752 669.332 243.48C666.076 249.207 661.695 253.756 656.192 257.125C650.801 260.495 644.681 262.179 637.83 262.179ZM639.346 255.609C643.389 255.609 646.927 254.318 649.959 251.734C652.991 249.151 655.35 245.67 657.035 241.29C658.832 236.91 659.73 232.136 659.73 226.97C659.73 220.905 658.607 215.402 656.361 210.461C654.115 205.407 651.138 201.42 647.432 198.5C643.838 195.467 639.907 193.951 635.64 193.951C631.709 193.951 628.171 195.243 625.026 197.826C621.994 200.297 619.635 203.666 617.951 207.934C616.266 212.089 615.424 216.806 615.424 222.085C615.424 228.149 616.491 233.765 618.625 238.931C620.871 243.985 623.791 248.028 627.385 251.061C631.091 254.093 635.078 255.609 639.346 255.609ZM686.179 261.505C685.73 261.056 685.505 260.102 685.505 258.641C685.505 257.294 685.73 256.62 686.179 256.62C687.077 256.62 688.313 256.451 689.885 256.115C691.458 255.778 692.918 255.328 694.265 254.767C695.613 254.205 696.343 253.7 696.455 253.251C696.905 251.678 697.185 249.881 697.298 247.86C697.522 245.838 697.635 243.704 697.635 241.458V209.618C697.635 205.351 696.848 202.318 695.276 200.521C694.153 199.174 692.805 198.275 691.233 197.826C689.773 197.377 688.425 197.152 687.19 197.152C686.067 197.04 685.505 196.871 685.505 196.647C685.505 193.951 685.842 192.547 686.516 192.435C692.468 191.536 697.298 190.75 701.004 190.076C704.71 189.29 707.012 188.785 707.911 188.56L710.606 187.886C711.056 187.774 711.336 188.223 711.449 189.234C711.561 190.245 711.561 190.975 711.449 191.424C711.224 192.997 711.056 194.344 710.943 195.467C710.831 196.59 710.775 197.489 710.775 198.163C710.775 198.612 710.887 198.837 711.112 198.837C711.224 198.837 711.392 198.724 711.617 198.5C714.2 195.804 717.682 193.277 722.062 190.919C726.554 188.448 730.822 187.213 734.865 187.213C742.727 187.213 748.23 190.02 751.375 195.636C754.519 201.251 756.092 210.348 756.092 222.927V238.257C756.092 241.514 756.204 244.378 756.429 246.849C756.653 249.32 756.99 251.454 757.439 253.251C757.664 253.7 758.45 254.205 759.798 254.767C761.146 255.328 762.606 255.778 764.178 256.115C765.75 256.451 766.873 256.62 767.547 256.62C767.884 256.62 768.109 257.294 768.221 258.641C768.333 259.989 768.277 260.944 768.053 261.505L750.027 260.663L732.338 261.505C731.889 261.056 731.664 260.102 731.664 258.641C731.664 257.294 731.889 256.62 732.338 256.62C733.237 256.62 734.416 256.451 735.876 256.115C737.336 255.778 738.684 255.328 739.919 254.767C741.155 254.205 741.828 253.7 741.941 253.251C742.39 251.678 742.671 249.881 742.783 247.86C743.008 245.838 743.12 243.704 743.12 241.458V224.612C743.12 214.167 741.772 207.035 739.077 203.217C736.381 199.398 732.001 197.489 725.937 197.489C723.578 197.489 721.22 198.163 718.861 199.51C716.503 200.746 714.537 202.206 712.965 203.891C711.392 205.575 710.606 207.148 710.606 208.608V238.257C710.606 241.514 710.719 244.378 710.943 246.849C711.168 249.32 711.505 251.454 711.954 253.251C712.179 253.7 712.965 254.205 714.313 254.767C715.66 255.328 717.12 255.778 718.693 256.115C720.265 256.451 721.388 256.62 722.062 256.62C722.399 256.62 722.623 257.294 722.736 258.641C722.848 259.989 722.792 260.944 722.567 261.505L704.542 260.663L686.179 261.505ZM801.577 262.853C798.096 262.853 794.951 262.46 792.143 261.674C789.335 260.888 785.91 260.214 781.867 259.652C781.418 258.417 780.968 256.732 780.519 254.598C780.07 252.464 779.677 250.218 779.34 247.86C779.115 245.501 779.003 243.592 779.003 242.132C779.901 241.458 780.575 241.121 781.024 241.121C782.709 241.121 783.608 241.458 783.72 242.132C784.169 244.378 785.292 246.624 787.089 248.871C788.886 251.117 791.076 253.026 793.659 254.598C796.242 256.058 798.882 256.788 801.577 256.788C805.171 256.788 808.091 255.834 810.337 253.924C812.696 251.903 813.875 249.039 813.875 245.333C813.875 241.402 812.359 238.145 809.326 235.562C806.968 233.653 804.946 232.305 803.262 231.519C801.689 230.62 800.117 229.834 798.545 229.16C797.085 228.374 795.232 227.307 792.985 225.959C784.225 220.905 779.845 214.897 779.845 207.934C779.845 203.891 780.968 200.353 783.214 197.32C785.461 194.176 788.437 191.761 792.143 190.076C795.962 188.28 800.005 187.381 804.273 187.381C805.508 187.381 806.912 187.493 808.484 187.718C810.056 187.83 811.797 187.999 813.707 188.223C815.616 188.56 817.188 188.841 818.424 189.066C819.659 189.29 820.67 189.459 821.456 189.571C822.691 194.737 823.365 200.465 823.477 206.754C823.477 207.316 822.747 207.597 821.287 207.597C819.715 207.597 818.873 207.204 818.76 206.418C818.199 203.273 816.57 200.297 813.875 197.489C811.292 194.681 808.316 193.277 804.946 193.277C796.86 193.277 792.817 196.59 792.817 203.217C792.817 204.901 792.985 206.418 793.322 207.765C793.772 209.001 794.726 210.18 796.186 211.303C799.668 213.998 803.767 216.694 808.484 219.389C813.313 222.085 817.3 224.612 820.445 226.97C825.162 230.564 827.521 234.776 827.521 239.605C827.521 243.985 826.341 247.972 823.983 251.566C821.624 255.048 818.48 257.799 814.549 259.821C810.618 261.842 806.294 262.853 801.577 262.853Z" fill="#515151"/>
<path d="M184.436 261.505L183.729 261.786L183.741 261.816L183.756 261.845L184.436 261.505ZM149.9 174.409L149.19 174.679L149.194 174.689L149.9 174.409ZM142.319 158.237L141.678 158.645L141.683 158.652L141.687 158.658L142.319 158.237ZM131.538 149.477L131.569 148.717L131.236 148.703L131 148.939L131.538 149.477ZM158.155 150.15L158.18 150.91L158.192 150.91L158.204 150.909L158.155 150.15ZM171.801 149.477L172.481 149.137L172.261 148.698L171.77 148.717L171.801 149.477ZM171.969 152.34L171.211 152.282L171.209 152.311V152.34H171.969ZM182.751 216.694L182.048 216.982L182.048 216.983L182.751 216.694ZM186.794 226.97L186.081 227.234L186.087 227.25L186.094 227.266L186.794 226.97ZM189.995 234.551L189.294 234.846L189.315 234.896L189.343 234.942L189.995 234.551ZM191.343 235.056L191.625 235.762L191.654 235.75L191.683 235.736L191.343 235.056ZM192.69 233.709L191.988 233.418L191.985 233.426L192.69 233.709ZM217.96 172.725L218.662 173.016L218.667 173.004L217.96 172.725ZM218.971 157.057L218.538 157.682L218.555 157.694L218.572 157.705L218.971 157.057ZM213.917 155.036L213.733 155.773L213.758 155.78L213.785 155.784L213.917 155.036ZM209.368 149.477L209.401 148.717L209.067 148.703L208.831 148.939L209.368 149.477ZM221.666 150.15L221.608 150.908L221.623 150.909L221.638 150.91L221.666 150.15ZM227.394 150.319V151.079H227.413L227.432 151.078L227.394 150.319ZM244.409 149.477L245.146 149.292L244.995 148.687L244.371 148.717L244.409 149.477ZM233.964 159.079L233.294 158.72L233.291 158.726L233.964 159.079ZM229.921 166.997L229.241 166.657L229.236 166.668L229.921 166.997ZM225.709 176.431L225.009 176.137L225.008 176.137L225.709 176.431ZM192.016 256.957L191.315 256.664L191.312 256.671L191.309 256.678L192.016 256.957ZM186.12 261.756C185.837 261.756 185.641 261.696 185.5 261.612C185.361 261.528 185.229 261.393 185.115 261.166L183.756 261.845C183.979 262.292 184.296 262.662 184.718 262.915C185.139 263.168 185.617 263.276 186.12 263.276V261.756ZM185.142 261.225L150.607 174.129L149.194 174.689L183.729 261.786L185.142 261.225ZM150.611 174.14C147.798 166.715 145.247 161.258 142.952 157.815L141.687 158.658C143.884 161.954 146.387 167.279 149.19 174.678L150.611 174.14ZM142.961 157.829C142.02 156.351 140.162 155.329 137.634 154.64L137.234 156.106C139.647 156.764 141.046 157.652 141.678 158.645L142.961 157.829ZM137.634 154.64C135.139 153.959 133.098 153.602 131.538 153.602V155.122C132.898 155.122 134.787 155.439 137.234 156.106L137.634 154.64ZM131.538 153.602C131.661 153.602 131.759 153.663 131.801 153.71C131.825 153.735 131.798 153.718 131.759 153.591C131.681 153.337 131.624 152.882 131.624 152.172H130.104C130.104 152.922 130.159 153.562 130.306 154.038C130.438 154.466 130.773 155.122 131.538 155.122V153.602ZM131.624 152.172C131.624 151.535 131.678 151.04 131.77 150.672C131.863 150.299 131.983 150.106 132.075 150.014L131 148.939C130.644 149.296 130.426 149.778 130.295 150.303C130.163 150.833 130.104 151.461 130.104 152.172H131.624ZM131.506 150.236C134.194 150.348 137.22 150.516 140.584 150.74L140.685 149.224C137.311 148.999 134.272 148.83 131.569 148.717L131.506 150.236ZM140.584 150.74C143.971 150.966 147.413 151.079 150.911 151.079V149.559C147.446 149.559 144.037 149.447 140.685 149.224L140.584 150.74ZM150.911 151.079C152.273 151.079 154.699 151.022 158.18 150.91L158.131 149.391C154.648 149.503 152.245 149.559 150.911 149.559V151.079ZM158.204 150.909C161.677 150.685 166.219 150.46 171.831 150.236L171.77 148.717C166.152 148.942 161.597 149.167 158.106 149.392L158.204 150.909ZM171.121 149.816C171.162 149.899 171.226 150.123 171.253 150.574C171.278 151.004 171.266 151.57 171.211 152.282L172.727 152.399C172.785 151.65 172.801 151.009 172.77 150.485C172.74 149.981 172.664 149.503 172.481 149.137L171.121 149.816ZM171.209 152.34C171.209 152.999 171.167 153.428 171.106 153.672C171.074 153.798 171.052 153.812 171.077 153.78C171.117 153.726 171.249 153.602 171.464 153.602V155.122C171.847 155.122 172.126 154.914 172.293 154.692C172.444 154.491 172.527 154.252 172.58 154.041C172.688 153.611 172.729 153.03 172.729 152.34H171.209ZM171.464 153.602C169.221 153.602 166.936 154.074 164.611 155.004L165.176 156.415C167.344 155.548 169.439 155.122 171.464 155.122V153.602ZM164.611 155.004C163.407 155.486 162.44 156.128 161.773 156.962C161.097 157.807 160.764 158.806 160.764 159.921H162.284C162.284 159.128 162.513 158.47 162.96 157.911C163.416 157.341 164.134 156.832 165.176 156.415L164.611 155.004ZM160.764 159.921C160.764 160.429 160.896 161.159 161.118 162.059C161.345 162.979 161.682 164.138 162.127 165.533C163.017 168.323 164.349 172.088 166.119 176.823C169.661 186.296 174.971 199.684 182.048 216.982L183.454 216.406C176.38 199.113 171.077 185.742 167.543 176.291C165.776 171.565 164.454 167.826 163.575 165.071C163.136 163.693 162.809 162.569 162.594 161.695C162.374 160.802 162.284 160.228 162.284 159.921H160.764ZM182.048 216.983C183.618 220.796 184.962 224.212 186.081 227.234L187.507 226.706C186.38 223.663 185.029 220.229 183.454 216.404L182.048 216.983ZM186.094 227.266C187.329 230.186 188.396 232.713 189.294 234.846L190.695 234.256C189.797 232.122 188.73 229.594 187.494 226.674L186.094 227.266ZM189.343 234.942C189.568 235.317 189.882 235.647 190.318 235.81C190.762 235.977 191.216 235.926 191.625 235.762L191.06 234.351C190.908 234.412 190.856 234.389 190.851 234.387C190.837 234.382 190.759 234.347 190.647 234.16L189.343 234.942ZM191.683 235.736C192.48 235.337 193.086 234.765 193.396 233.991L191.985 233.426C191.845 233.776 191.553 234.102 191.003 234.377L191.683 235.736ZM193.392 234L218.662 173.016L217.258 172.434L191.988 233.418L193.392 234ZM218.667 173.004C220.801 167.613 221.921 163.562 221.921 160.932H220.401C220.401 163.244 219.387 167.055 217.253 172.445L218.667 173.004ZM221.921 160.932C221.921 158.978 221.049 157.444 219.369 156.41L218.572 157.705C219.813 158.468 220.401 159.517 220.401 160.932H221.921ZM219.403 156.433C217.845 155.354 216.056 154.642 214.049 154.287L213.785 155.784C215.596 156.104 217.176 156.739 218.538 157.682L219.403 156.433ZM214.101 154.299C212.271 153.841 210.688 153.602 209.368 153.602V155.122C210.519 155.122 211.969 155.332 213.733 155.773L214.101 154.299ZM209.368 153.602C209.492 153.602 209.589 153.663 209.632 153.71C209.655 153.735 209.628 153.718 209.589 153.591C209.511 153.337 209.454 152.882 209.454 152.172H207.934C207.934 152.922 207.99 153.562 208.137 154.038C208.268 154.466 208.604 155.122 209.368 155.122V153.602ZM209.454 152.172C209.454 151.535 209.508 151.04 209.6 150.672C209.694 150.299 209.813 150.106 209.906 150.014L208.831 148.939C208.474 149.296 208.257 149.778 208.126 150.303C207.993 150.833 207.934 151.461 207.934 152.172H209.454ZM209.336 150.236C214.612 150.46 218.701 150.685 221.608 150.908L221.725 149.393C218.792 149.167 214.682 148.942 209.401 148.717L209.336 150.236ZM221.638 150.91C224.666 151.022 226.591 151.079 227.394 151.079V149.559C226.625 149.559 224.732 149.503 221.694 149.391L221.638 150.91ZM227.432 151.078L244.447 150.236L244.371 148.717L227.356 149.56L227.432 151.078ZM243.672 149.661C243.884 150.509 243.986 151.289 243.986 152.003H245.506C245.506 151.145 245.383 150.241 245.146 149.292L243.672 149.661ZM243.986 152.003C243.986 152.771 243.929 153.275 243.847 153.564C243.805 153.709 243.773 153.739 243.79 153.72C243.825 153.678 243.927 153.602 244.072 153.602V155.122C244.441 155.122 244.74 154.947 244.944 154.709C245.129 154.494 245.237 154.229 245.308 153.981C245.45 153.484 245.506 152.808 245.506 152.003H243.986ZM244.072 153.602C238.87 153.602 235.164 155.231 233.294 158.72L234.634 159.438C236.134 156.638 239.167 155.122 244.072 155.122V153.602ZM233.291 158.726C232.053 161.09 230.703 163.734 229.241 166.657L230.601 167.337C232.059 164.42 233.405 161.785 234.637 159.432L233.291 158.726ZM229.236 166.668C227.882 169.489 226.472 172.646 225.009 176.137L226.41 176.725C227.866 173.253 229.265 170.12 230.606 167.326L229.236 166.668ZM225.008 176.137L191.315 256.664L192.718 257.25L226.41 176.724L225.008 176.137ZM191.309 256.678C189.885 260.295 188.108 261.756 186.12 261.756V263.276C189.074 263.276 191.228 261.031 192.724 257.235L191.309 256.678ZM239.692 244.154L239.026 244.52L239.031 244.528L239.035 244.536L239.692 244.154ZM251.484 192.266L251.876 192.918L251.886 192.912L251.484 192.266ZM282.145 190.582L281.797 191.258L281.805 191.262L281.813 191.265L282.145 190.582ZM291.242 197.994L291.881 197.583L291.873 197.57L291.864 197.557L291.242 197.994ZM295.622 207.597L294.89 207.799L294.894 207.814L294.899 207.829L295.622 207.597ZM296.128 221.242L296.549 221.875L296.583 221.852L296.614 221.826L296.128 221.242ZM251.316 236.404L250.619 236.708L250.622 236.715L251.316 236.404ZM285.177 249.207L285.477 249.906L285.488 249.901L285.177 249.207ZM292.253 245.333L291.811 244.714L291.8 244.722L291.789 244.73L292.253 245.333ZM293.432 244.49V243.73H293.189L292.99 243.872L293.432 244.49ZM293.432 249.713L294.051 250.155L294.077 250.117L294.099 250.077L293.432 249.713ZM283.493 258.305L283.866 258.967L283.872 258.963L283.879 258.959L283.493 258.305ZM281.471 205.07L280.767 205.357L280.774 205.373L280.781 205.388L281.471 205.07ZM256.707 197.489L257.219 198.05L257.226 198.044L257.232 198.038L256.707 197.489ZM250.811 205.744L251.505 206.052L251.509 206.043L250.811 205.744ZM269.173 261.251C263.138 261.251 257.607 259.662 252.564 256.482L251.753 257.768C257.042 261.103 262.854 262.771 269.173 262.771V261.251ZM252.564 256.482C247.503 253.292 243.433 249.058 240.348 243.771L239.035 244.536C242.24 250.031 246.481 254.445 251.753 257.768L252.564 256.482ZM240.358 243.787C237.392 238.404 235.903 232.411 235.903 225.791H234.383C234.383 232.648 235.928 238.897 239.026 244.52L240.358 243.787ZM235.903 225.791C235.903 218.023 237.346 211.352 240.201 205.752L238.846 205.062C235.861 210.917 234.383 217.836 234.383 225.791H235.903ZM240.201 205.752C243.062 200.139 246.955 195.871 251.875 192.918L251.093 191.615C245.906 194.727 241.825 199.219 238.846 205.062L240.201 205.752ZM251.886 192.912C256.812 189.846 262.344 188.309 268.499 188.309V186.789C262.077 186.789 256.264 188.397 251.083 191.621L251.886 192.912ZM268.499 188.309C273.565 188.309 277.991 189.3 281.797 191.258L282.493 189.906C278.437 187.82 273.766 186.789 268.499 186.789V188.309ZM281.813 191.265C285.649 193.129 288.573 195.522 290.621 198.432L291.864 197.557C289.643 194.402 286.503 191.854 282.477 189.898L281.813 191.265ZM290.603 198.405C292.587 201.492 294.013 204.623 294.89 207.799L296.355 207.395C295.434 204.056 293.94 200.786 291.881 197.583L290.603 198.405ZM294.899 207.829C295.886 210.903 296.378 213.969 296.378 217.031H297.898C297.898 213.803 297.379 210.58 296.346 207.364L294.899 207.829ZM296.378 217.031C296.378 218.123 296.296 218.97 296.147 219.591C295.994 220.228 295.794 220.531 295.641 220.659L296.614 221.826C297.135 221.392 297.441 220.713 297.625 219.946C297.813 219.163 297.898 218.185 297.898 217.031H296.378ZM295.706 220.61C295.495 220.751 295.122 220.895 294.523 220.999C293.935 221.101 293.182 221.156 292.253 221.156V222.676C293.233 222.676 294.08 222.619 294.784 222.497C295.477 222.376 296.086 222.183 296.549 221.875L295.706 220.61ZM292.253 221.156H249.8V222.676H292.253V221.156ZM249.8 221.156C249.296 221.156 248.789 221.231 248.386 221.482C247.924 221.771 247.692 222.235 247.692 222.759H249.212C249.212 222.721 249.219 222.725 249.207 222.748C249.194 222.772 249.18 222.779 249.192 222.771C249.238 222.742 249.405 222.676 249.8 222.676V221.156ZM247.692 222.759C247.692 227.581 248.669 232.233 250.619 236.708L252.013 236.101C250.145 231.815 249.212 227.37 249.212 222.759H247.692ZM250.622 236.715C252.583 241.098 255.472 244.738 259.28 247.623L260.198 246.412C256.594 243.682 253.867 240.246 252.01 236.094L250.622 236.715ZM259.28 247.623C263.139 250.546 267.856 251.989 273.385 251.989V250.469C268.132 250.469 263.752 249.104 260.198 246.412L259.28 247.623ZM273.385 251.989C278.168 251.989 282.209 251.307 285.477 249.906L284.878 248.509C281.856 249.804 278.035 250.469 273.385 250.469V251.989ZM285.488 249.901C288.759 248.435 291.184 247.114 292.716 245.935L291.789 244.73C290.402 245.798 288.11 247.06 284.866 248.514L285.488 249.901ZM292.695 245.951L293.874 245.109L292.99 243.872L291.811 244.714L292.695 245.951ZM293.432 245.25C293.454 245.25 293.443 245.253 293.429 245.243C293.423 245.239 293.455 245.259 293.5 245.356C293.599 245.57 293.683 245.985 293.683 246.681H295.203C295.203 245.916 295.118 245.236 294.88 244.72C294.757 244.452 294.578 244.198 294.319 244.011C294.053 243.819 293.747 243.73 293.432 243.73V245.25ZM293.683 246.681C293.683 247.275 293.419 248.15 292.765 249.349L294.099 250.077C294.793 248.805 295.203 247.659 295.203 246.681H293.683ZM292.814 249.271C290.645 252.307 287.423 255.105 283.107 257.65L283.879 258.959C288.323 256.338 291.726 253.408 294.051 250.155L292.814 249.271ZM283.119 257.643C278.856 260.047 274.212 261.251 269.173 261.251V262.771C274.467 262.771 279.369 261.503 283.866 258.967L283.119 257.643ZM249.8 215.601H282.65V214.081H249.8V215.601ZM282.65 215.601C282.924 215.601 283.197 215.53 283.44 215.368C283.679 215.209 283.847 214.99 283.962 214.759C284.182 214.32 284.253 213.756 284.253 213.156H282.733C282.733 213.679 282.663 213.958 282.602 214.08C282.577 214.13 282.569 214.122 282.597 214.103C282.63 214.081 282.658 214.081 282.65 214.081V215.601ZM284.253 213.156C284.253 210.547 283.542 207.742 282.161 204.751L280.781 205.388C282.096 208.237 282.733 210.823 282.733 213.156H284.253ZM282.175 204.783C280.893 201.635 278.911 198.899 276.242 196.578L275.245 197.725C277.742 199.897 279.579 202.44 280.767 205.357L282.175 204.783ZM276.242 196.578C273.5 194.194 270.058 193.023 265.972 193.023V194.543C269.749 194.543 272.82 195.617 275.245 197.725L276.242 196.578ZM265.972 193.023C262.184 193.023 258.907 194.333 256.182 196.94L257.232 198.038C259.673 195.703 262.573 194.543 265.972 194.543V193.023ZM256.194 196.928C253.533 199.357 251.503 202.198 250.112 205.444L251.509 206.043C252.813 203 254.714 200.337 257.219 198.05L256.194 196.928ZM250.116 205.435C248.744 208.522 248.029 211.271 248.029 213.661H249.549C249.549 211.56 250.182 209.03 251.505 206.052L250.116 205.435ZM248.029 213.661C248.029 214.146 248.13 214.65 248.465 215.041C248.818 215.453 249.313 215.601 249.8 215.601V214.081C249.704 214.081 249.653 214.067 249.633 214.059C249.623 214.055 249.62 214.052 249.62 214.052C249.62 214.052 249.62 214.052 249.619 214.051C249.616 214.048 249.549 213.964 249.549 213.661H248.029ZM307.583 261.505L307.046 262.043L307.283 262.28L307.618 262.265L307.583 261.505ZM317.859 253.251L317.129 253.042L317.125 253.054L317.122 253.066L317.859 253.251ZM318.702 247.86L317.946 247.776L317.944 247.797L317.943 247.818L318.702 247.86ZM316.68 200.521L316.096 201.008L316.102 201.015L316.108 201.022L316.68 200.521ZM312.637 197.826L312.414 198.552L312.421 198.554L312.428 198.557L312.637 197.826ZM308.594 197.152L308.518 197.908L308.556 197.912H308.594V197.152ZM307.92 192.435L307.803 191.684L307.795 191.685L307.92 192.435ZM329.147 188.729L329.361 189.458L329.147 188.729ZM332.01 187.886L331.826 187.149L331.811 187.153L331.796 187.157L332.01 187.886ZM332.853 191.424L332.115 191.24L332.104 191.286L332.098 191.334L332.853 191.424ZM331.842 199.847L331.087 199.757L332.474 200.269L331.842 199.847ZM340.097 191.424L340.55 192.035L340.553 192.032L340.097 191.424ZM363.85 192.266H364.61V192.03L364.476 191.835L363.85 192.266ZM338.581 200.184L339.026 200.8L339.037 200.793L339.047 200.784L338.581 200.184ZM333.695 205.912L333.022 205.559L333.019 205.566L333.015 205.572L333.695 205.912ZM333.358 253.251L332.621 253.435L332.641 253.516L332.678 253.591L333.358 253.251ZM340.097 256.115L339.938 256.858L339.948 256.86L340.097 256.115ZM344.14 261.505L344.105 262.265L344.645 262.29L344.846 261.788L344.14 261.505ZM325.946 260.663L325.981 259.904L325.946 259.902L325.911 259.904L325.946 260.663ZM308.121 260.968C308.036 260.884 307.914 260.687 307.818 260.278C307.723 259.879 307.669 259.338 307.669 258.641H306.149C306.149 259.405 306.207 260.072 306.338 260.627C306.466 261.173 306.681 261.678 307.046 262.043L308.121 260.968ZM307.669 258.641C307.669 257.99 307.726 257.584 307.799 257.366C307.834 257.259 307.856 257.254 307.826 257.284C307.777 257.332 307.686 257.38 307.583 257.38V255.86C306.854 255.86 306.502 256.449 306.357 256.885C306.205 257.341 306.149 257.945 306.149 258.641H307.669ZM307.583 257.38C308.561 257.38 309.858 257.198 311.449 256.858L311.13 255.371C309.576 255.704 308.402 255.86 307.583 255.86V257.38ZM311.449 256.858C313.062 256.512 314.567 256.05 315.962 255.468L315.377 254.065C314.076 254.607 312.661 255.043 311.13 255.371L311.449 256.858ZM315.962 255.468C316.658 255.178 317.232 254.888 317.66 254.591C318.056 254.318 318.47 253.943 318.597 253.435L317.122 253.066C317.137 253.008 317.13 253.11 316.795 253.342C316.493 253.551 316.029 253.794 315.377 254.065L315.962 255.468ZM318.59 253.459C319.058 251.822 319.346 249.967 319.461 247.902L317.943 247.818C317.833 249.796 317.559 251.535 317.129 253.042L318.59 253.459ZM319.457 247.944C319.685 245.892 319.799 243.729 319.799 241.458H318.279C318.279 243.679 318.168 245.785 317.946 247.776L319.457 247.944ZM319.799 241.458V209.618H318.279V241.458H319.799ZM319.799 209.618C319.799 205.297 319.01 202.03 317.252 200.021L316.108 201.022C317.495 202.606 318.279 205.404 318.279 209.618H319.799ZM317.264 200.035C316.051 198.579 314.576 197.589 312.846 197.095L312.428 198.557C313.843 198.961 315.063 199.768 316.096 201.008L317.264 200.035ZM312.861 197.099C311.345 196.633 309.921 196.392 308.594 196.392V197.912C309.738 197.912 311.01 198.12 312.414 198.552L312.861 197.099ZM308.67 196.396C308.121 196.341 307.758 196.276 307.549 196.213C307.439 196.181 307.423 196.163 307.45 196.182C307.472 196.197 307.669 196.344 307.669 196.647H306.149C306.149 197.061 306.417 197.314 306.579 197.427C306.746 197.544 306.941 197.618 307.112 197.669C307.464 197.775 307.944 197.851 308.518 197.908L308.67 196.396ZM307.669 196.647C307.669 195.317 307.754 194.363 307.901 193.749C307.975 193.441 308.054 193.267 308.11 193.183C308.161 193.107 308.146 193.168 308.045 193.185L307.795 191.685C307.357 191.758 307.048 192.036 306.845 192.34C306.649 192.634 306.517 193.002 306.423 193.395C306.233 194.185 306.149 195.281 306.149 196.647H307.669ZM308.037 193.186C320.247 191.282 327.39 190.037 329.361 189.458L328.932 188C327.084 188.543 320.077 189.77 307.803 191.684L308.037 193.186ZM329.361 189.458L332.225 188.616L331.796 187.157L328.932 188L329.361 189.458ZM332.195 188.624C332.166 188.631 332.087 188.639 331.997 188.598C331.918 188.561 331.897 188.516 331.914 188.542C331.931 188.57 331.966 188.641 332.003 188.779C332.039 188.914 332.072 189.092 332.097 189.318L333.608 189.15C333.549 188.617 333.436 188.111 333.202 187.736C333.078 187.538 332.896 187.338 332.634 187.217C332.362 187.092 332.08 187.086 331.826 187.149L332.195 188.624ZM332.097 189.318C332.209 190.321 332.192 190.933 332.115 191.24L333.59 191.609C333.738 191.017 333.721 190.169 333.608 189.15L332.097 189.318ZM332.098 191.334L331.087 199.757L332.597 199.938L333.607 191.515L332.098 191.334ZM332.474 200.269C334.439 197.322 337.125 194.575 340.55 192.035L339.644 190.814C336.105 193.439 333.288 196.308 331.21 199.426L332.474 200.269ZM340.553 192.032C344.053 189.407 347.435 188.141 350.71 188.141V186.621C347.022 186.621 343.328 188.051 339.641 190.816L340.553 192.032ZM350.71 188.141C357.137 188.141 361.193 189.752 363.225 192.698L364.476 191.835C362.015 188.267 357.311 186.621 350.71 186.621V188.141ZM363.09 192.266C363.09 196.151 362.474 198.824 361.371 200.428L362.623 201.289C363.992 199.299 364.61 196.244 364.61 192.266H363.09ZM361.371 200.428C360.243 202.068 358.94 202.794 357.449 202.794V204.314C359.551 204.314 361.281 203.242 362.623 201.289L361.371 200.428ZM357.449 202.794C355.699 202.794 354.04 201.978 352.459 200.187L351.319 201.193C353.108 203.22 355.155 204.314 357.449 204.314V202.794ZM352.459 200.187C350.608 198.089 348.085 197.066 344.982 197.066V198.586C347.72 198.586 349.801 199.472 351.319 201.193L352.459 200.187ZM344.982 197.066C342.544 197.066 340.249 197.924 338.114 199.584L339.047 200.784C340.955 199.3 342.928 198.586 344.982 198.586V197.066ZM338.136 199.568C336.012 201.102 334.308 203.104 333.022 205.559L334.368 206.265C335.553 204.003 337.106 202.187 339.026 200.8L338.136 199.568ZM333.015 205.572C331.84 207.922 331.25 210.397 331.25 212.988H332.77C332.77 210.637 333.304 208.394 334.375 206.252L333.015 205.572ZM331.25 212.988V238.257H332.77V212.988H331.25ZM331.25 238.257C331.25 241.531 331.363 244.418 331.591 246.918L333.104 246.78C332.882 244.338 332.77 241.498 332.77 238.257H331.25ZM331.591 246.918C331.818 249.415 332.16 251.59 332.621 253.435L334.096 253.066C333.658 251.318 333.326 249.224 333.104 246.78L331.591 246.918ZM332.678 253.591C332.885 254.003 333.281 254.333 333.705 254.606C334.151 254.892 334.729 255.179 335.424 255.468L336.009 254.065C335.356 253.793 334.868 253.546 334.527 253.327C334.165 253.095 334.056 252.947 334.038 252.911L332.678 253.591ZM335.424 255.468C336.819 256.05 338.324 256.512 339.938 256.858L340.256 255.371C338.725 255.043 337.31 254.607 336.009 254.065L335.424 255.468ZM339.948 256.86C341.629 257.196 342.876 257.38 343.635 257.38V255.86C343.045 255.86 341.934 255.707 340.246 255.369L339.948 256.86ZM343.635 257.38C343.429 257.38 343.31 257.266 343.282 257.233C343.266 257.213 343.292 257.238 343.335 257.366C343.418 257.615 343.496 258.047 343.551 258.705L345.066 258.578C345.008 257.888 344.918 257.31 344.777 256.885C344.707 256.675 344.607 256.448 344.45 256.26C344.282 256.058 344.008 255.86 343.635 255.86V257.38ZM343.551 258.705C343.663 260.046 343.587 260.841 343.434 261.223L344.846 261.788C345.142 261.046 345.179 259.933 345.066 258.578L343.551 258.705ZM344.175 260.746L325.981 259.904L325.911 261.422L344.105 262.265L344.175 260.746ZM325.911 259.904L307.548 260.746L307.618 262.265L325.981 261.422L325.911 259.904ZM376.99 258.136L376.504 258.72L376.51 258.725L376.516 258.73L376.99 258.136ZM385.077 228.823L384.737 228.143L384.73 228.147L385.077 228.823ZM396.364 224.275L396.149 223.546L396.143 223.547L396.364 224.275ZM407.819 220.4L407.579 219.679L407.563 219.684L407.548 219.69L407.819 220.4ZM405.966 196.984L405.458 197.548L405.466 197.556L405.474 197.563L405.966 196.984ZM389.457 197.489L389.994 198.026L390.001 198.02L390.007 198.013L389.457 197.489ZM372.61 209.113H371.85V209.301L371.938 209.467L372.61 209.113ZM375.474 201.869L374.876 201.401L374.873 201.404L375.474 201.869ZM393.5 189.571L393.247 188.854L393.24 188.857L393.5 189.571ZM418.096 192.098L417.528 192.603L417.533 192.608L417.537 192.614L418.096 192.098ZM434.942 251.229V250.469H434.721L434.534 250.588L434.942 251.229ZM434.774 256.115L435.267 256.693L435.356 256.617L435.418 256.517L434.774 256.115ZM410.683 252.071L411.394 251.801L411.023 250.827L410.209 251.478L410.683 252.071ZM408.493 253.924L408.988 254.502L408.994 254.496L408.493 253.924ZM406.472 255.609L406.932 256.214L406.94 256.208L406.947 256.203L406.472 255.609ZM398.722 260.326L399.039 261.017L399.051 261.011L398.722 260.326ZM409.336 226.802H410.096V225.695L409.063 226.092L409.336 226.802ZM400.912 229.834L400.672 229.113L400.663 229.116L400.912 229.834ZM394.679 232.024L394.424 231.308L394.414 231.312L394.404 231.316L394.679 232.024ZM388.783 236.236L388.23 235.714L388.223 235.722L388.215 235.731L388.783 236.236ZM389.12 250.387L388.675 251.003L388.683 251.009L388.691 251.014L389.12 250.387ZM389.794 261.419C384.765 261.419 380.675 260.11 377.465 257.543L376.516 258.73C380.045 261.553 384.49 262.939 389.794 262.939V261.419ZM377.477 257.552C374.324 254.925 372.697 251.01 372.697 245.67H371.177C371.177 251.336 372.919 255.732 376.504 258.72L377.477 257.552ZM372.697 245.67C372.697 239.339 376.786 233.929 385.424 229.5L384.73 228.147C375.848 232.702 371.177 238.524 371.177 245.67H372.697ZM385.417 229.503C389.201 227.611 392.923 226.112 396.584 225.002L396.143 223.547C392.392 224.684 388.59 226.217 384.737 228.144L385.417 229.503ZM396.578 225.004C400.417 223.875 404.254 222.577 408.091 221.11L407.548 219.69C403.748 221.143 399.948 222.428 396.149 223.546L396.578 225.004ZM408.06 221.121C408.722 220.9 409.254 220.497 409.608 219.907C409.954 219.331 410.096 218.635 410.096 217.873H408.576C408.576 218.458 408.465 218.858 408.305 219.125C408.154 219.377 407.928 219.563 407.579 219.679L408.06 221.121ZM410.096 217.873V205.238H408.576V217.873H410.096ZM410.096 205.238C410.096 201.475 408.912 198.489 406.459 196.404L405.474 197.563C407.514 199.296 408.576 201.814 408.576 205.238H410.096ZM406.475 196.419C404.083 194.266 401.204 193.191 397.88 193.191V194.711C400.845 194.711 403.357 195.658 405.458 197.548L406.475 196.419ZM397.88 193.191C394.311 193.191 391.302 194.45 388.906 196.965L390.007 198.013C392.104 195.811 394.711 194.711 397.88 194.711V193.191ZM388.919 196.951C386.507 199.364 385.328 202.546 385.328 206.418H386.848C386.848 202.877 387.914 200.106 389.994 198.026L388.919 196.951ZM385.328 206.418C385.328 208.232 384.802 209.464 383.867 210.262C382.91 211.079 381.393 211.554 379.181 211.554V213.074C381.573 213.074 383.509 212.566 384.854 211.418C386.222 210.25 386.848 208.534 386.848 206.418H385.328ZM379.181 211.554C376.092 211.554 374.229 210.556 373.283 208.759L371.938 209.467C373.238 211.937 375.755 213.074 379.181 213.074V211.554ZM373.37 209.113C373.37 206.97 374.236 204.714 376.076 202.334L374.873 201.404C372.894 203.965 371.85 206.539 371.85 209.113H373.37ZM376.073 202.337C378.039 199.825 380.561 197.519 383.65 195.422L382.797 194.165C379.597 196.336 376.953 198.746 374.876 201.401L376.073 202.337ZM383.65 195.422C386.741 193.325 390.11 191.612 393.76 190.285L393.24 188.857C389.477 190.225 385.995 191.994 382.797 194.165L383.65 195.422ZM393.753 190.288C397.498 188.966 401.175 188.309 404.787 188.309V186.789C400.987 186.789 397.139 187.481 393.247 188.854L393.753 190.288ZM404.787 188.309C410.861 188.309 415.038 189.802 417.528 192.603L418.664 191.593C415.763 188.33 411.068 186.789 404.787 186.789V188.309ZM417.537 192.614C420.04 195.325 421.379 199.863 421.379 206.418H422.899C422.899 199.719 421.542 194.711 418.654 191.583L417.537 192.614ZM421.379 206.418V245.333H422.899V206.418H421.379ZM421.379 245.333C421.379 247.83 422.036 249.969 423.394 251.699L424.59 250.76C423.478 249.344 422.899 247.553 422.899 245.333H421.379ZM423.394 251.699C424.785 253.468 426.697 254.348 429.046 254.348V252.828C427.127 252.828 425.67 252.135 424.59 250.76L423.394 251.699ZM429.046 254.348C430.736 254.348 432.858 253.456 435.35 251.87L434.534 250.588C432.085 252.147 430.276 252.828 429.046 252.828V254.348ZM434.942 251.989C434.922 251.989 434.87 251.982 434.815 251.946C434.766 251.913 434.757 251.884 434.768 251.906C434.78 251.931 434.805 251.993 434.824 252.112C434.844 252.229 434.856 252.382 434.856 252.577H436.376C436.376 252.089 436.319 251.61 436.127 251.226C436.026 251.024 435.876 250.826 435.659 250.681C435.436 250.533 435.188 250.469 434.942 250.469V251.989ZM434.856 252.577C434.856 253.946 434.592 254.972 434.129 255.712L435.418 256.517C436.079 255.461 436.376 254.127 436.376 252.577H434.856ZM434.28 255.537C429.709 259.439 425.956 261.251 422.981 261.251V262.771C426.52 262.771 430.629 260.652 435.267 256.693L434.28 255.537ZM422.981 261.251C420.628 261.251 418.331 260.284 416.079 258.246L415.059 259.374C417.523 261.603 420.169 262.771 422.981 262.771V261.251ZM416.079 258.246C413.787 256.173 412.24 254.022 411.394 251.801L409.973 252.342C410.924 254.838 412.634 257.18 415.059 259.374L416.079 258.246ZM410.209 251.478C409.635 251.937 408.895 252.563 407.993 253.353L408.994 254.496C409.889 253.714 410.609 253.104 411.158 252.665L410.209 251.478ZM407.999 253.347C407.217 254.018 406.55 254.574 405.997 255.016L406.947 256.203C407.517 255.746 408.198 255.179 408.988 254.502L407.999 253.347ZM406.011 255.005C403.696 256.769 401.157 258.314 398.394 259.641L399.051 261.011C401.903 259.642 404.531 258.043 406.932 256.214L406.011 255.005ZM398.406 259.635C395.819 260.821 392.952 261.419 389.794 261.419V262.939C393.149 262.939 396.235 262.302 399.039 261.017L398.406 259.635ZM396.195 253.337C399.494 253.337 402.611 252.392 405.534 250.521L404.714 249.241C402.021 250.965 399.186 251.817 396.195 251.817V253.337ZM405.534 250.521C408.415 248.678 410.096 246.569 410.096 244.154H408.576C408.576 245.781 407.449 247.491 404.714 249.241L405.534 250.521ZM410.096 244.154V226.802H408.576V244.154H410.096ZM409.063 226.092C406.152 227.212 403.356 228.219 400.672 229.113L401.153 230.555C403.86 229.653 406.679 228.638 409.608 227.511L409.063 226.092ZM400.663 229.116C398.079 230.015 395.999 230.746 394.424 231.308L394.935 232.74C396.504 232.179 398.58 231.45 401.162 230.552L400.663 229.116ZM394.404 231.316C392.252 232.153 390.196 233.633 388.23 235.714L389.336 236.758C391.188 234.796 393.063 233.468 394.955 232.732L394.404 231.316ZM388.215 235.731C386.301 237.884 385.328 240.364 385.328 243.143H386.848C386.848 240.755 387.671 238.63 389.351 236.741L388.215 235.731ZM385.328 243.143C385.328 246.663 386.391 249.353 388.675 251.003L389.565 249.771C387.806 248.5 386.848 246.361 386.848 243.143H385.328ZM388.691 251.014C390.951 252.56 393.459 253.337 396.195 253.337V251.817C393.766 251.817 391.557 251.133 389.549 249.76L388.691 251.014ZM448.532 256.508L448.047 257.093L448.053 257.098L448.532 256.508ZM447.633 231.126L448.164 231.669L448.171 231.663L447.633 231.126ZM461.335 221.692L461.682 222.368L462.405 221.997L461.987 221.301L461.335 221.692ZM456.843 212.707L456.137 212.989L456.14 212.996L456.142 213.002L456.843 212.707ZM456.955 194.962L456.316 194.55L456.312 194.557L456.307 194.565L456.955 194.962ZM462.907 189.459L463.271 190.126L463.279 190.122L463.287 190.117L462.907 189.459ZM483.235 190.694L482.772 191.297L482.782 191.304L483.235 190.694ZM470.881 221.355L470.481 220.709L469.848 221.101L470.227 221.742L470.881 221.355ZM487.503 243.704L486.938 244.213L487.585 244.931L488.13 244.133L487.503 243.704ZM490.086 239.549L490.751 239.918L490.755 239.91L490.759 239.903L490.086 239.549ZM492.108 235.506L491.424 235.174L491.42 235.182L492.108 235.506ZM491.996 228.879L491.901 229.634L491.926 229.637L491.951 229.638L491.996 228.879ZM488.851 228.543L488.13 228.783L488.288 229.258L488.788 229.3L488.851 228.543ZM488.963 225.959V225.199H488.648L488.426 225.422L488.963 225.959ZM504.799 225.735L504.745 224.977L504.743 224.977L504.799 225.735ZM510.19 225.398L510.581 224.746L510.383 224.627L510.152 224.639L510.19 225.398ZM507.494 228.879L507.345 228.134L507.335 228.136L507.494 228.879ZM504.462 229.666L504.633 230.406L504.659 230.4L504.685 230.392L504.462 229.666ZM502.328 230.452L501.906 229.819L501.844 229.861L501.791 229.914L502.328 230.452ZM500.306 233.596L500.956 233.992L500.959 233.986L500.963 233.979L500.306 233.596ZM490.648 247.186L490.076 246.685L489.615 247.212L490.102 247.715L490.648 247.186ZM496.151 252.801L495.614 253.339L495.629 253.355L495.646 253.369L496.151 252.801ZM499.296 255.272L498.905 255.924L498.918 255.932L498.932 255.939L499.296 255.272ZM505.023 254.037L504.486 253.499L504.478 253.508L504.47 253.516L505.023 254.037ZM507.494 250.78V250.02H506.988L506.793 250.488L507.494 250.78ZM509.179 251.454L508.684 252.031L508.703 252.047L508.723 252.062L509.179 251.454ZM510.077 252.801L510.757 253.141L510.837 252.981V252.801H510.077ZM504.237 259.54L504.637 260.186L504.645 260.181L504.237 259.54ZM491.659 258.978L491.232 259.607L491.245 259.616L491.258 259.624L491.659 258.978ZM486.717 254.935L486.149 255.44L486.156 255.448L486.164 255.456L486.717 254.935ZM484.92 252.914L485.488 252.409L484.985 251.843L484.417 252.344L484.92 252.914ZM468.86 217.761L468.195 218.129L468.569 218.806L469.24 218.419L468.86 217.761ZM477.283 211.022L476.682 210.557L476.68 210.56L477.283 211.022ZM465.603 193.839L466.115 194.4L466.122 194.394L466.128 194.388L465.603 193.839ZM475.711 254.823L475.418 254.121L475.411 254.124L475.711 254.823ZM482.337 250.331L482.896 250.845L483.377 250.322L482.888 249.807L482.337 250.331ZM477.283 244.49L476.684 244.958L476.689 244.964L476.693 244.97L477.283 244.49ZM471.668 237.078L471.047 237.516L471.051 237.522L471.055 237.528L471.668 237.078ZM466.95 230.227L467.583 229.806L467.58 229.802L466.95 230.227ZM463.918 225.735L464.548 225.31L464.111 224.663L463.476 225.116L463.918 225.735ZM458.078 230.115L458.546 230.713L458.55 230.711L458.078 230.115ZM464.48 260.577C457.937 260.577 452.807 258.998 449.011 255.917L448.053 257.098C452.193 260.457 457.695 262.097 464.48 262.097V260.577ZM449.016 255.922C445.318 252.864 443.452 248.673 443.452 243.255H441.932C441.932 249.069 443.959 253.712 448.047 257.093L449.016 255.922ZM443.452 243.255C443.452 238.58 445.025 234.737 448.164 231.669L447.102 230.582C443.652 233.953 441.932 238.197 441.932 243.255H443.452ZM448.171 231.663C451.391 228.442 455.886 225.34 461.682 222.368L460.988 221.015C455.104 224.033 450.464 227.22 447.096 230.588L448.171 231.663ZM461.987 221.301C460.436 218.716 458.954 215.754 457.543 212.411L456.142 213.002C457.576 216.398 459.089 219.426 460.683 222.083L461.987 221.301ZM457.548 212.425C456.233 209.136 455.581 205.9 455.581 202.711H454.061C454.061 206.112 454.757 209.539 456.137 212.989L457.548 212.425ZM455.581 202.711C455.581 200 456.257 197.555 457.603 195.359L456.307 194.565C454.808 197.011 454.061 199.733 454.061 202.711H455.581ZM457.594 195.374C459.021 193.162 460.91 191.414 463.271 190.126L462.543 188.792C459.963 190.199 457.884 192.12 456.316 194.55L457.594 195.374ZM463.287 190.117C465.63 188.768 468.305 188.085 471.331 188.085V186.565C468.067 186.565 465.126 187.304 462.528 188.8L463.287 190.117ZM471.331 188.085C476.239 188.085 480.026 189.184 482.772 191.297L483.699 190.092C480.605 187.712 476.455 186.565 471.331 186.565V188.085ZM482.782 191.304C485.49 193.318 486.855 196.15 486.855 199.904H488.375C488.375 195.72 486.821 192.413 483.689 190.084L482.782 191.304ZM486.855 199.904C486.855 204.293 485.459 208.001 482.672 211.073L483.798 212.094C486.852 208.727 488.375 204.649 488.375 199.904H486.855ZM482.672 211.073C479.816 214.223 475.761 217.437 470.481 220.709L471.282 222.001C476.634 218.684 480.815 215.384 483.798 212.094L482.672 211.073ZM470.227 221.742C472.413 225.435 474.898 229.163 477.683 232.925L478.905 232.021C476.148 228.297 473.692 224.612 471.535 220.968L470.227 221.742ZM477.683 232.925C480.469 236.69 483.554 240.452 486.938 244.213L488.068 243.196C484.714 239.469 481.659 235.744 478.905 232.021L477.683 232.925ZM488.13 244.133C489.116 242.694 489.989 241.288 490.751 239.918L489.422 239.18C488.686 240.505 487.838 241.87 486.876 243.275L488.13 244.133ZM490.759 239.903C491.512 238.472 492.191 237.114 492.796 235.829L491.42 235.182C490.827 236.443 490.158 237.781 489.414 239.195L490.759 239.903ZM492.792 235.837C493.396 234.59 493.858 233.535 494.17 232.677C494.473 231.842 494.665 231.118 494.665 230.564H493.145C493.145 230.834 493.037 231.345 492.741 232.157C492.454 232.947 492.017 233.951 491.424 235.174L492.792 235.837ZM494.665 230.564C494.665 229.877 494.449 229.245 493.93 228.787C493.435 228.35 492.765 228.163 492.04 228.121L491.951 229.638C492.499 229.67 492.784 229.802 492.925 229.927C493.042 230.03 493.145 230.203 493.145 230.564H494.665ZM492.09 228.125C490.885 227.975 489.826 227.861 488.914 227.785L488.788 229.3C489.673 229.374 490.71 229.485 491.901 229.634L492.09 228.125ZM489.572 228.302C489.447 227.926 489.386 227.558 489.386 227.195H487.866C487.866 227.73 487.956 228.26 488.13 228.783L489.572 228.302ZM489.386 227.195C489.386 226.938 489.411 226.757 489.444 226.637C489.477 226.516 489.509 226.489 489.501 226.497L488.426 225.422C487.976 225.872 487.866 226.554 487.866 227.195H489.386ZM488.963 226.719H497.836V225.199H488.963V226.719ZM497.836 226.719C500.47 226.719 502.81 226.644 504.855 226.493L504.743 224.977C502.744 225.125 500.443 225.199 497.836 225.199V226.719ZM504.853 226.493C506.946 226.343 508.737 226.231 510.228 226.157L510.152 224.639C508.647 224.714 506.845 224.827 504.745 224.977L504.853 226.493ZM509.799 226.05C509.816 226.06 509.991 226.182 509.991 226.858H511.511C511.511 226.036 511.312 225.185 510.581 224.746L509.799 226.05ZM509.991 226.858C509.991 227.391 509.935 227.695 509.877 227.839C509.851 227.905 509.843 227.889 509.886 227.853C509.942 227.807 510.017 227.783 510.077 227.783V229.303C510.363 229.303 510.634 229.208 510.859 229.021C511.07 228.845 511.202 228.619 511.288 228.404C511.455 227.986 511.511 227.448 511.511 226.858H509.991ZM510.077 227.783C509.402 227.783 508.482 227.907 507.345 228.134L507.643 229.625C508.753 229.403 509.555 229.303 510.077 229.303V227.783ZM507.335 228.136C506.266 228.365 505.234 228.633 504.238 228.939L504.685 230.392C505.637 230.099 506.626 229.843 507.654 229.623L507.335 228.136ZM504.291 228.925C503.291 229.156 502.472 229.443 501.906 229.819L502.75 231.084C503.083 230.862 503.686 230.625 504.633 230.406L504.291 228.925ZM501.791 229.914C501.574 230.131 501.289 230.538 500.959 231.052C500.613 231.589 500.177 232.311 499.65 233.214L500.963 233.979C501.485 233.085 501.909 232.384 502.237 231.874C502.581 231.339 502.783 231.072 502.865 230.989L501.791 229.914ZM499.657 233.201C498.616 234.911 497.275 236.998 495.631 239.464L496.896 240.307C498.546 237.832 499.9 235.726 500.956 233.992L499.657 233.201ZM495.631 239.464C494.003 241.906 492.152 244.313 490.076 246.685L491.22 247.686C493.337 245.267 495.229 242.808 496.896 240.307L495.631 239.464ZM490.102 247.715C492.499 250.187 494.337 252.062 495.614 253.339L496.688 252.264C495.42 250.995 493.589 249.127 491.193 246.657L490.102 247.715ZM495.646 253.369C497 254.573 498.092 255.436 498.905 255.924L499.687 254.621C499.002 254.21 497.997 253.426 496.656 252.233L495.646 253.369ZM498.932 255.939C499.839 256.434 500.75 256.706 501.654 256.706V255.186C501.061 255.186 500.399 255.008 499.66 254.605L498.932 255.939ZM501.654 256.706C503.016 256.706 504.327 255.886 505.577 254.558L504.47 253.516C503.324 254.733 502.389 255.186 501.654 255.186V256.706ZM505.561 254.574C506.855 253.281 507.763 252.11 508.196 251.072L506.793 250.488C506.476 251.247 505.738 252.247 504.486 253.499L505.561 254.574ZM507.494 251.54C507.885 251.54 508.276 251.68 508.684 252.031L509.674 250.877C509.034 250.328 508.302 250.02 507.494 250.02V251.54ZM508.723 252.062C509.257 252.462 509.317 252.714 509.317 252.801H510.837C510.837 251.99 510.299 251.344 509.635 250.846L508.723 252.062ZM509.398 252.462C508.972 253.313 508.322 254.363 507.435 255.62L508.677 256.497C509.587 255.208 510.284 254.087 510.757 253.141L509.398 252.462ZM507.435 255.62C506.606 256.794 505.413 257.891 503.829 258.899L504.645 260.181C506.356 259.093 507.709 257.868 508.677 256.497L507.435 255.62ZM503.837 258.894C502.428 259.766 500.451 260.24 497.836 260.24V261.76C500.611 261.76 502.902 261.261 504.637 260.186L503.837 258.894ZM497.836 260.24C496.068 260.24 494.147 259.629 492.059 258.333L491.258 259.624C493.513 261.024 495.709 261.76 497.836 261.76V260.24ZM492.085 258.35C490.016 256.946 488.417 255.633 487.27 254.414L486.164 255.456C487.413 256.783 489.108 258.166 491.232 259.607L492.085 258.35ZM487.285 254.43L485.488 252.409L484.352 253.419L486.149 255.44L487.285 254.43ZM484.417 252.344C478.167 257.859 471.527 260.577 464.48 260.577V262.097C471.958 262.097 478.945 259.2 485.423 253.484L484.417 252.344ZM469.24 218.419C473.174 216.149 476.078 213.843 477.886 211.485L476.68 210.56C475.044 212.694 472.332 214.88 468.48 217.102L469.24 218.419ZM477.884 211.487C479.817 208.991 480.738 205.625 480.738 201.476H479.218C479.218 205.413 478.343 208.411 476.682 210.557L477.884 211.487ZM480.738 201.476C480.738 198.63 479.944 196.11 478.343 193.948L477.122 194.853C478.515 196.734 479.218 198.931 479.218 201.476H480.738ZM478.343 193.948C476.711 191.744 474.543 190.608 471.892 190.608V192.128C474.033 192.128 475.759 193.013 477.122 194.853L478.343 193.948ZM471.892 190.608C469.234 190.608 466.947 191.502 465.077 193.29L466.128 194.388C467.703 192.882 469.609 192.128 471.892 192.128V190.608ZM465.09 193.278C463.195 195.008 462.26 197.278 462.26 200.016H463.78C463.78 197.662 464.566 195.814 466.115 194.4L465.09 193.278ZM462.26 200.016C462.26 204.996 464.276 211.045 468.195 218.129L469.525 217.393C465.656 210.4 463.78 204.619 463.78 200.016H462.26ZM468.298 257.268C470.743 257.268 473.316 256.676 476.01 255.522L475.411 254.124C472.864 255.216 470.496 255.748 468.298 255.748V257.268ZM476.003 255.525C478.785 254.365 481.089 252.809 482.896 250.845L481.778 249.816C480.14 251.596 478.027 253.034 475.418 254.121L476.003 255.525ZM482.888 249.807C481.484 248.329 479.813 246.399 477.873 244.011L476.693 244.97C478.647 247.374 480.345 249.337 481.786 250.854L482.888 249.807ZM477.882 244.023C476.015 241.633 474.147 239.168 472.28 236.628L471.055 237.528C472.931 240.08 474.808 242.556 476.684 244.958L477.882 244.023ZM472.288 236.64C470.494 234.098 468.926 231.82 467.583 229.806L466.318 230.649C467.67 232.677 469.247 234.967 471.047 237.516L472.288 236.64ZM467.58 229.802L464.548 225.31L463.288 226.16L466.321 230.652L467.58 229.802ZM463.476 225.116C461.371 226.62 459.414 228.088 457.606 229.519L458.55 230.711C460.336 229.297 462.272 227.844 464.36 226.353L463.476 225.116ZM457.61 229.516C455.816 230.92 454.365 232.565 453.266 234.449L454.579 235.215C455.576 233.505 456.896 232.005 458.546 230.713L457.61 229.516ZM453.266 234.449C452.131 236.394 451.59 238.821 451.59 241.683H453.11C453.11 239.004 453.618 236.863 454.579 235.215L453.266 234.449ZM451.59 241.683C451.59 246.791 453.185 250.743 456.478 253.393L457.431 252.209C454.585 249.919 453.11 246.458 453.11 241.683H451.59ZM456.478 253.393C459.702 255.988 463.658 257.268 468.298 257.268V255.748C463.954 255.748 460.348 254.556 457.431 252.209L456.478 253.393ZM544.837 262.011L544.949 261.259L544.935 261.257L544.921 261.255L544.837 262.011ZM537.256 260.832L537.421 260.09L537.409 260.087L537.398 260.085L537.256 260.832ZM528.159 258.978L527.933 259.704L527.959 259.712L527.985 259.718L528.159 258.978ZM523.105 257.799L522.361 257.955L522.471 258.476L522.998 258.552L523.105 257.799ZM519.904 240.784L519.153 240.897L519.153 240.9L519.904 240.784ZM525.801 231.519L526.539 231.339L526.501 231.181L526.401 231.052L525.801 231.519ZM572.634 228.992L571.9 229.189L571.904 229.202L571.907 229.215L572.634 228.992ZM567.075 221.411L566.619 222.019L566.626 222.024L567.075 221.411ZM561.515 217.705L561.117 218.352L561.136 218.363L561.155 218.374L561.515 217.705ZM557.135 215.346L556.775 216.015L556.795 216.026L556.817 216.036L557.135 215.346ZM551.576 212.145L551.185 212.797L551.576 212.145ZM544.837 208.102L544.44 208.75L544.446 208.754L544.837 208.102ZM534.392 200.858L533.915 201.45L533.921 201.455L533.927 201.459L534.392 200.858ZM525.632 191.087L524.982 191.481L524.987 191.488L524.991 191.495L525.632 191.087ZM526.812 162.954L526.189 162.518L526.187 162.521L526.812 162.954ZM538.941 152.509L538.607 151.826L538.601 151.829L538.941 152.509ZM562.189 149.308L562.071 150.059L562.092 150.062L562.113 150.064L562.189 149.308ZM567.748 150.15L567.921 149.41L567.919 149.41L567.748 150.15ZM574.824 152.003L574.584 152.724L574.592 152.727L574.6 152.73L574.824 152.003ZM580.72 153.52L581.461 153.349L581.354 152.884L580.889 152.779L580.72 153.52ZM576.677 177.105L577.433 177.029L577.431 177.004L577.427 176.98L576.677 177.105ZM565.221 159.079L564.79 159.705L564.797 159.71L564.805 159.715L565.221 159.079ZM542.816 158.405L543.231 159.042L543.24 159.036L543.25 159.029L542.816 158.405ZM537.256 164.975L536.555 164.683L536.552 164.691L536.549 164.698L537.256 164.975ZM543.658 188.729L544.111 188.118L544.11 188.118L543.658 188.729ZM554.103 195.973L553.691 196.611L553.7 196.617L554.103 195.973ZM565.221 202.88L565.624 202.235L565.621 202.233L565.221 202.88ZM576.003 210.461L575.535 211.06L575.541 211.064L575.547 211.069L576.003 210.461ZM584.932 219.726L584.303 220.152L584.307 220.159L584.312 220.166L584.932 219.726ZM583.753 247.86L584.373 248.299L584.378 248.292L583.753 247.86ZM570.781 258.81L571.115 259.493L571.121 259.49L570.781 258.81ZM553.429 261.925C550.775 261.925 547.949 261.703 544.949 261.259L544.726 262.763C547.79 263.217 550.692 263.445 553.429 263.445V261.925ZM544.921 261.255C541.905 260.92 539.407 260.531 537.421 260.09L537.091 261.573C539.149 262.031 541.705 262.427 544.753 262.766L544.921 261.255ZM537.398 260.085C533.244 259.299 530.225 258.684 528.333 258.239L527.985 259.718C529.912 260.172 532.958 260.792 537.115 261.578L537.398 260.085ZM528.386 258.253C526.557 257.681 524.832 257.278 523.213 257.047L522.998 258.552C524.523 258.769 526.168 259.152 527.933 259.704L528.386 258.253ZM523.849 257.643C522.39 250.686 521.327 245.03 520.656 240.669L519.153 240.9C519.83 245.299 520.9 250.985 522.361 257.955L523.849 257.643ZM520.656 240.672C519.983 236.182 519.654 232.974 519.654 231.013H518.134C518.134 233.096 518.479 236.402 519.153 240.897L520.656 240.672ZM519.654 231.013C519.654 231.015 519.653 231.029 519.646 231.047C519.643 231.055 519.639 231.063 519.636 231.068C519.632 231.074 519.63 231.076 519.63 231.076C519.633 231.073 519.68 231.025 519.834 230.967C520.153 230.847 520.717 230.763 521.589 230.763V229.243C520.665 229.243 519.88 229.326 519.301 229.544C519.006 229.654 518.716 229.817 518.494 230.066C518.259 230.331 518.134 230.658 518.134 231.013H519.654ZM521.589 230.763C523.513 230.763 524.626 231.246 525.201 231.985L526.401 231.052C525.403 229.77 523.708 229.243 521.589 229.243V230.763ZM525.062 231.698C527.052 239.885 530.427 246.11 535.242 250.287C540.067 254.472 546.264 256.538 553.766 256.538V255.018C546.556 255.018 540.735 253.04 536.238 249.139C531.732 245.23 528.48 239.325 526.539 231.339L525.062 231.698ZM553.766 256.538C559.546 256.538 564.499 254.798 568.58 251.301L567.591 250.147C563.81 253.388 559.216 255.018 553.766 255.018V256.538ZM568.58 251.301C572.712 247.759 574.742 242.756 574.742 236.404H573.222C573.222 242.406 571.32 246.95 567.591 250.147L568.58 251.301ZM574.742 236.404C574.742 234.279 574.271 231.728 573.36 228.768L571.907 229.215C572.794 232.096 573.222 234.487 573.222 236.404H574.742ZM573.368 228.794C572.528 225.676 570.554 223.012 567.523 220.797L566.626 222.024C569.435 224.077 571.167 226.468 571.9 229.189L573.368 228.794ZM567.531 220.803C565.272 219.109 563.384 217.848 561.876 217.035L561.155 218.374C562.567 219.134 564.385 220.344 566.619 222.019L567.531 220.803ZM561.914 217.057C560.429 216.144 558.943 215.343 557.454 214.656L556.817 216.036C558.248 216.697 559.681 217.468 561.117 218.352L561.914 217.057ZM557.495 214.677C556.05 213.899 554.208 212.838 551.967 211.494L551.185 212.797C553.436 214.148 555.3 215.221 556.775 216.015L557.495 214.677ZM551.967 211.494L545.228 207.45L544.446 208.754L551.185 212.797L551.967 211.494ZM545.234 207.454C541.778 205.336 538.319 202.937 534.858 200.257L533.927 201.459C537.429 204.17 540.933 206.601 544.44 208.75L545.234 207.454ZM534.87 200.267C531.451 197.51 528.587 194.314 526.273 190.679L524.991 191.495C527.395 195.272 530.371 198.591 533.915 201.45L534.87 200.267ZM526.282 190.693C524.114 187.116 523.023 183.043 523.023 178.452H521.503C521.503 183.296 522.658 187.646 524.982 191.481L526.282 190.693ZM523.023 178.452C523.023 172.636 524.502 167.625 527.436 163.386L526.187 162.521C523.056 167.043 521.503 172.364 521.503 178.452H523.023ZM527.434 163.39C530.506 159.001 534.451 155.603 539.281 153.189L538.601 151.829C533.547 154.356 529.407 157.921 526.189 162.518L527.434 163.39ZM539.275 153.192C544.221 150.774 549.553 149.563 555.282 149.563V148.043C549.331 148.043 543.769 149.303 538.607 151.826L539.275 153.192ZM555.282 149.563C557.719 149.563 559.981 149.729 562.071 150.059L562.308 148.557C560.129 148.213 557.787 148.043 555.282 148.043V149.563ZM562.113 150.064C564.342 150.287 566.16 150.564 567.578 150.891L567.919 149.41C566.416 149.063 564.529 148.778 562.265 148.552L562.113 150.064ZM567.576 150.891C570.945 151.677 573.273 152.288 574.584 152.724L575.064 151.282C573.68 150.821 571.29 150.196 567.921 149.41L567.576 150.891ZM574.6 152.73C576.086 153.187 578.073 153.697 580.552 154.261L580.889 152.779C578.426 152.219 576.481 151.718 575.047 151.277L574.6 152.73ZM579.98 153.691C581.308 159.449 581.982 167.413 581.982 177.61H583.502C583.502 167.367 582.827 159.271 581.461 153.349L579.98 153.691ZM581.982 177.61C581.982 177.716 581.963 177.773 581.95 177.799C581.939 177.822 581.923 177.845 581.885 177.872C581.79 177.938 581.553 178.029 581.057 178.029V179.549C581.684 179.549 582.29 179.444 582.756 179.117C583.273 178.756 583.502 178.209 583.502 177.61H581.982ZM581.057 178.029C579.684 178.029 578.729 177.889 578.129 177.659C577.548 177.435 577.45 177.197 577.433 177.029L575.921 177.18C576.016 178.135 576.705 178.739 577.583 179.078C578.444 179.409 579.622 179.549 581.057 179.549V178.029ZM577.427 176.98C576.848 173.51 575.578 170.11 573.626 166.781L572.315 167.55C574.182 170.735 575.383 173.961 575.927 177.23L577.427 176.98ZM573.626 166.781C571.656 163.42 568.99 160.639 565.638 158.443L564.805 159.715C567.967 161.786 570.467 164.397 572.315 167.55L573.626 166.781ZM565.653 158.453C562.252 156.108 558.222 154.95 553.597 154.95V156.47C557.957 156.47 561.677 157.557 564.79 159.705L565.653 158.453ZM553.597 154.95C548.906 154.95 545.139 155.863 542.382 157.781L543.25 159.029C545.659 157.353 549.079 156.47 553.597 156.47V154.95ZM542.4 157.769C539.697 159.532 537.74 161.838 536.555 164.683L537.958 165.268C539.019 162.721 540.768 160.648 543.231 159.042L542.4 157.769ZM536.549 164.698C535.501 167.374 534.98 170.22 534.98 173.23H536.5C536.5 170.4 536.99 167.742 537.964 165.252L536.549 164.698ZM534.98 173.23C534.98 176.164 535.685 179.083 537.077 181.982L538.447 181.324C537.143 178.608 536.5 175.912 536.5 173.23H534.98ZM537.077 181.982C538.48 184.905 540.527 187.359 543.206 189.34L544.11 188.118C541.623 186.28 539.739 184.017 538.447 181.324L537.077 181.982ZM543.205 189.339C546.699 191.932 550.195 194.356 553.691 196.611L554.515 195.334C551.048 193.097 547.58 190.692 544.111 188.118L543.205 189.339ZM553.7 196.617C557.295 198.864 561.002 201.167 564.822 203.526L565.621 202.233C561.803 199.875 558.098 197.574 554.506 195.328L553.7 196.617ZM564.819 203.524C568.388 205.755 571.961 208.267 575.535 211.06L576.471 209.862C572.858 207.039 569.242 204.497 565.624 202.235L564.819 203.524ZM575.547 211.069C579.078 213.717 581.994 216.745 584.303 220.152L585.561 219.3C583.152 215.744 580.116 212.595 576.459 209.853L575.547 211.069ZM584.312 220.166C586.684 223.509 587.878 227.396 587.878 231.856H589.398C589.398 227.106 588.121 222.907 585.552 219.286L584.312 220.166ZM587.878 231.856C587.878 237.66 586.293 242.843 583.127 247.428L584.378 248.292C587.726 243.443 589.398 237.956 589.398 231.856H587.878ZM583.132 247.421C579.952 251.916 575.728 255.487 570.441 258.13L571.121 259.49C576.616 256.742 581.039 253.012 584.373 248.299L583.132 247.421ZM570.447 258.127C565.279 260.656 559.611 261.925 553.429 261.925V263.445C559.826 263.445 565.725 262.13 571.115 259.493L570.447 258.127ZM605.821 243.48L605.161 243.855L605.166 243.865L605.821 243.48ZM605.653 205.744L604.995 205.362L604.99 205.372L605.653 205.744ZM618.793 192.435L619.18 193.089L619.19 193.083L618.793 192.435ZM655.855 192.435L655.458 193.083L655.464 193.087L655.855 192.435ZM669.164 205.912L668.507 206.293L668.512 206.303L669.164 205.912ZM656.192 257.125L655.795 256.477L655.789 256.481L656.192 257.125ZM649.959 251.734L649.466 251.156L649.959 251.734ZM657.035 241.29L656.331 241.001L656.328 241.009L656.325 241.017L657.035 241.29ZM656.361 210.461L655.666 210.769L655.669 210.775L656.361 210.461ZM647.432 198.5L646.942 199.081L646.952 199.089L646.962 199.097L647.432 198.5ZM625.026 197.826L625.506 198.415L625.509 198.413L625.026 197.826ZM617.951 207.934L618.655 208.219L618.658 208.213L617.951 207.934ZM618.625 238.931L617.922 239.221L617.926 239.231L617.93 239.24L618.625 238.931ZM627.385 251.061L626.895 251.642L626.904 251.649L627.385 251.061ZM637.83 261.419C631.225 261.419 625.183 259.77 619.69 256.474L618.908 257.777C624.645 261.219 630.957 262.939 637.83 262.939V261.419ZM619.69 256.474C614.185 253.171 609.782 248.714 606.476 243.094L605.166 243.865C608.599 249.701 613.181 254.341 618.908 257.777L619.69 256.474ZM606.482 243.104C603.293 237.495 601.696 231.336 601.696 224.612H600.176C600.176 231.589 601.836 238.008 605.161 243.855L606.482 243.104ZM601.696 224.612C601.696 217.768 603.24 211.608 606.316 206.115L604.99 205.372C601.776 211.11 600.176 217.529 600.176 224.612H601.696ZM606.31 206.125C609.503 200.62 613.791 196.279 619.18 193.089L618.406 191.781C612.789 195.105 608.317 199.636 604.995 205.362L606.31 206.125ZM619.19 193.083C624.564 189.793 630.658 188.141 637.493 188.141V186.621C630.401 186.621 624.028 188.339 618.396 191.787L619.19 193.083ZM637.493 188.141C644.098 188.141 650.08 189.79 655.458 193.083L656.252 191.787C650.624 188.341 644.365 186.621 637.493 186.621V188.141ZM655.464 193.087C660.971 196.39 665.315 200.79 668.507 206.293L669.821 205.531C666.499 199.803 661.971 195.218 656.246 191.783L655.464 193.087ZM668.512 206.303C671.807 211.795 673.458 217.892 673.458 224.612H674.978C674.978 217.63 673.259 211.26 669.816 205.521L668.512 206.303ZM673.458 224.612C673.458 231.336 671.861 237.495 668.672 243.104L669.993 243.855C673.318 238.008 674.978 231.589 674.978 224.612H673.458ZM668.672 243.104C665.477 248.723 661.187 253.176 655.795 256.477L656.589 257.773C662.204 254.336 666.674 249.692 669.993 243.855L668.672 243.104ZM655.789 256.481C650.529 259.769 644.55 261.419 637.83 261.419V262.939C644.811 262.939 651.074 261.22 656.595 257.77L655.789 256.481ZM639.346 256.369C643.567 256.369 647.28 255.015 650.452 252.313L649.466 251.156C646.574 253.62 643.211 254.849 639.346 254.849V256.369ZM650.452 252.313C653.597 249.634 656.022 246.04 657.744 241.562L656.325 241.017C654.678 245.3 652.386 248.669 649.466 251.156L650.452 252.313ZM657.738 241.578C659.576 237.098 660.49 232.226 660.49 226.97H658.97C658.97 232.047 658.088 236.721 656.331 241.001L657.738 241.578ZM660.49 226.97C660.49 220.81 659.349 215.198 657.053 210.146L655.669 210.775C657.865 215.607 658.97 221.001 658.97 226.97H660.49ZM657.055 210.152C654.767 205.005 651.721 200.911 647.902 197.903L646.962 199.097C650.555 201.928 653.462 205.809 655.666 210.769L657.055 210.152ZM647.922 197.919C644.206 194.783 640.105 193.191 635.64 193.191V194.711C639.709 194.711 643.47 196.151 646.942 199.081L647.922 197.919ZM635.64 193.191C631.526 193.191 627.819 194.548 624.544 197.239L625.509 198.413C628.523 195.937 631.891 194.711 635.64 194.711V193.191ZM624.546 197.237C621.397 199.803 618.968 203.287 617.244 207.655L618.658 208.213C620.303 204.045 622.591 200.79 625.506 198.415L624.546 197.237ZM617.247 207.648C615.519 211.909 614.664 216.725 614.664 222.085H616.184C616.184 216.887 617.013 212.269 618.655 208.219L617.247 207.648ZM614.664 222.085C614.664 228.24 615.747 233.955 617.922 239.221L619.327 238.641C617.234 233.574 616.184 228.058 616.184 222.085H614.664ZM617.93 239.24C620.215 244.38 623.199 248.523 626.895 251.641L627.875 250.48C624.383 247.533 621.527 243.59 619.319 238.622L617.93 239.24ZM626.904 251.649C630.728 254.778 634.881 256.369 639.346 256.369V254.849C635.275 254.849 631.454 253.408 627.866 250.472L626.904 251.649ZM686.179 261.505L685.642 262.043L685.879 262.28L686.214 262.265L686.179 261.505ZM696.455 253.251L695.725 253.042L695.721 253.054L695.718 253.066L696.455 253.251ZM697.298 247.86L696.542 247.776L696.54 247.797L696.539 247.818L697.298 247.86ZM695.276 200.521L694.692 201.008L694.698 201.015L694.704 201.022L695.276 200.521ZM691.233 197.826L691.009 198.552L691.017 198.554L691.024 198.557L691.233 197.826ZM687.19 197.152L687.114 197.908L687.152 197.912H687.19V197.152ZM686.516 192.435L686.402 191.683L686.391 191.685L686.516 192.435ZM701.004 190.076L701.14 190.824L701.151 190.822L701.162 190.82L701.004 190.076ZM707.911 188.56L708.095 189.298L707.911 188.56ZM710.606 187.886L710.791 188.624L710.606 187.886ZM711.449 191.424L710.711 191.24L710.702 191.278L710.696 191.317L711.449 191.424ZM711.617 198.5L712.154 199.037L712.16 199.031L712.166 199.026L711.617 198.5ZM722.062 190.919L722.422 191.588L722.428 191.585L722.062 190.919ZM757.439 253.251L756.702 253.435L756.722 253.516L756.76 253.591L757.439 253.251ZM768.053 261.505L768.017 262.265L768.557 262.29L768.758 261.788L768.053 261.505ZM750.027 260.663L750.062 259.904L750.027 259.902L749.991 259.904L750.027 260.663ZM732.338 261.505L731.801 262.043L732.039 262.281L732.374 262.265L732.338 261.505ZM741.941 253.251L741.21 253.042L741.206 253.054L741.203 253.066L741.941 253.251ZM742.783 247.86L742.028 247.776L742.025 247.797L742.024 247.818L742.783 247.86ZM718.861 199.51L719.214 200.184L719.226 200.177L719.238 200.17L718.861 199.51ZM711.954 253.251L711.217 253.435L711.237 253.516L711.274 253.591L711.954 253.251ZM722.567 261.505L722.532 262.265L723.072 262.29L723.273 261.788L722.567 261.505ZM704.542 260.663L704.577 259.904L704.542 259.902L704.507 259.904L704.542 260.663ZM686.716 260.968C686.632 260.884 686.51 260.687 686.413 260.278C686.319 259.879 686.265 259.338 686.265 258.641H684.745C684.745 259.405 684.803 260.072 684.934 260.627C685.062 261.173 685.277 261.678 685.642 262.043L686.716 260.968ZM686.265 258.641C686.265 257.99 686.322 257.584 686.395 257.366C686.43 257.259 686.452 257.254 686.422 257.284C686.373 257.332 686.281 257.38 686.179 257.38V255.86C685.45 255.86 685.098 256.449 684.953 256.885C684.801 257.341 684.745 257.945 684.745 258.641H686.265ZM686.179 257.38C687.157 257.38 688.454 257.198 690.044 256.858L689.726 255.371C688.172 255.704 686.998 255.86 686.179 255.86V257.38ZM690.044 256.858C691.658 256.512 693.163 256.05 694.558 255.468L693.973 254.065C692.672 254.607 691.257 255.043 689.726 255.371L690.044 256.858ZM694.558 255.468C695.254 255.178 695.828 254.888 696.256 254.591C696.652 254.318 697.066 253.943 697.193 253.435L695.718 253.066C695.733 253.008 695.725 253.11 695.391 253.342C695.089 253.551 694.625 253.794 693.973 254.065L694.558 255.468ZM697.186 253.459C697.654 251.822 697.942 249.967 698.056 247.902L696.539 247.818C696.429 249.796 696.155 251.535 695.725 253.042L697.186 253.459ZM698.053 247.944C698.281 245.892 698.395 243.729 698.395 241.458H696.875C696.875 243.679 696.763 245.785 696.542 247.776L698.053 247.944ZM698.395 241.458V209.618H696.875V241.458H698.395ZM698.395 209.618C698.395 205.297 697.606 202.03 695.848 200.021L694.704 201.022C696.091 202.606 696.875 205.404 696.875 209.618H698.395ZM695.86 200.035C694.647 198.579 693.172 197.589 691.442 197.095L691.024 198.557C692.439 198.961 693.659 199.768 694.692 201.008L695.86 200.035ZM691.456 197.099C689.94 196.633 688.516 196.392 687.19 196.392V197.912C688.334 197.912 689.605 198.12 691.009 198.552L691.456 197.099ZM687.265 196.396C686.717 196.341 686.354 196.276 686.145 196.213C686.035 196.181 686.019 196.163 686.046 196.182C686.068 196.197 686.265 196.344 686.265 196.647H684.745C684.745 197.061 685.013 197.314 685.175 197.427C685.342 197.544 685.537 197.618 685.708 197.669C686.06 197.775 686.54 197.851 687.114 197.908L687.265 196.396ZM686.265 196.647C686.265 195.317 686.35 194.363 686.497 193.749C686.571 193.441 686.65 193.267 686.706 193.183C686.756 193.107 686.742 193.168 686.641 193.185L686.391 191.685C685.953 191.758 685.644 192.036 685.441 192.34C685.245 192.634 685.113 193.002 685.019 193.395C684.829 194.185 684.745 195.281 684.745 196.647H686.265ZM686.629 193.186C692.585 192.287 697.423 191.5 701.14 190.824L700.868 189.329C697.172 190.001 692.351 190.786 686.402 191.683L686.629 193.186ZM701.162 190.82C704.863 190.035 707.18 189.526 708.095 189.298L707.727 187.823C706.844 188.044 704.558 188.546 700.846 189.333L701.162 190.82ZM708.095 189.298L710.791 188.624L710.422 187.149L707.727 187.823L708.095 189.298ZM710.791 188.624C710.762 188.631 710.683 188.639 710.593 188.598C710.514 188.561 710.493 188.516 710.509 188.542C710.527 188.57 710.562 188.641 710.599 188.779C710.635 188.914 710.668 189.092 710.693 189.318L712.204 189.15C712.145 188.617 712.032 188.111 711.798 187.736C711.674 187.538 711.492 187.338 711.23 187.217C710.958 187.092 710.676 187.086 710.422 187.149L710.791 188.624ZM710.693 189.318C710.805 190.321 710.788 190.933 710.711 191.24L712.186 191.609C712.334 191.017 712.317 190.169 712.204 189.15L710.693 189.318ZM710.696 191.317C710.471 192.896 710.301 194.255 710.187 195.392L711.699 195.543C711.81 194.434 711.977 193.097 712.201 191.532L710.696 191.317ZM710.187 195.392C710.074 196.526 710.015 197.452 710.015 198.163H711.535C711.535 197.525 711.588 196.655 711.699 195.543L710.187 195.392ZM710.015 198.163C710.015 198.426 710.044 198.737 710.179 199.008C710.252 199.154 710.367 199.31 710.543 199.427C710.723 199.547 710.923 199.597 711.112 199.597V198.077C711.189 198.077 711.29 198.098 711.386 198.162C711.477 198.223 711.522 198.294 711.539 198.328C711.554 198.359 711.551 198.367 711.545 198.333C711.54 198.3 711.535 198.245 711.535 198.163H710.015ZM711.112 199.597C711.396 199.597 711.622 199.466 711.744 199.385C711.886 199.29 712.024 199.167 712.154 199.037L711.08 197.962C711.034 198.008 710.996 198.043 710.965 198.07C710.933 198.097 710.912 198.113 710.901 198.12C710.889 198.128 710.897 198.121 710.924 198.11C710.95 198.1 711.016 198.077 711.112 198.077V199.597ZM712.166 199.026C714.679 196.403 718.09 193.921 722.422 191.588L721.702 190.25C717.273 192.634 713.721 195.206 711.068 197.974L712.166 199.026ZM722.428 191.585C726.838 189.159 730.98 187.973 734.865 187.973V186.453C730.664 186.453 726.271 187.737 721.696 190.253L722.428 191.585ZM734.865 187.973C742.524 187.973 747.733 190.688 750.712 196.007L752.038 195.264C748.727 189.352 742.93 186.453 734.865 186.453V187.973ZM750.712 196.007C753.757 201.445 755.332 210.376 755.332 222.927H756.852C756.852 210.32 755.282 201.058 752.038 195.264L750.712 196.007ZM755.332 222.927V238.257H756.852V222.927H755.332ZM755.332 238.257C755.332 241.531 755.445 244.418 755.672 246.918L757.186 246.78C756.964 244.338 756.852 241.498 756.852 238.257H755.332ZM755.672 246.918C755.899 249.415 756.241 251.59 756.702 253.435L758.177 253.066C757.74 251.318 757.408 249.224 757.186 246.78L755.672 246.918ZM756.76 253.591C756.966 254.003 757.362 254.333 757.787 254.606C758.232 254.892 758.811 255.179 759.506 255.468L760.09 254.065C759.437 253.793 758.949 253.546 758.608 253.327C758.247 253.095 758.138 252.947 758.119 252.911L756.76 253.591ZM759.506 255.468C760.9 256.05 762.405 256.512 764.019 256.858L764.337 255.371C762.806 255.043 761.391 254.607 760.09 254.065L759.506 255.468ZM764.019 256.858C765.591 257.195 766.785 257.38 767.547 257.38V255.86C766.962 255.86 765.909 255.708 764.337 255.371L764.019 256.858ZM767.547 257.38C767.342 257.38 767.223 257.266 767.195 257.233C767.179 257.213 767.205 257.238 767.247 257.366C767.33 257.615 767.409 258.047 767.464 258.705L768.979 258.578C768.921 257.888 768.831 257.31 768.689 256.885C768.62 256.675 768.52 256.448 768.363 256.26C768.195 256.058 767.921 255.86 767.547 255.86V257.38ZM767.464 258.705C767.576 260.046 767.5 260.841 767.347 261.223L768.758 261.788C769.055 261.046 769.091 259.933 768.979 258.578L767.464 258.705ZM768.088 260.746L750.062 259.904L749.992 261.422L768.017 262.265L768.088 260.746ZM749.991 259.904L732.302 260.746L732.374 262.265L750.063 261.422L749.991 259.904ZM732.876 260.968C732.791 260.884 732.669 260.687 732.573 260.278C732.479 259.879 732.424 259.338 732.424 258.641H730.904C730.904 259.405 730.962 260.072 731.093 260.627C731.222 261.173 731.436 261.678 731.801 262.043L732.876 260.968ZM732.424 258.641C732.424 257.99 732.481 257.584 732.554 257.366C732.589 257.259 732.611 257.254 732.581 257.284C732.532 257.332 732.441 257.38 732.338 257.38V255.86C731.609 255.86 731.257 256.449 731.112 256.885C730.96 257.341 730.904 257.945 730.904 258.641H732.424ZM732.338 257.38C733.32 257.38 734.563 257.198 736.047 256.855L735.705 255.374C734.269 255.705 733.154 255.86 732.338 255.86V257.38ZM736.047 256.855C737.551 256.508 738.948 256.043 740.234 255.459L739.605 254.075C738.42 254.613 737.121 255.047 735.705 255.374L736.047 256.855ZM740.234 255.459C740.875 255.167 741.408 254.874 741.807 254.575C742.183 254.293 742.557 253.92 742.678 253.435L741.203 253.066C741.212 253.03 741.193 253.135 740.895 253.359C740.62 253.565 740.199 253.805 739.605 254.075L740.234 255.459ZM742.671 253.459C743.139 251.822 743.427 249.967 743.542 247.902L742.024 247.818C741.914 249.796 741.64 251.535 741.21 253.042L742.671 253.459ZM743.538 247.944C743.766 245.892 743.88 243.729 743.88 241.458H742.36C742.36 243.679 742.249 245.785 742.028 247.776L743.538 247.944ZM743.88 241.458V224.612H742.36V241.458H743.88ZM743.88 224.612C743.88 219.361 743.541 214.916 742.856 211.288C742.172 207.669 741.133 204.812 739.698 202.778L738.456 203.655C739.716 205.44 740.699 208.058 741.362 211.57C742.025 215.074 742.36 219.418 742.36 224.612H743.88ZM739.698 202.778C736.819 198.7 732.167 196.729 725.937 196.729V198.249C731.836 198.249 735.944 200.097 738.456 203.655L739.698 202.778ZM725.937 196.729C723.427 196.729 720.94 197.447 718.484 198.851L719.238 200.17C721.499 198.878 723.729 198.249 725.937 198.249V196.729ZM718.508 198.837C716.086 200.106 714.048 201.616 712.409 203.372L713.52 204.409C715.026 202.796 716.92 201.385 719.214 200.184L718.508 198.837ZM712.409 203.372C710.778 205.119 709.846 206.87 709.846 208.608H711.366C711.366 207.425 712.007 206.031 713.52 204.409L712.409 203.372ZM709.846 208.608V238.257H711.366V208.608H709.846ZM709.846 238.257C709.846 241.531 709.959 244.418 710.186 246.918L711.7 246.78C711.478 244.338 711.366 241.498 711.366 238.257H709.846ZM710.186 246.918C710.413 249.415 710.755 251.59 711.217 253.435L712.691 253.066C712.254 251.318 711.922 249.224 711.7 246.78L710.186 246.918ZM711.274 253.591C711.481 254.003 711.877 254.333 712.301 254.606C712.747 254.892 713.325 255.179 714.02 255.468L714.605 254.065C713.952 253.793 713.464 253.546 713.123 253.327C712.761 253.095 712.652 252.947 712.634 252.911L711.274 253.591ZM714.02 255.468C715.415 256.05 716.92 256.512 718.533 256.858L718.852 255.371C717.321 255.043 715.905 254.607 714.605 254.065L714.02 255.468ZM718.533 256.858C720.106 257.195 721.299 257.38 722.062 257.38V255.86C721.477 255.86 720.424 255.708 718.852 255.371L718.533 256.858ZM722.062 257.38C721.856 257.38 721.737 257.266 721.71 257.233C721.693 257.213 721.72 257.238 721.762 257.366C721.845 257.615 721.924 258.047 721.978 258.705L723.493 258.578C723.436 257.888 723.346 257.31 723.204 256.885C723.134 256.675 723.034 256.448 722.877 256.26C722.71 256.058 722.436 255.86 722.062 255.86V257.38ZM721.978 258.705C722.09 260.046 722.014 260.841 721.862 261.223L723.273 261.788C723.569 261.046 723.606 259.933 723.493 258.578L721.978 258.705ZM722.603 260.746L704.577 259.904L704.506 261.422L722.532 262.265L722.603 260.746ZM704.507 259.904L686.144 260.746L686.214 262.265L704.576 261.422L704.507 259.904ZM781.867 259.652L781.153 259.912L781.309 260.342L781.762 260.405L781.867 259.652ZM779.34 247.86L778.583 247.932L778.585 247.95L778.587 247.967L779.34 247.86ZM779.003 242.132L778.547 241.524L778.243 241.752V242.132H779.003ZM783.72 242.132L782.97 242.257L782.972 242.269L782.975 242.281L783.72 242.132ZM793.659 254.598L793.264 255.248L793.275 255.254L793.285 255.26L793.659 254.598ZM810.337 253.924L810.829 254.504L810.832 254.502L810.337 253.924ZM809.326 235.562L809.819 234.983L809.812 234.977L809.805 234.971L809.326 235.562ZM803.262 231.519L802.885 232.179L802.912 232.194L802.94 232.207L803.262 231.519ZM798.545 229.16L798.184 229.829L798.214 229.845L798.245 229.859L798.545 229.16ZM792.985 225.959L793.376 225.308L793.365 225.301L792.985 225.959ZM783.214 197.32L783.825 197.773L783.833 197.762L783.214 197.32ZM792.143 190.076L792.458 190.768L792.467 190.764L792.143 190.076ZM808.484 187.718L808.377 188.47L808.403 188.474L808.43 188.476L808.484 187.718ZM813.707 188.223L813.839 187.475L813.817 187.471L813.795 187.469L813.707 188.223ZM821.456 189.571L822.195 189.394L822.075 188.892L821.563 188.819L821.456 189.571ZM823.477 206.754H824.238L824.237 206.741L823.477 206.754ZM818.76 206.418L819.513 206.31L819.511 206.297L819.509 206.284L818.76 206.418ZM813.875 197.489L813.316 198.003L813.321 198.009L813.327 198.015L813.875 197.489ZM793.322 207.765L792.585 207.95L792.595 207.988L792.608 208.025L793.322 207.765ZM796.186 211.303L796.651 210.702L796.65 210.701L796.186 211.303ZM808.484 219.389L808.107 220.049L808.114 220.053L808.484 219.389ZM820.445 226.97L820.906 226.366L820.901 226.362L820.445 226.97ZM823.983 251.566L824.612 251.992L824.618 251.983L823.983 251.566ZM814.549 259.821L814.896 260.497L814.549 259.821ZM801.577 262.093C798.152 262.093 795.078 261.706 792.348 260.942L791.938 262.406C794.824 263.214 798.039 263.613 801.577 263.613V262.093ZM792.348 260.942C789.497 260.144 786.036 259.464 781.971 258.9L781.762 260.405C785.784 260.964 789.173 261.632 791.938 262.406L792.348 260.942ZM782.581 259.393C782.149 258.205 781.709 256.56 781.263 254.442L779.775 254.755C780.228 256.904 780.686 258.628 781.153 259.912L782.581 259.393ZM781.263 254.442C780.817 252.326 780.427 250.096 780.092 247.752L778.587 247.967C778.927 250.341 779.322 252.603 779.775 254.755L781.263 254.442ZM780.096 247.788C779.873 245.44 779.763 243.558 779.763 242.132H778.243C778.243 243.626 778.358 245.562 778.583 247.932L780.096 247.788ZM779.459 242.74C779.888 242.418 780.24 242.194 780.522 242.054C780.816 241.907 780.972 241.881 781.024 241.881V240.361C780.628 240.361 780.222 240.504 779.842 240.694C779.45 240.89 779.017 241.172 778.547 241.524L779.459 242.74ZM781.024 241.881C781.834 241.881 782.372 241.965 782.695 242.085C782.851 242.144 782.923 242.199 782.951 242.227C782.971 242.247 782.969 242.252 782.97 242.257L784.47 242.007C784.352 241.3 783.817 240.883 783.229 240.662C782.653 240.446 781.9 240.361 781.024 240.361V241.881ZM782.975 242.281C783.453 244.673 784.642 247.028 786.496 249.345L787.683 248.396C785.943 246.221 784.885 244.083 784.465 241.983L782.975 242.281ZM786.496 249.345C788.351 251.664 790.609 253.631 793.264 255.248L794.054 253.949C791.543 252.421 789.421 250.569 787.683 248.396L786.496 249.345ZM793.285 255.26C795.971 256.778 798.738 257.548 801.577 257.548V256.028C799.026 256.028 796.514 255.339 794.033 253.937L793.285 255.26ZM801.577 257.548C805.31 257.548 808.418 256.554 810.829 254.504L809.845 253.345C807.765 255.114 805.032 256.028 801.577 256.028V257.548ZM810.832 254.502C813.392 252.307 814.635 249.214 814.635 245.333H813.115C813.115 248.864 812 251.498 809.843 253.347L810.832 254.502ZM814.635 245.333C814.635 241.176 813.019 237.709 809.819 234.983L808.834 236.14C811.699 238.581 813.115 241.628 813.115 245.333H814.635ZM809.805 234.971C807.424 233.044 805.348 231.654 803.583 230.83L802.94 232.207C804.545 232.956 806.512 234.261 808.848 236.153L809.805 234.971ZM803.639 230.859C802.043 229.947 800.445 229.148 798.844 228.462L798.245 229.859C799.79 230.521 801.336 231.294 802.885 232.179L803.639 230.859ZM798.905 228.491C797.46 227.713 795.618 226.652 793.376 225.308L792.594 226.611C794.846 227.962 796.71 229.035 798.184 229.829L798.905 228.491ZM793.365 225.301C784.723 220.315 780.605 214.513 780.605 207.934H779.085C779.085 215.281 783.727 221.496 792.606 226.618L793.365 225.301ZM780.605 207.934C780.605 204.041 781.683 200.665 783.825 197.773L782.604 196.868C780.254 200.041 779.085 203.74 779.085 207.934H780.605ZM783.833 197.762C785.997 194.732 788.866 192.401 792.458 190.768L791.829 189.385C788.008 191.121 784.924 193.62 782.596 196.879L783.833 197.762ZM792.467 190.764C796.183 189.015 800.115 188.141 804.273 188.141V186.621C799.894 186.621 795.74 187.544 791.819 189.389L792.467 190.764ZM804.273 188.141C805.464 188.141 806.83 188.249 808.377 188.47L808.592 186.966C806.993 186.737 805.552 186.621 804.273 186.621V188.141ZM808.43 188.476C809.989 188.587 811.718 188.755 813.618 188.978L813.795 187.469C811.877 187.243 810.124 187.073 808.538 186.96L808.43 188.476ZM813.574 188.972C815.483 189.309 817.054 189.589 818.288 189.813L818.56 188.318C817.322 188.093 815.749 187.812 813.839 187.475L813.574 188.972ZM818.288 189.813C819.528 190.039 820.549 190.209 821.348 190.323L821.563 188.819C820.791 188.708 819.79 188.542 818.56 188.318L818.288 189.813ZM820.717 189.748C821.937 194.852 822.606 200.524 822.718 206.768L824.237 206.741C824.124 200.406 823.445 194.623 822.195 189.394L820.717 189.748ZM822.717 206.754C822.717 206.714 822.737 206.659 822.766 206.625C822.783 206.606 822.768 206.634 822.657 206.677C822.425 206.766 821.991 206.837 821.287 206.837V208.357C822.044 208.357 822.705 208.287 823.203 208.096C823.457 207.998 823.716 207.85 823.915 207.621C824.127 207.376 824.237 207.076 824.237 206.754H822.717ZM821.287 206.837C820.546 206.837 820.072 206.741 819.798 206.613C819.563 206.504 819.526 206.402 819.513 206.31L818.008 206.525C818.107 207.219 818.547 207.707 819.155 207.991C819.724 208.256 820.457 208.357 821.287 208.357V206.837ZM819.509 206.284C818.915 202.962 817.2 199.855 814.423 196.963L813.327 198.015C815.941 200.739 817.482 203.584 818.012 206.551L819.509 206.284ZM814.434 196.974C811.728 194.033 808.557 192.517 804.946 192.517V194.037C808.074 194.037 810.855 195.329 813.316 198.003L814.434 196.974ZM804.946 192.517C800.819 192.517 797.582 193.36 795.368 195.174C793.124 197.013 792.057 199.742 792.057 203.217H793.577C793.577 200.065 794.531 197.825 796.331 196.35C798.16 194.851 800.988 194.037 804.946 194.037V192.517ZM792.057 203.217C792.057 204.951 792.23 206.53 792.585 207.95L794.06 207.581C793.741 206.305 793.577 204.852 793.577 203.217H792.057ZM792.608 208.025C793.123 209.44 794.192 210.728 795.723 211.905L796.65 210.701C795.26 209.632 794.42 208.561 794.037 207.506L792.608 208.025ZM795.721 211.904C799.236 214.625 803.366 217.34 808.107 220.049L808.861 218.729C804.168 216.048 800.1 213.371 796.651 210.702L795.721 211.904ZM808.114 220.053C812.924 222.738 816.88 225.246 819.989 227.578L820.901 226.362C817.721 223.977 813.703 221.432 808.855 218.726L808.114 220.053ZM819.985 227.575C824.561 231.061 826.761 235.067 826.761 239.605H828.281C828.281 234.484 825.764 230.067 820.906 226.366L819.985 227.575ZM826.761 239.605C826.761 243.84 825.623 247.681 823.347 251.149L824.618 251.983C827.06 248.263 828.281 244.13 828.281 239.605H826.761ZM823.354 251.14C821.07 254.51 818.025 257.179 814.201 259.145L814.896 260.497C818.935 258.42 822.178 255.585 824.612 251.992L823.354 251.14ZM814.201 259.145C810.385 261.107 806.182 262.093 801.577 262.093V263.613C806.407 263.613 810.851 262.577 814.896 260.497L814.201 259.145Z" fill="#515151"/>
<path d="M435.428 1.73541C437.757 16.2614 440.838 21.2827 449.928 23.7354C440.838 26.1881 437.757 31.2094 435.428 45.7354C433.515 31.1857 430.52 26.0847 420.928 23.7354C430.52 21.3861 433.515 16.2851 435.428 1.73541Z" fill="#C6E5E8"/>
<path d="M354.928 55.7354C356.856 65.6395 359.405 69.0631 366.928 70.7354C359.405 72.4077 356.856 75.8313 354.928 85.7354C353.345 75.8152 350.866 72.3372 342.928 70.7354C350.866 69.1336 353.345 65.6556 354.928 55.7354Z" fill="#C6E5E8"/>
<path d="M450.428 88.7354C453.239 107.223 456.957 113.614 467.928 116.735C456.957 119.857 453.239 126.248 450.428 144.735C448.12 126.218 444.504 119.725 432.928 116.735C444.504 113.745 448.12 107.253 450.428 88.7354Z" fill="#C6E5E8"/>
<path d="M445.58 108.819C447.942 104.96 449.378 99.6184 450.473 92.1399C451.767 99.6049 453.321 104.916 455.692 108.76C458.164 112.767 461.501 115.145 466.236 116.735C461.501 118.326 458.164 120.704 455.692 124.711C453.321 128.554 451.767 133.866 450.473 141.331C449.378 133.852 447.942 128.511 445.58 124.651C443.126 120.644 439.7 118.275 434.759 116.735C439.7 115.196 443.126 112.827 445.58 108.819ZM431.478 17.5817C433.393 14.615 434.573 10.5477 435.472 4.92199C436.527 10.5378 437.801 14.5815 439.723 17.5356C441.732 20.6222 444.421 22.4828 448.186 23.7354C444.421 24.9881 441.732 26.8487 439.723 29.9352C437.801 32.8893 436.527 36.933 435.472 42.5488C434.573 36.9231 433.393 32.8558 431.478 29.8891C429.486 26.8034 426.729 24.9504 422.808 23.7354C426.729 22.5205 429.486 20.6675 431.478 17.5817ZM351.705 66.6632C353.261 64.6772 354.234 61.9866 354.971 58.3328C355.831 61.9818 356.876 64.6559 358.437 66.6322C360.021 68.6383 362.101 69.8839 364.932 70.7354C362.101 71.5869 360.021 72.8325 358.437 74.8386C356.876 76.8149 355.831 79.4891 354.971 83.138C354.234 79.4842 353.261 76.7937 351.705 74.8076C350.135 72.8046 348.011 71.5648 345.077 70.7354C348.011 69.9061 350.135 68.6663 351.705 66.6632Z" stroke="black" stroke-opacity="0.12"/>
</svg>
