<svg width="757" height="302" viewBox="0 0 757 302" fill="none" xmlns="http://www.w3.org/2000/svg">
<path fill-rule="evenodd" clip-rule="evenodd" d="M97.7213 267.865C33.7388 232.769 -5.1098 181.649 0.543736 129.12C9.72052 43.8558 132.675 -12.832 275.17 2.50436C281.599 3.19635 287.959 4.02315 294.24 4.97902C157.984 -6.11475 41.6572 56.2441 33.6143 145.233C29.5132 190.611 54.3527 234.224 97.7213 267.865ZM166.347 299.197C158.166 295.838 150.283 292.197 142.729 288.301C77.3376 254.572 36.6411 201.689 41.6669 146.082C49.448 59.9881 163.885 -0.0321503 297.27 12.0231C338.338 15.7349 376.413 25.8464 409.22 40.5779C441.087 56.5706 467.421 76.4128 486.092 98.4988C444.527 70.1838 387.451 49.4267 323.145 42.3537C194.029 28.1524 81.904 74.1926 62.5959 146.598C60.7457 152.515 59.5172 158.606 58.9528 164.851C54.6174 212.819 90.4636 258.9 149.138 290.613C154.676 293.606 160.417 296.471 166.347 299.197Z" fill="white"/>
<path d="M179.635 230.347C178.937 230.347 178.438 230.048 178.138 229.449L147.457 152.071C144.962 145.486 142.717 140.697 140.722 137.703C140.023 136.606 138.576 135.758 136.381 135.159C134.186 134.56 132.44 134.261 131.143 134.261C130.744 134.261 130.544 133.612 130.544 132.315C130.544 131.118 130.744 130.32 131.143 129.921C133.538 130.02 136.232 130.17 139.225 130.37C142.218 130.569 145.262 130.669 148.355 130.669C149.552 130.669 151.697 130.619 154.79 130.519C157.883 130.32 161.924 130.12 166.913 129.921C167.113 130.32 167.163 131.168 167.063 132.465C167.063 133.662 166.913 134.261 166.614 134.261C164.718 134.261 162.773 134.66 160.777 135.458C158.781 136.256 157.784 137.504 157.784 139.2C157.784 142.093 164.07 158.906 176.642 189.638C178.039 193.03 179.236 196.073 180.234 198.767C181.331 201.362 182.279 203.607 183.077 205.502C183.377 206.001 183.776 206.151 184.275 205.951C184.873 205.652 185.273 205.253 185.472 204.754L207.922 150.575C209.818 145.785 210.766 142.293 210.766 140.098C210.766 138.601 210.117 137.454 208.82 136.656C207.523 135.758 206.026 135.159 204.33 134.86C202.734 134.46 201.387 134.261 200.289 134.261C199.89 134.261 199.69 133.612 199.69 132.315C199.69 131.118 199.89 130.32 200.289 129.921C204.979 130.12 208.621 130.32 211.215 130.519C213.909 130.619 215.605 130.669 216.303 130.669L231.42 129.921C231.619 130.719 231.719 131.467 231.719 132.166C231.719 133.562 231.52 134.261 231.12 134.261C226.63 134.261 223.637 135.658 222.14 138.452C221.043 140.547 219.846 142.892 218.548 145.486C217.351 147.98 216.104 150.774 214.807 153.867L184.873 225.408C183.576 228.701 181.83 230.347 179.635 230.347ZM253.421 229.898C247.933 229.898 242.894 228.451 238.304 225.558C233.715 222.664 230.023 218.823 227.229 214.033C224.535 209.144 223.188 203.706 223.188 197.72C223.188 190.735 224.485 184.699 227.079 179.61C229.674 174.521 233.216 170.63 237.706 167.936C242.196 165.142 247.235 163.745 252.822 163.745C257.412 163.745 261.453 164.643 264.945 166.439C268.437 168.135 271.131 170.331 273.027 173.025C274.823 175.818 276.12 178.662 276.919 181.556C277.817 184.349 278.266 187.143 278.266 189.937C278.266 191.933 277.966 193.18 277.368 193.679C276.769 194.078 275.621 194.277 273.925 194.277H236.209C235.411 194.277 235.012 194.527 235.012 195.026C235.012 199.216 235.86 203.257 237.556 207.149C239.252 210.94 241.747 214.083 245.039 216.578C248.332 219.072 252.373 220.319 257.163 220.319C261.353 220.319 264.845 219.721 267.639 218.523C270.533 217.226 272.628 216.079 273.925 215.081L274.973 214.333C275.572 214.333 275.871 214.981 275.871 216.278C275.871 216.977 275.572 217.875 274.973 218.972C272.977 221.766 270.034 224.31 266.143 226.605C262.251 228.8 258.011 229.898 253.421 229.898ZM236.209 187.991H265.394C265.893 187.991 266.143 187.492 266.143 186.495C266.143 184.299 265.544 181.905 264.347 179.311C263.249 176.617 261.553 174.272 259.258 172.276C256.963 170.281 254.069 169.283 250.577 169.283C247.384 169.283 244.64 170.38 242.345 172.576C240.051 174.671 238.304 177.115 237.107 179.909C235.91 182.603 235.311 184.948 235.311 186.944C235.311 187.642 235.61 187.991 236.209 187.991ZM287.545 229.449C287.146 229.05 286.946 228.202 286.946 226.905C286.946 225.707 287.146 225.109 287.545 225.109C288.343 225.109 289.441 224.959 290.838 224.66C292.234 224.36 293.532 223.961 294.729 223.462C295.926 222.963 296.575 222.514 296.675 222.115C297.074 220.718 297.323 219.122 297.423 217.326C297.622 215.53 297.722 213.634 297.722 211.639V183.352C297.722 179.56 297.024 176.866 295.627 175.27C294.629 174.072 293.432 173.274 292.035 172.875C290.738 172.476 289.54 172.276 288.443 172.276C287.445 172.176 286.946 172.027 286.946 171.827C286.946 169.433 287.246 168.185 287.844 168.086C298.72 166.389 305.006 165.292 306.702 164.793L309.247 164.045C309.646 163.945 309.895 164.344 309.995 165.242C310.095 166.14 310.095 166.788 309.995 167.188L309.097 174.671C310.893 171.977 313.337 169.482 316.431 167.188C319.623 164.793 322.766 163.596 325.86 163.596C331.647 163.596 335.538 165.042 337.534 167.936C337.534 171.428 336.985 173.972 335.887 175.569C334.79 177.165 333.443 177.964 331.846 177.964C330.05 177.964 328.404 177.115 326.907 175.419C325.411 173.723 323.365 172.875 320.771 172.875C318.775 172.875 316.88 173.573 315.084 174.97C313.288 176.267 311.841 177.964 310.743 180.059C309.745 182.054 309.247 184.15 309.247 186.345V208.795C309.247 211.689 309.346 214.233 309.546 216.428C309.745 218.623 310.045 220.519 310.444 222.115C310.643 222.514 311.342 222.963 312.539 223.462C313.737 223.961 315.034 224.36 316.431 224.66C317.927 224.959 318.975 225.109 319.574 225.109C319.873 225.109 320.072 225.707 320.172 226.905C320.272 228.102 320.222 228.95 320.023 229.449L303.859 228.701L287.545 229.449ZM360.582 230.048C355.993 230.048 352.201 228.85 349.208 226.456C346.214 223.961 344.718 220.269 344.718 215.38C344.718 209.394 348.609 204.405 356.392 200.414C359.784 198.717 363.127 197.37 366.419 196.373C369.812 195.375 373.204 194.227 376.597 192.93C377.495 192.631 377.944 191.883 377.944 190.685V179.46C377.944 176.267 376.946 173.823 374.95 172.127C372.955 170.331 370.56 169.433 367.766 169.433C364.773 169.433 362.279 170.48 360.283 172.576C358.287 174.571 357.29 177.215 357.29 180.508C357.29 184 355.244 185.746 351.153 185.746C348.26 185.746 346.314 184.798 345.316 182.903C345.316 180.807 346.164 178.662 347.861 176.467C349.657 174.172 351.952 172.077 354.745 170.181C357.539 168.285 360.582 166.739 363.875 165.541C367.267 164.344 370.61 163.745 373.903 163.745C379.39 163.745 383.332 165.092 385.726 167.786C388.121 170.38 389.318 174.621 389.318 180.508V215.081C389.318 217.176 389.867 218.922 390.965 220.319C392.062 221.716 393.559 222.415 395.455 222.415C396.752 222.415 398.498 221.716 400.693 220.319C401.092 220.319 401.292 220.718 401.292 221.517C401.292 222.814 401.042 223.861 400.543 224.66C396.452 228.152 392.96 229.898 390.067 229.898C387.772 229.898 385.577 228.95 383.481 227.054C381.386 225.159 379.939 223.163 379.141 221.068C378.642 221.467 377.994 222.016 377.195 222.714C376.497 223.313 375.898 223.812 375.399 224.211C373.304 225.807 371.009 227.204 368.515 228.401C366.12 229.499 363.476 230.048 360.582 230.048ZM366.27 221.517C369.063 221.517 371.708 220.718 374.202 219.122C376.696 217.526 377.944 215.829 377.944 214.033V198.618C375.349 199.615 372.855 200.513 370.46 201.312C368.165 202.11 366.32 202.758 364.923 203.257C363.127 203.956 361.381 205.203 359.684 206.999C358.088 208.795 357.29 210.84 357.29 213.135C357.29 216.129 358.188 218.274 359.984 219.571C361.879 220.868 363.975 221.517 366.27 221.517ZM426.935 229.299C421.014 229.299 416.292 227.869 412.766 225.009C409.307 222.149 407.578 218.224 407.578 213.235C407.578 208.911 409.041 205.319 411.968 202.459C414.895 199.532 418.952 196.738 424.141 194.078C422.744 191.75 421.414 189.089 420.15 186.095C418.952 183.102 418.354 180.142 418.354 177.215C418.354 174.688 418.986 172.393 420.25 170.331C421.58 168.269 423.343 166.639 425.538 165.441C427.733 164.178 430.227 163.546 433.021 163.546C437.478 163.546 441.003 164.543 443.598 166.539C446.192 168.468 447.489 171.195 447.489 174.721C447.489 178.778 446.192 182.237 443.598 185.098C441.003 187.958 437.345 190.852 432.622 193.778C434.551 197.038 436.746 200.33 439.207 203.656C441.669 206.982 444.396 210.308 447.389 213.634C448.254 212.37 449.019 211.14 449.684 209.942C450.349 208.679 450.948 207.481 451.48 206.35C452.544 204.155 453.076 202.692 453.076 201.96C453.076 201.029 452.511 200.53 451.38 200.464C450.316 200.33 449.385 200.231 448.586 200.164C448.453 199.765 448.387 199.366 448.387 198.967C448.387 198.435 448.487 198.069 448.686 197.869H456.569C458.897 197.869 460.959 197.803 462.755 197.67C464.617 197.537 466.214 197.437 467.544 197.37C467.877 197.57 468.043 198.002 468.043 198.668C468.043 199.665 467.844 200.164 467.444 200.164C466.912 200.164 466.147 200.264 465.15 200.464C464.218 200.663 463.32 200.896 462.456 201.162C461.591 201.362 460.959 201.594 460.56 201.86C460.294 202.126 459.695 203.058 458.764 204.654C457.833 206.184 456.635 208.047 455.172 210.242C453.708 212.437 452.045 214.599 450.183 216.727C452.312 218.922 453.941 220.585 455.072 221.716C456.269 222.781 457.201 223.512 457.866 223.911C458.598 224.31 459.296 224.51 459.961 224.51C460.892 224.51 461.89 223.945 462.954 222.814C464.085 221.683 464.817 220.718 465.15 219.92C465.682 219.92 466.181 220.12 466.646 220.519C467.178 220.918 467.444 221.317 467.444 221.716C467.045 222.514 466.447 223.479 465.648 224.61C464.85 225.741 463.719 226.772 462.256 227.703C460.859 228.568 458.963 229 456.569 229C454.839 229 453.01 228.401 451.081 227.204C449.218 225.94 447.755 224.743 446.691 223.612L445.094 221.816C439.44 226.805 433.387 229.299 426.935 229.299ZM430.826 190.586C434.285 188.59 436.779 186.594 438.309 184.599C439.906 182.537 440.704 179.71 440.704 176.118C440.704 173.723 440.039 171.628 438.708 169.832C437.378 168.036 435.649 167.138 433.52 167.138C431.325 167.138 429.462 167.869 427.932 169.333C426.403 170.73 425.638 172.559 425.638 174.821C425.638 179.078 427.367 184.333 430.826 190.586ZM430.327 225.009C432.389 225.009 434.584 224.51 436.912 223.512C439.307 222.514 441.269 221.184 442.799 219.521C441.535 218.191 440.039 216.461 438.309 214.333C436.646 212.204 434.983 210.009 433.32 207.747C431.724 205.486 430.327 203.457 429.13 201.661L426.436 197.67C424.573 199 422.844 200.297 421.247 201.561C419.717 202.758 418.487 204.155 417.556 205.752C416.624 207.348 416.159 209.377 416.159 211.838C416.159 216.228 417.522 219.521 420.25 221.716C422.977 223.911 426.336 225.009 430.327 225.009ZM505.959 230.497C503.564 230.497 501.02 230.297 498.326 229.898C495.632 229.599 493.387 229.249 491.591 228.85C487.899 228.152 485.205 227.603 483.509 227.204C481.912 226.705 480.416 226.356 479.019 226.156C477.722 219.97 476.774 214.931 476.175 211.04C475.576 207.049 475.277 204.155 475.277 202.359C475.277 201.761 476.075 201.461 477.672 201.461C479.468 201.461 480.715 201.91 481.413 202.808C484.906 217.176 493.187 224.36 506.258 224.36C511.247 224.36 515.488 222.864 518.98 219.87C522.472 216.877 524.218 212.636 524.218 207.149C524.218 205.353 523.819 203.158 523.021 200.563C522.322 197.969 520.676 195.724 518.082 193.828C516.086 192.332 514.44 191.234 513.143 190.536C511.846 189.737 510.549 189.039 509.251 188.44C507.954 187.742 506.308 186.794 504.312 185.597L498.326 182.005C495.233 180.109 492.139 177.964 489.046 175.569C485.953 173.074 483.359 170.181 481.264 166.888C479.268 163.596 478.27 159.854 478.27 155.663C478.27 150.375 479.617 145.785 482.311 141.894C485.105 137.903 488.697 134.81 493.087 132.615C497.577 130.419 502.417 129.322 507.605 129.322C509.8 129.322 511.846 129.472 513.741 129.771C515.737 129.97 517.383 130.22 518.68 130.519C521.674 131.218 523.769 131.766 524.966 132.166C526.264 132.565 528.01 133.014 530.205 133.513C531.402 138.701 532.001 145.835 532.001 154.915C532.001 155.613 531.502 155.963 530.504 155.963C528.01 155.963 526.713 155.464 526.613 154.466C526.114 151.473 525.016 148.529 523.32 145.636C521.624 142.742 519.329 140.347 516.435 138.452C513.542 136.456 510.1 135.458 506.108 135.458C502.018 135.458 498.825 136.256 496.53 137.853C494.235 139.35 492.588 141.295 491.591 143.69C490.693 145.985 490.244 148.429 490.244 151.024C490.244 153.518 490.842 156.012 492.04 158.507C493.237 161.001 494.983 163.097 497.278 164.793C500.371 167.088 503.464 169.233 506.557 171.229C509.75 173.224 513.043 175.27 516.435 177.365C519.628 179.36 522.821 181.605 526.014 184.1C529.207 186.495 531.851 189.239 533.946 192.332C536.142 195.425 537.239 199.017 537.239 203.108C537.239 208.396 535.792 213.135 532.899 217.326C530.005 221.417 526.164 224.66 521.374 227.054C516.685 229.349 511.546 230.497 505.959 230.497ZM580.942 230.048C574.955 230.048 569.467 228.551 564.479 225.558C559.49 222.564 555.498 218.523 552.505 213.435C549.612 208.346 548.165 202.758 548.165 196.672C548.165 190.486 549.562 184.898 552.355 179.909C555.249 174.92 559.14 170.979 564.029 168.086C568.919 165.092 574.456 163.596 580.643 163.596C586.629 163.596 592.067 165.092 596.956 168.086C601.945 171.079 605.886 175.07 608.78 180.059C611.773 185.048 613.27 190.586 613.27 196.672C613.27 202.758 611.823 208.346 608.93 213.435C606.036 218.523 602.145 222.564 597.256 225.558C592.466 228.551 587.028 230.048 580.942 230.048ZM582.289 224.211C585.881 224.211 589.024 223.063 591.718 220.768C594.412 218.473 596.507 215.38 598.004 211.489C599.6 207.598 600.399 203.357 600.399 198.767C600.399 193.379 599.401 188.49 597.405 184.1C595.41 179.61 592.766 176.068 589.473 173.474C586.28 170.78 582.788 169.433 578.996 169.433C575.504 169.433 572.361 170.58 569.567 172.875C566.873 175.07 564.778 178.063 563.281 181.855C561.784 185.547 561.036 189.737 561.036 194.427C561.036 199.815 561.984 204.804 563.88 209.394C565.875 213.884 568.47 217.476 571.663 220.17C574.955 222.864 578.497 224.211 582.289 224.211ZM623.896 229.449C623.497 229.05 623.298 228.202 623.298 226.905C623.298 225.707 623.497 225.109 623.896 225.109C624.694 225.109 625.792 224.959 627.189 224.66C628.586 224.36 629.883 223.961 631.08 223.462C632.278 222.963 632.926 222.514 633.026 222.115C633.425 220.718 633.674 219.122 633.774 217.326C633.974 215.53 634.074 213.634 634.074 211.639V183.352C634.074 179.56 633.375 176.866 631.978 175.27C630.98 174.072 629.783 173.274 628.386 172.875C627.089 172.476 625.892 172.276 624.794 172.276C623.796 172.176 623.298 172.027 623.298 171.827C623.298 169.433 623.597 168.185 624.196 168.086C629.484 167.287 633.774 166.589 637.067 165.99C640.36 165.292 642.405 164.843 643.203 164.643L645.598 164.045C645.997 163.945 646.247 164.344 646.346 165.242C646.446 166.14 646.446 166.788 646.346 167.188C646.147 168.584 645.997 169.782 645.897 170.78C645.798 171.777 645.748 172.576 645.748 173.174C645.748 173.573 645.847 173.773 646.047 173.773C646.147 173.773 646.296 173.673 646.496 173.474C648.791 171.079 651.884 168.834 655.775 166.739C659.766 164.543 663.558 163.446 667.15 163.446C674.134 163.446 679.024 165.94 681.817 170.929C684.611 175.918 686.008 184 686.008 195.175V208.795C686.008 211.689 686.108 214.233 686.307 216.428C686.507 218.623 686.806 220.519 687.205 222.115C687.405 222.514 688.103 222.963 689.301 223.462C690.498 223.961 691.795 224.36 693.192 224.66C694.589 224.959 695.587 225.109 696.185 225.109C696.485 225.109 696.684 225.707 696.784 226.905C696.884 228.102 696.834 228.95 696.634 229.449L680.62 228.701L664.905 229.449C664.506 229.05 664.306 228.202 664.306 226.905C664.306 225.707 664.506 225.109 664.905 225.109C665.703 225.109 666.751 224.959 668.048 224.66C669.345 224.36 670.542 223.961 671.64 223.462C672.738 222.963 673.336 222.514 673.436 222.115C673.835 220.718 674.085 219.122 674.184 217.326C674.384 215.53 674.484 213.634 674.484 211.639V196.672C674.484 187.393 673.286 181.057 670.892 177.664C668.497 174.272 664.606 172.576 659.218 172.576C657.122 172.576 655.027 173.174 652.932 174.372C650.836 175.469 649.09 176.766 647.693 178.263C646.296 179.76 645.598 181.156 645.598 182.454V208.795C645.598 211.689 645.698 214.233 645.897 216.428C646.097 218.623 646.396 220.519 646.795 222.115C646.995 222.514 647.693 222.963 648.891 223.462C650.088 223.961 651.385 224.36 652.782 224.66C654.179 224.959 655.177 225.109 655.775 225.109C656.075 225.109 656.274 225.707 656.374 226.905C656.474 228.102 656.424 228.95 656.224 229.449L640.21 228.701L623.896 229.449ZM726.418 230.646C723.325 230.646 720.531 230.297 718.037 229.599C715.542 228.9 712.499 228.302 708.907 227.803C708.508 226.705 708.109 225.208 707.71 223.313C707.311 221.417 706.961 219.421 706.662 217.326C706.462 215.231 706.363 213.534 706.363 212.237C707.161 211.639 707.76 211.339 708.159 211.339C709.655 211.339 710.454 211.639 710.553 212.237C710.953 214.233 711.95 216.228 713.547 218.224C715.143 220.22 717.089 221.916 719.384 223.313C721.679 224.61 724.023 225.258 726.418 225.258C729.611 225.258 732.205 224.41 734.201 222.714C736.296 220.918 737.344 218.374 737.344 215.081C737.344 211.589 735.997 208.695 733.303 206.4C731.207 204.704 729.411 203.507 727.915 202.808C726.518 202.01 725.121 201.312 723.724 200.713C722.427 200.015 720.781 199.067 718.785 197.869C711.002 193.379 707.111 188.041 707.111 181.855C707.111 178.263 708.109 175.12 710.104 172.426C712.1 169.632 714.744 167.487 718.037 165.99C721.429 164.394 725.021 163.596 728.813 163.596C729.91 163.596 731.158 163.695 732.554 163.895C733.951 163.995 735.498 164.144 737.194 164.344C738.89 164.643 740.287 164.893 741.385 165.092C742.482 165.292 743.38 165.441 744.079 165.541C745.176 170.131 745.775 175.22 745.875 180.807C745.875 181.306 745.226 181.556 743.929 181.556C742.532 181.556 741.784 181.206 741.684 180.508C741.185 177.714 739.738 175.07 737.344 172.576C735.049 170.081 732.405 168.834 729.411 168.834C722.227 168.834 718.635 171.777 718.635 177.664C718.635 179.161 718.785 180.508 719.084 181.705C719.484 182.803 720.332 183.85 721.629 184.848C724.722 187.243 728.364 189.638 732.554 192.032C736.845 194.427 740.387 196.672 743.181 198.767C747.371 201.96 749.467 205.702 749.467 209.992C749.467 213.884 748.419 217.426 746.324 220.619C744.228 223.712 741.435 226.156 737.942 227.952C734.45 229.748 730.609 230.646 726.418 230.646Z" fill="white"/>
<path d="M450.428 88.7354C453.239 107.223 456.957 113.614 467.928 116.735H432.928C444.504 113.745 448.12 107.253 450.428 88.7354Z" fill="white"/>
<path d="M450.428 144.735C453.239 126.248 456.957 119.857 467.928 116.735H432.928C444.504 119.725 448.12 126.218 450.428 144.735Z" fill="white"/>
<path d="M435.428 1.73541C437.757 16.2614 440.838 21.2827 449.928 23.7354H420.928C430.52 21.3861 433.515 16.2851 435.428 1.73541Z" fill="white"/>
<path d="M435.428 45.7354C437.757 31.2094 440.838 26.1881 449.928 23.7354H420.928C430.52 26.0847 433.515 31.1857 435.428 45.7354Z" fill="white"/>
<path d="M354.928 55.7354C356.856 65.6395 359.405 69.0631 366.928 70.7354H342.928C350.866 69.1336 353.345 65.6556 354.928 55.7354Z" fill="white"/>
<path d="M354.928 85.7354C356.856 75.8313 359.405 72.4077 366.928 70.7354H342.928C350.866 72.3372 353.345 75.8152 354.928 85.7354Z" fill="white"/>
<path d="M348.589 287.281C346.526 287.281 344.589 286.875 342.776 286.062C340.995 285.25 339.417 284.141 338.042 282.734C336.698 281.328 335.635 279.703 334.854 277.859C334.104 275.984 333.729 274 333.729 271.906C333.729 269.688 334.12 267.609 334.901 265.672C335.682 263.703 336.776 261.984 338.182 260.516C339.589 259.016 341.214 257.844 343.057 257C344.932 256.156 346.948 255.734 349.104 255.734C350.948 255.734 352.823 255.828 354.729 256.016C356.635 256.203 358.557 256.5 360.495 256.906L360.401 263.656C360.401 264.125 360.073 264.359 359.417 264.359C359.104 264.359 358.901 264.281 358.807 264.125C358.714 263.719 358.589 263.312 358.432 262.906C358.307 262.469 358.026 261.906 357.589 261.219C356.839 260.125 355.76 259.266 354.354 258.641C352.979 258.016 351.276 257.703 349.245 257.703C347.714 257.703 346.276 258.078 344.932 258.828C343.589 259.547 342.401 260.531 341.37 261.781C340.37 263.031 339.589 264.453 339.026 266.047C338.464 267.609 338.182 269.234 338.182 270.922C338.182 273.516 338.62 275.844 339.495 277.906C340.37 280.031 341.745 281.797 343.62 283.203C345.526 284.578 347.776 285.266 350.37 285.266C353.464 285.266 355.854 284.359 357.542 282.547C358.042 282.016 358.432 281.391 358.714 280.672C358.995 279.953 359.214 279.328 359.37 278.797C359.526 278.266 359.682 278 359.839 278C360.026 278 360.245 278.031 360.495 278.094C360.776 278.125 360.995 278.188 361.151 278.281L361.385 278.422C361.385 278.609 361.323 279.047 361.198 279.734C361.073 280.422 360.917 281.188 360.729 282.031C360.542 282.844 360.354 283.562 360.167 284.188C360.01 284.812 359.885 285.156 359.792 285.219C357.479 286.594 353.745 287.281 348.589 287.281ZM374.417 287.328C372.542 287.328 370.823 286.859 369.26 285.922C367.698 284.984 366.448 283.719 365.51 282.125C364.604 280.531 364.151 278.781 364.151 276.875C364.151 274.938 364.589 273.188 365.464 271.625C366.37 270.062 367.589 268.828 369.12 267.922C370.651 266.984 372.385 266.516 374.323 266.516C376.198 266.516 377.901 266.984 379.432 267.922C380.995 268.859 382.229 270.109 383.135 271.672C384.073 273.234 384.542 274.969 384.542 276.875C384.542 278.781 384.089 280.531 383.182 282.125C382.276 283.719 381.057 284.984 379.526 285.922C378.026 286.859 376.323 287.328 374.417 287.328ZM374.839 285.5C375.964 285.5 376.948 285.141 377.792 284.422C378.635 283.703 379.292 282.734 379.76 281.516C380.26 280.297 380.51 278.969 380.51 277.531C380.51 275.844 380.198 274.312 379.573 272.938C378.948 271.531 378.12 270.422 377.089 269.609C376.089 268.766 374.995 268.344 373.807 268.344C372.714 268.344 371.729 268.703 370.854 269.422C370.01 270.109 369.354 271.047 368.885 272.234C368.417 273.391 368.182 274.703 368.182 276.172C368.182 277.859 368.479 279.422 369.073 280.859C369.698 282.266 370.51 283.391 371.51 284.234C372.542 285.078 373.651 285.5 374.839 285.5ZM387.776 287.141C387.651 287.016 387.589 286.75 387.589 286.344C387.589 285.969 387.651 285.781 387.776 285.781C388.026 285.781 388.37 285.734 388.807 285.641C389.245 285.547 389.651 285.422 390.026 285.266C390.401 285.109 390.604 284.969 390.635 284.844C390.76 284.406 390.839 283.906 390.87 283.344C390.932 282.781 390.964 282.188 390.964 281.562V272.703C390.964 271.516 390.745 270.672 390.307 270.172C389.995 269.797 389.62 269.547 389.182 269.422C388.776 269.297 388.401 269.234 388.057 269.234C387.745 269.203 387.589 269.156 387.589 269.094C387.589 268.344 387.682 267.953 387.87 267.922C389.526 267.672 390.823 267.453 391.76 267.266C392.729 267.078 393.464 266.922 393.964 266.797L394.573 266.656C394.698 266.625 394.776 266.75 394.807 267.031C394.839 267.281 394.839 267.484 394.807 267.641C394.745 268.078 394.698 268.453 394.667 268.766C394.635 269.078 394.62 269.328 394.62 269.516C394.62 269.641 394.651 269.703 394.714 269.703C394.745 269.703 394.792 269.672 394.854 269.609C395.573 268.859 396.542 268.156 397.76 267.5C399.01 266.812 400.198 266.469 401.323 266.469C402.573 266.469 403.604 266.812 404.417 267.5C405.26 268.156 405.839 268.922 406.151 269.797C408.526 267.578 410.948 266.469 413.417 266.469C417.354 266.469 419.323 269.469 419.323 275.469V280.672C419.323 281.578 419.354 282.375 419.417 283.062C419.479 283.75 419.573 284.344 419.698 284.844C419.76 284.969 419.979 285.109 420.354 285.266C420.729 285.422 421.135 285.547 421.573 285.641C422.01 285.734 422.323 285.781 422.51 285.781C422.604 285.781 422.667 285.969 422.698 286.344C422.729 286.719 422.714 286.984 422.651 287.141L417.635 286.906L412.526 287.141C412.401 287.016 412.339 286.75 412.339 286.344C412.339 285.969 412.401 285.781 412.526 285.781C412.776 285.781 413.12 285.734 413.557 285.641C413.995 285.547 414.401 285.422 414.776 285.266C415.151 285.109 415.354 284.969 415.385 284.844C415.51 284.406 415.589 283.938 415.62 283.438C415.682 282.906 415.714 282.375 415.714 281.844V276.547C415.714 271.734 414.135 269.328 410.979 269.328C410.229 269.328 409.526 269.5 408.87 269.844C408.214 270.156 407.682 270.516 407.276 270.922C406.901 271.328 406.714 271.688 406.714 272C406.807 272.594 406.87 273.203 406.901 273.828C406.932 274.422 406.948 275.078 406.948 275.797V281.094C406.948 281.875 406.979 282.578 407.042 283.203C407.104 283.797 407.198 284.344 407.323 284.844C407.385 284.969 407.604 285.109 407.979 285.266C408.354 285.422 408.76 285.547 409.198 285.641C409.635 285.734 409.948 285.781 410.135 285.781C410.229 285.781 410.292 285.969 410.323 286.344C410.354 286.719 410.339 286.984 410.276 287.141L405.26 286.906L400.151 287.141C400.026 287.016 399.964 286.75 399.964 286.344C399.964 285.969 400.026 285.781 400.151 285.781C400.401 285.781 400.745 285.734 401.182 285.641C401.62 285.547 402.026 285.422 402.401 285.266C402.776 285.109 402.979 284.969 403.01 284.844C403.135 284.406 403.214 283.906 403.245 283.344C403.307 282.781 403.339 282.188 403.339 281.562V276.781C403.339 271.812 401.839 269.328 398.839 269.328C398.214 269.328 397.573 269.5 396.917 269.844C396.26 270.156 395.698 270.562 395.229 271.062C394.792 271.531 394.573 271.984 394.573 272.422V280.672C394.573 281.578 394.604 282.375 394.667 283.062C394.729 283.75 394.823 284.344 394.948 284.844C395.01 284.969 395.229 285.109 395.604 285.266C395.979 285.422 396.385 285.547 396.823 285.641C397.26 285.734 397.573 285.781 397.76 285.781C397.854 285.781 397.917 285.969 397.948 286.344C397.979 286.719 397.964 286.984 397.901 287.141L392.885 286.906L387.776 287.141ZM425.276 287.141C425.151 287.016 425.089 286.75 425.089 286.344C425.089 285.969 425.151 285.781 425.276 285.781C425.526 285.781 425.87 285.734 426.307 285.641C426.745 285.547 427.151 285.422 427.526 285.266C427.901 285.109 428.104 284.969 428.135 284.844C428.26 284.406 428.339 283.906 428.37 283.344C428.432 282.781 428.464 282.188 428.464 281.562V272.703C428.464 271.516 428.245 270.672 427.807 270.172C427.495 269.797 427.12 269.547 426.682 269.422C426.276 269.297 425.901 269.234 425.557 269.234C425.245 269.203 425.089 269.156 425.089 269.094C425.089 268.344 425.182 267.953 425.37 267.922C427.026 267.672 428.323 267.453 429.26 267.266C430.229 267.078 430.964 266.922 431.464 266.797L432.073 266.656C432.198 266.625 432.276 266.75 432.307 267.031C432.339 267.281 432.339 267.484 432.307 267.641C432.245 268.078 432.198 268.453 432.167 268.766C432.135 269.078 432.12 269.328 432.12 269.516C432.12 269.641 432.151 269.703 432.214 269.703C432.245 269.703 432.292 269.672 432.354 269.609C433.073 268.859 434.042 268.156 435.26 267.5C436.51 266.812 437.698 266.469 438.823 266.469C440.073 266.469 441.104 266.812 441.917 267.5C442.76 268.156 443.339 268.922 443.651 269.797C446.026 267.578 448.448 266.469 450.917 266.469C454.854 266.469 456.823 269.469 456.823 275.469V280.672C456.823 281.578 456.854 282.375 456.917 283.062C456.979 283.75 457.073 284.344 457.198 284.844C457.26 284.969 457.479 285.109 457.854 285.266C458.229 285.422 458.635 285.547 459.073 285.641C459.51 285.734 459.823 285.781 460.01 285.781C460.104 285.781 460.167 285.969 460.198 286.344C460.229 286.719 460.214 286.984 460.151 287.141L455.135 286.906L450.026 287.141C449.901 287.016 449.839 286.75 449.839 286.344C449.839 285.969 449.901 285.781 450.026 285.781C450.276 285.781 450.62 285.734 451.057 285.641C451.495 285.547 451.901 285.422 452.276 285.266C452.651 285.109 452.854 284.969 452.885 284.844C453.01 284.406 453.089 283.938 453.12 283.438C453.182 282.906 453.214 282.375 453.214 281.844V276.547C453.214 271.734 451.635 269.328 448.479 269.328C447.729 269.328 447.026 269.5 446.37 269.844C445.714 270.156 445.182 270.516 444.776 270.922C444.401 271.328 444.214 271.688 444.214 272C444.307 272.594 444.37 273.203 444.401 273.828C444.432 274.422 444.448 275.078 444.448 275.797V281.094C444.448 281.875 444.479 282.578 444.542 283.203C444.604 283.797 444.698 284.344 444.823 284.844C444.885 284.969 445.104 285.109 445.479 285.266C445.854 285.422 446.26 285.547 446.698 285.641C447.135 285.734 447.448 285.781 447.635 285.781C447.729 285.781 447.792 285.969 447.823 286.344C447.854 286.719 447.839 286.984 447.776 287.141L442.76 286.906L437.651 287.141C437.526 287.016 437.464 286.75 437.464 286.344C437.464 285.969 437.526 285.781 437.651 285.781C437.901 285.781 438.245 285.734 438.682 285.641C439.12 285.547 439.526 285.422 439.901 285.266C440.276 285.109 440.479 284.969 440.51 284.844C440.635 284.406 440.714 283.906 440.745 283.344C440.807 282.781 440.839 282.188 440.839 281.562V276.781C440.839 271.812 439.339 269.328 436.339 269.328C435.714 269.328 435.073 269.5 434.417 269.844C433.76 270.156 433.198 270.562 432.729 271.062C432.292 271.531 432.073 271.984 432.073 272.422V280.672C432.073 281.578 432.104 282.375 432.167 283.062C432.229 283.75 432.323 284.344 432.448 284.844C432.51 284.969 432.729 285.109 433.104 285.266C433.479 285.422 433.885 285.547 434.323 285.641C434.76 285.734 435.073 285.781 435.26 285.781C435.354 285.781 435.417 285.969 435.448 286.344C435.479 286.719 435.464 286.984 435.401 287.141L430.385 286.906L425.276 287.141ZM472.526 287.281C470.807 287.281 469.229 286.828 467.792 285.922C466.354 285.016 465.198 283.812 464.323 282.312C463.479 280.781 463.057 279.078 463.057 277.203C463.057 275.016 463.464 273.125 464.276 271.531C465.089 269.938 466.198 268.719 467.604 267.875C469.01 267 470.589 266.562 472.339 266.562C473.776 266.562 475.042 266.844 476.135 267.406C477.229 267.938 478.073 268.625 478.667 269.469C479.229 270.344 479.635 271.234 479.885 272.141C480.167 273.016 480.307 273.891 480.307 274.766C480.307 275.391 480.214 275.781 480.026 275.938C479.839 276.062 479.479 276.125 478.948 276.125H467.135C466.885 276.125 466.76 276.203 466.76 276.359C466.76 277.672 467.026 278.938 467.557 280.156C468.089 281.344 468.87 282.328 469.901 283.109C470.932 283.891 472.198 284.281 473.698 284.281C475.01 284.281 476.104 284.094 476.979 283.719C477.885 283.312 478.542 282.953 478.948 282.641L479.276 282.406C479.464 282.406 479.557 282.609 479.557 283.016C479.557 283.234 479.464 283.516 479.276 283.859C478.651 284.734 477.729 285.531 476.51 286.25C475.292 286.938 473.964 287.281 472.526 287.281ZM467.135 274.156H476.276C476.432 274.156 476.51 274 476.51 273.688C476.51 273 476.323 272.25 475.948 271.438C475.604 270.594 475.073 269.859 474.354 269.234C473.635 268.609 472.729 268.297 471.635 268.297C470.635 268.297 469.776 268.641 469.057 269.328C468.339 269.984 467.792 270.75 467.417 271.625C467.042 272.469 466.854 273.203 466.854 273.828C466.854 274.047 466.948 274.156 467.135 274.156ZM483.214 287.141C483.089 287.016 483.026 286.75 483.026 286.344C483.026 285.969 483.089 285.781 483.214 285.781C483.464 285.781 483.807 285.734 484.245 285.641C484.682 285.547 485.089 285.422 485.464 285.266C485.839 285.109 486.042 284.969 486.073 284.844C486.198 284.406 486.276 283.906 486.307 283.344C486.37 282.781 486.401 282.188 486.401 281.562V272.703C486.401 271.516 486.182 270.672 485.745 270.172C485.432 269.797 485.057 269.547 484.62 269.422C484.214 269.297 483.839 269.234 483.495 269.234C483.182 269.203 483.026 269.156 483.026 269.094C483.026 268.344 483.12 267.953 483.307 267.922C486.714 267.391 488.682 267.047 489.214 266.891L490.01 266.656C490.135 266.625 490.214 266.75 490.245 267.031C490.276 267.312 490.276 267.516 490.245 267.641L489.964 269.984C490.526 269.141 491.292 268.359 492.26 267.641C493.26 266.891 494.245 266.516 495.214 266.516C497.026 266.516 498.245 266.969 498.87 267.875C498.87 268.969 498.698 269.766 498.354 270.266C498.01 270.766 497.589 271.016 497.089 271.016C496.526 271.016 496.01 270.75 495.542 270.219C495.073 269.688 494.432 269.422 493.62 269.422C492.995 269.422 492.401 269.641 491.839 270.078C491.276 270.484 490.823 271.016 490.479 271.672C490.167 272.297 490.01 272.953 490.01 273.641V280.672C490.01 281.578 490.042 282.375 490.104 283.062C490.167 283.75 490.26 284.344 490.385 284.844C490.448 284.969 490.667 285.109 491.042 285.266C491.417 285.422 491.823 285.547 492.26 285.641C492.729 285.734 493.057 285.781 493.245 285.781C493.339 285.781 493.401 285.969 493.432 286.344C493.464 286.719 493.448 286.984 493.385 287.141L488.323 286.906L483.214 287.141ZM510.495 287.281C508.776 287.281 507.198 286.828 505.76 285.922C504.323 285.016 503.167 283.812 502.292 282.312C501.448 280.781 501.026 279.078 501.026 277.203C501.026 275.266 501.37 273.5 502.057 271.906C502.776 270.281 503.807 268.984 505.151 268.016C506.526 267.047 508.182 266.562 510.12 266.562C513.557 266.562 515.932 267.359 517.245 268.953C517.245 271.047 516.667 272.094 515.51 272.094C514.979 272.094 514.573 271.984 514.292 271.766C514.01 271.516 513.651 271.078 513.214 270.453C512.245 269.016 511.089 268.297 509.745 268.297C508.464 268.297 507.292 268.906 506.229 270.125C505.198 271.344 504.682 273.156 504.682 275.562C504.682 278.062 505.292 280.141 506.51 281.797C507.76 283.453 509.479 284.281 511.667 284.281C512.979 284.281 514.073 284.094 514.948 283.719C515.854 283.312 516.51 282.953 516.917 282.641L517.245 282.406C517.432 282.406 517.526 282.609 517.526 283.016C517.526 283.234 517.432 283.516 517.245 283.859C516.62 284.734 515.698 285.531 514.479 286.25C513.26 286.938 511.932 287.281 510.495 287.281ZM519.964 287.141C519.839 287.016 519.776 286.75 519.776 286.344C519.776 285.969 519.839 285.781 519.964 285.781C520.214 285.781 520.557 285.734 520.995 285.641C521.432 285.547 521.839 285.422 522.214 285.266C522.589 285.109 522.792 284.969 522.823 284.844C522.948 284.406 523.026 283.906 523.057 283.344C523.12 282.781 523.151 282.188 523.151 281.562V272.703C523.151 271.516 522.932 270.672 522.495 270.172C522.182 269.766 521.807 269.516 521.37 269.422C520.932 269.297 520.557 269.234 520.245 269.234C519.932 269.203 519.776 269.156 519.776 269.094C519.776 268.344 519.87 267.953 520.057 267.922C521.714 267.672 522.979 267.469 523.854 267.312C524.729 267.125 525.51 266.953 526.198 266.797L526.76 266.656C526.885 266.625 526.964 266.75 526.995 267.031C527.026 267.312 527.026 267.516 526.995 267.641C526.932 268.266 526.87 268.859 526.807 269.422C526.776 269.984 526.76 270.516 526.76 271.016V280.672C526.76 281.578 526.792 282.375 526.854 283.062C526.917 283.75 527.01 284.344 527.135 284.844C527.198 284.969 527.417 285.109 527.792 285.266C528.167 285.422 528.573 285.547 529.01 285.641C529.448 285.734 529.76 285.781 529.948 285.781C530.042 285.781 530.104 285.969 530.135 286.344C530.167 286.719 530.151 286.984 530.089 287.141L525.073 286.906L519.964 287.141ZM524.604 261.547C523.979 261.547 523.432 261.312 522.964 260.844C522.495 260.375 522.26 259.828 522.26 259.203C522.26 258.547 522.495 258 522.964 257.562C523.432 257.094 523.979 256.859 524.604 256.859C525.26 256.859 525.807 257.094 526.245 257.562C526.714 258 526.948 258.547 526.948 259.203C526.948 259.828 526.714 260.375 526.245 260.844C525.807 261.312 525.26 261.547 524.604 261.547ZM538.292 287.328C536.854 287.328 535.667 286.953 534.729 286.203C533.792 285.422 533.323 284.266 533.323 282.734C533.323 280.859 534.542 279.297 536.979 278.047C538.042 277.516 539.089 277.094 540.12 276.781C541.182 276.469 542.245 276.109 543.307 275.703C543.589 275.609 543.729 275.375 543.729 275V271.484C543.729 270.484 543.417 269.719 542.792 269.188C542.167 268.625 541.417 268.344 540.542 268.344C539.604 268.344 538.823 268.672 538.198 269.328C537.573 269.953 537.26 270.781 537.26 271.812C537.26 272.906 536.62 273.453 535.339 273.453C534.432 273.453 533.823 273.156 533.51 272.562C533.51 271.906 533.776 271.234 534.307 270.547C534.87 269.828 535.589 269.172 536.464 268.578C537.339 267.984 538.292 267.5 539.323 267.125C540.385 266.75 541.432 266.562 542.464 266.562C544.182 266.562 545.417 266.984 546.167 267.828C546.917 268.641 547.292 269.969 547.292 271.812V282.641C547.292 283.297 547.464 283.844 547.807 284.281C548.151 284.719 548.62 284.938 549.214 284.938C549.62 284.938 550.167 284.719 550.854 284.281C550.979 284.281 551.042 284.406 551.042 284.656C551.042 285.062 550.964 285.391 550.807 285.641C549.526 286.734 548.432 287.281 547.526 287.281C546.807 287.281 546.12 286.984 545.464 286.391C544.807 285.797 544.354 285.172 544.104 284.516C543.948 284.641 543.745 284.812 543.495 285.031C543.276 285.219 543.089 285.375 542.932 285.5C542.276 286 541.557 286.438 540.776 286.812C540.026 287.156 539.198 287.328 538.292 287.328ZM540.073 284.656C540.948 284.656 541.776 284.406 542.557 283.906C543.339 283.406 543.729 282.875 543.729 282.312V277.484C542.917 277.797 542.135 278.078 541.385 278.328C540.667 278.578 540.089 278.781 539.651 278.938C539.089 279.156 538.542 279.547 538.01 280.109C537.51 280.672 537.26 281.312 537.26 282.031C537.26 282.969 537.542 283.641 538.104 284.047C538.698 284.453 539.354 284.656 540.073 284.656ZM552.214 287.141C552.089 287.016 552.026 286.75 552.026 286.344C552.026 285.969 552.089 285.781 552.214 285.781C552.464 285.781 552.807 285.734 553.245 285.641C553.682 285.547 554.089 285.422 554.464 285.266C554.839 285.109 555.042 284.969 555.073 284.844C555.198 284.406 555.276 283.906 555.307 283.344C555.37 282.781 555.401 282.188 555.401 281.562V261.266C555.401 260.203 555.307 259.203 555.12 258.266C554.995 257.766 554.198 257.516 552.729 257.516H552.307C552.12 257.516 552.026 257.344 552.026 257C552.026 256.5 552.12 256.25 552.307 256.25C554.182 256.031 555.573 255.781 556.479 255.5C557.385 255.219 558.01 254.969 558.354 254.75L558.823 254.469H558.917C559.042 254.469 559.167 254.562 559.292 254.75C559.417 254.906 559.495 255.062 559.526 255.219C559.182 256.25 559.01 257.609 559.01 259.297V280.672C559.01 281.578 559.042 282.375 559.104 283.062C559.167 283.75 559.26 284.344 559.385 284.844C559.448 284.969 559.667 285.109 560.042 285.266C560.417 285.422 560.823 285.547 561.26 285.641C561.698 285.734 562.01 285.781 562.198 285.781C562.292 285.781 562.354 285.969 562.385 286.344C562.417 286.719 562.401 286.984 562.339 287.141L557.323 286.906L552.214 287.141ZM590.745 287.281C588.682 287.281 586.745 286.875 584.932 286.062C583.151 285.25 581.573 284.141 580.198 282.734C578.854 281.328 577.792 279.703 577.01 277.859C576.26 275.984 575.885 274 575.885 271.906C575.885 269.688 576.276 267.609 577.057 265.672C577.839 263.703 578.932 261.984 580.339 260.516C581.745 259.016 583.37 257.844 585.214 257C587.089 256.156 589.104 255.734 591.26 255.734C593.104 255.734 594.979 255.828 596.885 256.016C598.792 256.203 600.714 256.5 602.651 256.906L602.557 263.656C602.557 264.125 602.229 264.359 601.573 264.359C601.26 264.359 601.057 264.281 600.964 264.125C600.87 263.719 600.745 263.312 600.589 262.906C600.464 262.469 600.182 261.906 599.745 261.219C598.995 260.125 597.917 259.266 596.51 258.641C595.135 258.016 593.432 257.703 591.401 257.703C589.87 257.703 588.432 258.078 587.089 258.828C585.745 259.547 584.557 260.531 583.526 261.781C582.526 263.031 581.745 264.453 581.182 266.047C580.62 267.609 580.339 269.234 580.339 270.922C580.339 273.516 580.776 275.844 581.651 277.906C582.526 280.031 583.901 281.797 585.776 283.203C587.682 284.578 589.932 285.266 592.526 285.266C595.62 285.266 598.01 284.359 599.698 282.547C600.198 282.016 600.589 281.391 600.87 280.672C601.151 279.953 601.37 279.328 601.526 278.797C601.682 278.266 601.839 278 601.995 278C602.182 278 602.401 278.031 602.651 278.094C602.932 278.125 603.151 278.188 603.307 278.281L603.542 278.422C603.542 278.609 603.479 279.047 603.354 279.734C603.229 280.422 603.073 281.188 602.885 282.031C602.698 282.844 602.51 283.562 602.323 284.188C602.167 284.812 602.042 285.156 601.948 285.219C599.635 286.594 595.901 287.281 590.745 287.281ZM605.464 287.141C605.339 287.016 605.276 286.75 605.276 286.344C605.276 285.969 605.339 285.781 605.464 285.781C605.714 285.781 606.057 285.734 606.495 285.641C606.932 285.547 607.339 285.422 607.714 285.266C608.089 285.109 608.292 284.969 608.323 284.844C608.448 284.406 608.526 283.906 608.557 283.344C608.62 282.781 608.651 282.188 608.651 281.562V261.266C608.651 260.203 608.557 259.203 608.37 258.266C608.245 257.766 607.448 257.516 605.979 257.516H605.557C605.37 257.516 605.276 257.344 605.276 257C605.276 256.5 605.37 256.25 605.557 256.25C607.432 256.031 608.823 255.781 609.729 255.5C610.635 255.219 611.26 254.969 611.604 254.75L612.073 254.469H612.167C612.292 254.469 612.417 254.562 612.542 254.75C612.667 254.906 612.745 255.062 612.776 255.219C612.432 256.25 612.26 257.609 612.26 259.297V280.672C612.26 281.578 612.292 282.375 612.354 283.062C612.417 283.75 612.51 284.344 612.635 284.844C612.698 284.969 612.917 285.109 613.292 285.266C613.667 285.422 614.073 285.547 614.51 285.641C614.948 285.734 615.26 285.781 615.448 285.781C615.542 285.781 615.604 285.969 615.635 286.344C615.667 286.719 615.651 286.984 615.589 287.141L610.573 286.906L605.464 287.141ZM627.542 287.281C625.823 287.281 624.245 286.828 622.807 285.922C621.37 285.016 620.214 283.812 619.339 282.312C618.495 280.781 618.073 279.078 618.073 277.203C618.073 275.016 618.479 273.125 619.292 271.531C620.104 269.938 621.214 268.719 622.62 267.875C624.026 267 625.604 266.562 627.354 266.562C628.792 266.562 630.057 266.844 631.151 267.406C632.245 267.938 633.089 268.625 633.682 269.469C634.245 270.344 634.651 271.234 634.901 272.141C635.182 273.016 635.323 273.891 635.323 274.766C635.323 275.391 635.229 275.781 635.042 275.938C634.854 276.062 634.495 276.125 633.964 276.125H622.151C621.901 276.125 621.776 276.203 621.776 276.359C621.776 277.672 622.042 278.938 622.573 280.156C623.104 281.344 623.885 282.328 624.917 283.109C625.948 283.891 627.214 284.281 628.714 284.281C630.026 284.281 631.12 284.094 631.995 283.719C632.901 283.312 633.557 282.953 633.964 282.641L634.292 282.406C634.479 282.406 634.573 282.609 634.573 283.016C634.573 283.234 634.479 283.516 634.292 283.859C633.667 284.734 632.745 285.531 631.526 286.25C630.307 286.938 628.979 287.281 627.542 287.281ZM622.151 274.156H631.292C631.448 274.156 631.526 274 631.526 273.688C631.526 273 631.339 272.25 630.964 271.438C630.62 270.594 630.089 269.859 629.37 269.234C628.651 268.609 627.745 268.297 626.651 268.297C625.651 268.297 624.792 268.641 624.073 269.328C623.354 269.984 622.807 270.75 622.432 271.625C622.057 272.469 621.87 273.203 621.87 273.828C621.87 274.047 621.964 274.156 622.151 274.156ZM643.292 287.328C641.854 287.328 640.667 286.953 639.729 286.203C638.792 285.422 638.323 284.266 638.323 282.734C638.323 280.859 639.542 279.297 641.979 278.047C643.042 277.516 644.089 277.094 645.12 276.781C646.182 276.469 647.245 276.109 648.307 275.703C648.589 275.609 648.729 275.375 648.729 275V271.484C648.729 270.484 648.417 269.719 647.792 269.188C647.167 268.625 646.417 268.344 645.542 268.344C644.604 268.344 643.823 268.672 643.198 269.328C642.573 269.953 642.26 270.781 642.26 271.812C642.26 272.906 641.62 273.453 640.339 273.453C639.432 273.453 638.823 273.156 638.51 272.562C638.51 271.906 638.776 271.234 639.307 270.547C639.87 269.828 640.589 269.172 641.464 268.578C642.339 267.984 643.292 267.5 644.323 267.125C645.385 266.75 646.432 266.562 647.464 266.562C649.182 266.562 650.417 266.984 651.167 267.828C651.917 268.641 652.292 269.969 652.292 271.812V282.641C652.292 283.297 652.464 283.844 652.807 284.281C653.151 284.719 653.62 284.938 654.214 284.938C654.62 284.938 655.167 284.719 655.854 284.281C655.979 284.281 656.042 284.406 656.042 284.656C656.042 285.062 655.964 285.391 655.807 285.641C654.526 286.734 653.432 287.281 652.526 287.281C651.807 287.281 651.12 286.984 650.464 286.391C649.807 285.797 649.354 285.172 649.104 284.516C648.948 284.641 648.745 284.812 648.495 285.031C648.276 285.219 648.089 285.375 647.932 285.5C647.276 286 646.557 286.438 645.776 286.812C645.026 287.156 644.198 287.328 643.292 287.328ZM645.073 284.656C645.948 284.656 646.776 284.406 647.557 283.906C648.339 283.406 648.729 282.875 648.729 282.312V277.484C647.917 277.797 647.135 278.078 646.385 278.328C645.667 278.578 645.089 278.781 644.651 278.938C644.089 279.156 643.542 279.547 643.01 280.109C642.51 280.672 642.26 281.312 642.26 282.031C642.26 282.969 642.542 283.641 643.104 284.047C643.698 284.453 644.354 284.656 645.073 284.656ZM657.87 287.141C657.745 287.016 657.682 286.75 657.682 286.344C657.682 285.969 657.745 285.781 657.87 285.781C658.12 285.781 658.464 285.734 658.901 285.641C659.339 285.547 659.745 285.422 660.12 285.266C660.495 285.109 660.698 284.969 660.729 284.844C660.854 284.406 660.932 283.906 660.964 283.344C661.026 282.781 661.057 282.188 661.057 281.562V272.703C661.057 271.516 660.839 270.672 660.401 270.172C660.089 269.797 659.714 269.547 659.276 269.422C658.87 269.297 658.495 269.234 658.151 269.234C657.839 269.203 657.682 269.156 657.682 269.094C657.682 268.344 657.776 267.953 657.964 267.922C659.62 267.672 660.964 267.453 661.995 267.266C663.026 267.047 663.667 266.906 663.917 266.844L664.667 266.656C664.792 266.625 664.87 266.75 664.901 267.031C664.932 267.312 664.932 267.516 664.901 267.641C664.839 268.078 664.792 268.453 664.76 268.766C664.729 269.078 664.714 269.328 664.714 269.516C664.714 269.641 664.745 269.703 664.807 269.703C664.839 269.703 664.885 269.672 664.948 269.609C665.667 268.859 666.635 268.156 667.854 267.5C669.104 266.812 670.292 266.469 671.417 266.469C673.604 266.469 675.135 267.25 676.01 268.812C676.885 270.375 677.323 272.906 677.323 276.406V280.672C677.323 281.578 677.354 282.375 677.417 283.062C677.479 283.75 677.573 284.344 677.698 284.844C677.76 284.969 677.979 285.109 678.354 285.266C678.729 285.422 679.135 285.547 679.573 285.641C680.01 285.734 680.323 285.781 680.51 285.781C680.604 285.781 680.667 285.969 680.698 286.344C680.729 286.719 680.714 286.984 680.651 287.141L675.635 286.906L670.714 287.141C670.589 287.016 670.526 286.75 670.526 286.344C670.526 285.969 670.589 285.781 670.714 285.781C670.964 285.781 671.292 285.734 671.698 285.641C672.104 285.547 672.479 285.422 672.823 285.266C673.167 285.109 673.354 284.969 673.385 284.844C673.51 284.406 673.589 283.906 673.62 283.344C673.682 282.781 673.714 282.188 673.714 281.562V276.875C673.714 273.969 673.339 271.984 672.589 270.922C671.839 269.859 670.62 269.328 668.932 269.328C668.276 269.328 667.62 269.516 666.964 269.891C666.307 270.234 665.76 270.641 665.323 271.109C664.885 271.578 664.667 272.016 664.667 272.422V280.672C664.667 281.578 664.698 282.375 664.76 283.062C664.823 283.75 664.917 284.344 665.042 284.844C665.104 284.969 665.323 285.109 665.698 285.266C666.073 285.422 666.479 285.547 666.917 285.641C667.354 285.734 667.667 285.781 667.854 285.781C667.948 285.781 668.01 285.969 668.042 286.344C668.073 286.719 668.057 286.984 667.995 287.141L662.979 286.906L657.87 287.141ZM683.464 287.141C683.339 287.016 683.276 286.75 683.276 286.344C683.276 285.969 683.339 285.781 683.464 285.781C683.714 285.781 684.057 285.734 684.495 285.641C684.932 285.547 685.339 285.422 685.714 285.266C686.089 285.109 686.292 284.969 686.323 284.844C686.448 284.406 686.526 283.906 686.557 283.344C686.62 282.781 686.651 282.188 686.651 281.562V272.703C686.651 271.516 686.432 270.672 685.995 270.172C685.682 269.766 685.307 269.516 684.87 269.422C684.432 269.297 684.057 269.234 683.745 269.234C683.432 269.203 683.276 269.156 683.276 269.094C683.276 268.344 683.37 267.953 683.557 267.922C685.214 267.672 686.479 267.469 687.354 267.312C688.229 267.125 689.01 266.953 689.698 266.797L690.26 266.656C690.385 266.625 690.464 266.75 690.495 267.031C690.526 267.312 690.526 267.516 690.495 267.641C690.432 268.266 690.37 268.859 690.307 269.422C690.276 269.984 690.26 270.516 690.26 271.016V280.672C690.26 281.578 690.292 282.375 690.354 283.062C690.417 283.75 690.51 284.344 690.635 284.844C690.698 284.969 690.917 285.109 691.292 285.266C691.667 285.422 692.073 285.547 692.51 285.641C692.948 285.734 693.26 285.781 693.448 285.781C693.542 285.781 693.604 285.969 693.635 286.344C693.667 286.719 693.651 286.984 693.589 287.141L688.573 286.906L683.464 287.141ZM688.104 261.547C687.479 261.547 686.932 261.312 686.464 260.844C685.995 260.375 685.76 259.828 685.76 259.203C685.76 258.547 685.995 258 686.464 257.562C686.932 257.094 687.479 256.859 688.104 256.859C688.76 256.859 689.307 257.094 689.745 257.562C690.214 258 690.448 258.547 690.448 259.203C690.448 259.828 690.214 260.375 689.745 260.844C689.307 261.312 688.76 261.547 688.104 261.547ZM696.542 287.141C696.417 287.016 696.354 286.75 696.354 286.344C696.354 285.969 696.417 285.781 696.542 285.781C696.792 285.781 697.135 285.734 697.573 285.641C698.01 285.547 698.417 285.422 698.792 285.266C699.167 285.109 699.37 284.969 699.401 284.844C699.526 284.406 699.604 283.906 699.635 283.344C699.698 282.781 699.729 282.188 699.729 281.562V272.703C699.729 271.516 699.51 270.672 699.073 270.172C698.76 269.797 698.385 269.547 697.948 269.422C697.542 269.297 697.167 269.234 696.823 269.234C696.51 269.203 696.354 269.156 696.354 269.094C696.354 268.344 696.448 267.953 696.635 267.922C698.292 267.672 699.635 267.453 700.667 267.266C701.698 267.047 702.339 266.906 702.589 266.844L703.339 266.656C703.464 266.625 703.542 266.75 703.573 267.031C703.604 267.312 703.604 267.516 703.573 267.641C703.51 268.078 703.464 268.453 703.432 268.766C703.401 269.078 703.385 269.328 703.385 269.516C703.385 269.641 703.417 269.703 703.479 269.703C703.51 269.703 703.557 269.672 703.62 269.609C704.339 268.859 705.307 268.156 706.526 267.5C707.776 266.812 708.964 266.469 710.089 266.469C712.276 266.469 713.807 267.25 714.682 268.812C715.557 270.375 715.995 272.906 715.995 276.406V280.672C715.995 281.578 716.026 282.375 716.089 283.062C716.151 283.75 716.245 284.344 716.37 284.844C716.432 284.969 716.651 285.109 717.026 285.266C717.401 285.422 717.807 285.547 718.245 285.641C718.682 285.734 718.995 285.781 719.182 285.781C719.276 285.781 719.339 285.969 719.37 286.344C719.401 286.719 719.385 286.984 719.323 287.141L714.307 286.906L709.385 287.141C709.26 287.016 709.198 286.75 709.198 286.344C709.198 285.969 709.26 285.781 709.385 285.781C709.635 285.781 709.964 285.734 710.37 285.641C710.776 285.547 711.151 285.422 711.495 285.266C711.839 285.109 712.026 284.969 712.057 284.844C712.182 284.406 712.26 283.906 712.292 283.344C712.354 282.781 712.385 282.188 712.385 281.562V276.875C712.385 273.969 712.01 271.984 711.26 270.922C710.51 269.859 709.292 269.328 707.604 269.328C706.948 269.328 706.292 269.516 705.635 269.891C704.979 270.234 704.432 270.641 703.995 271.109C703.557 271.578 703.339 272.016 703.339 272.422V280.672C703.339 281.578 703.37 282.375 703.432 283.062C703.495 283.75 703.589 284.344 703.714 284.844C703.776 284.969 703.995 285.109 704.37 285.266C704.745 285.422 705.151 285.547 705.589 285.641C706.026 285.734 706.339 285.781 706.526 285.781C706.62 285.781 706.682 285.969 706.714 286.344C706.745 286.719 706.729 286.984 706.667 287.141L701.651 286.906L696.542 287.141ZM730.432 297.641C728.964 297.641 727.557 297.453 726.214 297.078C724.901 296.703 723.839 296.125 723.026 295.344C722.214 294.562 721.807 293.594 721.807 292.438C721.807 290.5 723.339 288.844 726.401 287.469C725.557 287.344 724.776 286.953 724.057 286.297C723.339 285.641 722.979 284.844 722.979 283.906C722.979 283.094 723.323 282.25 724.01 281.375C724.729 280.5 725.526 279.781 726.401 279.219C725.776 278.969 725.167 278.547 724.573 277.953C724.01 277.359 723.542 276.656 723.167 275.844C722.792 275.031 722.604 274.188 722.604 273.312C722.604 272.062 722.964 270.953 723.682 269.984C724.401 268.984 725.354 268.203 726.542 267.641C727.76 267.047 729.12 266.75 730.62 266.75C731.839 266.75 733.167 266.953 734.604 267.359C736.042 267.766 737.276 267.969 738.307 267.969H741.026C741.214 268 741.307 268.391 741.307 269.141C741.307 269.578 741.214 269.797 741.026 269.797H737.698C737.573 269.797 737.51 269.844 737.51 269.938L737.979 271.062C738.323 271.844 738.495 272.594 738.495 273.312C738.495 274.438 738.151 275.5 737.464 276.5C736.776 277.5 735.839 278.312 734.651 278.938C733.495 279.562 732.182 279.875 730.714 279.875C730.214 279.875 729.745 279.859 729.307 279.828C728.87 279.797 728.464 279.75 728.089 279.688C727.495 280.125 727.01 280.578 726.635 281.047C726.292 281.516 726.12 281.984 726.12 282.453C726.12 283.234 726.557 283.734 727.432 283.953C728.307 284.172 729.432 284.281 730.807 284.281C732.745 284.312 734.385 284.438 735.729 284.656C737.104 284.844 738.182 285.109 738.964 285.453C740.526 286.203 741.307 287.312 741.307 288.781C741.307 290.375 740.839 291.844 739.901 293.188C738.995 294.531 737.714 295.594 736.057 296.375C734.432 297.188 732.557 297.609 730.432 297.641ZM730.667 278.281C731.885 278.281 732.885 277.812 733.667 276.875C734.479 275.938 734.885 274.812 734.885 273.5C734.885 272.062 734.432 270.844 733.526 269.844C732.651 268.844 731.62 268.344 730.432 268.344C729.214 268.344 728.198 268.812 727.385 269.75C726.604 270.688 726.214 271.812 726.214 273.125C726.214 274.562 726.651 275.781 727.526 276.781C728.432 277.781 729.479 278.281 730.667 278.281ZM731.792 295.906C733.042 295.906 734.151 295.672 735.12 295.203C736.089 294.734 736.839 294.125 737.37 293.375C737.932 292.625 738.214 291.828 738.214 290.984C738.214 289.672 737.573 288.797 736.292 288.359C735.042 287.891 732.557 287.656 728.839 287.656C728.589 287.656 728.151 287.797 727.526 288.078C726.932 288.359 726.37 288.766 725.839 289.297C725.339 289.859 725.089 290.562 725.089 291.406C725.089 292.281 725.417 293.062 726.073 293.75C726.729 294.438 727.557 294.969 728.557 295.344C729.589 295.719 730.667 295.906 731.792 295.906Z" fill="white"/>
</svg>
